<?xml version="1.0" encoding="iso-8859-1"?>
<!-- Generator: Adobe Illustrator 18.1.1, SVG Export Plug-In . SVG Version: 6.00 Build 0)  -->
<svg version="1.1" id="Capa_1" xmlns="http://www.w3.org/2000/svg" xmlns:xlink="http://www.w3.org/1999/xlink" x="0px" y="0px"
	 viewBox="0 0 80.524 80.524" style="enable-background:new 0 0 80.524 80.524;" xml:space="preserve">
<g>
	<g>
		<path style="fill:#010002;" d="M51.46,74.258c0,1.868-6.467,4.474-17,4.474s-17-2.605-17-4.474V12.662
			c3.174,2.265,10.11,3.439,17,3.439s13.825-1.174,17-3.439v22.801c0.598-0.061,1.177-0.179,1.789-0.179V9.842
			c0-2.756-4.23-4.585-9.842-5.494V2.684C43.408,1.199,39.403,0,34.461,0s-8.947,1.199-8.947,2.684v1.664
			c-5.612,0.909-9.842,2.738-9.842,5.494v64.419c0,4.109,9.452,6.263,18.789,6.263S53.25,78.37,53.25,74.261v-2.996
			c-0.612,0-1.192-0.122-1.789-0.179V74.258z M25.514,6.113v3.729c0,1.485,4.005,2.684,8.947,2.684s8.947-1.199,8.947-2.684V6.113
			c5.093,0.905,8.052,2.473,8.052,3.729c0,1.868-6.467,4.474-17,4.474s-17-2.605-17-4.474C17.461,8.586,20.421,7.018,25.514,6.113z"
			/>
		<path style="fill:#010002;" d="M49.292,35.753v-4.438c-1.628-1.099-6.775-2.684-14.834-2.684c-8.063,0-13.199,1.585-14.834,2.684
			v42.946c1.628,1.099,6.771,2.684,14.834,2.684c8.06,0,13.199-1.585,14.834-2.684v-3.464c-8.017-1.807-14.029-8.951-14.029-17.526
			C35.266,44.703,41.268,37.56,49.292,35.753z"/>
		<polygon style="fill:#010002;" points="64.852,45.834 60.687,41.669 53.25,49.113 45.816,41.669 41.647,45.834 49.091,53.268 
			41.647,60.704 45.816,64.877 53.25,57.441 60.687,64.877 64.852,60.704 57.416,53.268 		"/>
	</g>
</g>
<g>
</g>
<g>
</g>
<g>
</g>
<g>
</g>
<g>
</g>
<g>
</g>
<g>
</g>
<g>
</g>
<g>
</g>
<g>
</g>
<g>
</g>
<g>
</g>
<g>
</g>
<g>
</g>
<g>
</g>
</svg>
