<?xml version="1.0" encoding="iso-8859-1"?>
<!-- Generator: Adobe Illustrator 18.1.1, SVG Export Plug-In . SVG Version: 6.00 Build 0)  -->
<svg version="1.1" id="Capa_1" xmlns="http://www.w3.org/2000/svg" xmlns:xlink="http://www.w3.org/1999/xlink" x="0px" y="0px"
	 viewBox="0 0 71.581 71.581" style="enable-background:new 0 0 71.581 71.581;" xml:space="preserve">
<g>
	<g>
		<path style="fill:#010002;" d="M48.306,35.785c0-6.907-5.615-12.526-12.526-12.526c-6.907,0-12.526,5.619-12.526,12.526
			s5.619,12.526,12.526,12.526c3.647,0,6.911-1.593,9.194-4.098l-2.112-6.746l4.857,1.882
			C48.066,38.219,48.306,37.038,48.306,35.785z M35.78,42.943c-3.951,0-7.158-3.207-7.158-7.158s3.207-7.158,7.158-7.158
			s7.158,3.207,7.158,7.158S39.734,42.943,35.78,42.943z"/>
		<path style="fill:#010002;" d="M43.614,48.375c0.505-0.633,0.837-1.092,1.102-1.489c-2.459,1.979-5.536,3.214-8.929,3.214
			c-7.895,0-14.315-6.42-14.315-14.315s6.42-14.315,14.315-14.315s14.315,6.42,14.315,14.315c0,1.478-0.29,2.881-0.705,4.223
			l0.408,0.154c1.102,0.426,2.137,0.966,3.085,1.593c-0.161-2.902,0.44-6.106,3.196-9.276l5.161-5.955l1.088,7.802
			c0.351,2.505,3.067,5.934,5.468,8.961c0.752,0.952,1.507,1.908,2.237,2.881c0.995-3.289,1.539-6.771,1.539-10.379
			C71.579,16.026,55.556,0,35.79,0S0.002,16.026,0.002,35.789S16.024,71.577,35.79,71.577c3.153,0,6.191-0.447,9.108-1.217
			c-3.207-3.228-5.171-7.63-5.171-12.404C39.72,53.271,41.964,50.444,43.614,48.375z"/>
		<path style="fill:#010002;" d="M56.082,54.166c-0.258-3.922-2.119-8.55-7.584-10.669c1.929,6.174-5.207,7.261-5.207,14.462
			c0,6.556,4.488,12.014,10.54,13.621c-1.993-1.85,0.723-5.447-1.349-8.06c2.602,0.827,4.946,2.731,4.946,6.07
			c2.605-1.772-0.641-6.621,4.177-9.831c-1.474,4.373,2.505,6.488,1.854,9.369c-0.19,0.845-0.608,1.496-1.138,2.047
			c5.386-2.001,9.248-7.136,9.248-13.217c0-7.809-11.76-15.743-12.787-23.137C52.482,42.084,58.824,46.672,56.082,54.166z"/>
	</g>
</g>
<g>
</g>
<g>
</g>
<g>
</g>
<g>
</g>
<g>
</g>
<g>
</g>
<g>
</g>
<g>
</g>
<g>
</g>
<g>
</g>
<g>
</g>
<g>
</g>
<g>
</g>
<g>
</g>
<g>
</g>
</svg>
