<?xml version="1.0" encoding="iso-8859-1"?>
<!-- Generator: Adobe Illustrator 18.1.1, SVG Export Plug-In . SVG Version: 6.00 Build 0)  -->
<svg version="1.1" id="Capa_1" xmlns="http://www.w3.org/2000/svg" xmlns:xlink="http://www.w3.org/1999/xlink" x="0px" y="0px"
	 viewBox="0 0 61.07 61.07" style="enable-background:new 0 0 61.07 61.07;" xml:space="preserve">
<g>
	<g>
		<g>
			<path style="fill:#010002;" d="M36.184,11.595c0.243,0.769,0.39,1.603,0.39,2.484v11.663c0,3.683-2.416,6.696-5.368,6.696
				s-5.368-3.013-5.368-6.696V14.079c0-0.88,0.147-1.714,0.39-2.484c-7.394,1.954-12.916,8.664-12.916,16.656V43.78
				c0,9.509,7.78,17.289,17.286,17.289h1.217c9.505,0,17.286-7.78,17.286-17.289V28.251C49.104,20.26,43.581,13.55,36.184,11.595z"
				/>
			<ellipse style="fill:#010002;" cx="31.209" cy="19.909" rx="2.684" ry="5.368"/>
		</g>
		<g>
			<path style="fill:#010002;" d="M32.548,11.595h-2.684c0-4.051-2.201-4.456-7.605-4.456c-4.341,0-10.289,0-10.289-7.14h2.684
				c0,4.051,2.201,4.456,7.605,4.456C26.6,4.456,32.548,4.456,32.548,11.595z"/>
		</g>
	</g>
</g>
<g>
</g>
<g>
</g>
<g>
</g>
<g>
</g>
<g>
</g>
<g>
</g>
<g>
</g>
<g>
</g>
<g>
</g>
<g>
</g>
<g>
</g>
<g>
</g>
<g>
</g>
<g>
</g>
<g>
</g>
</svg>
