<?xml version="1.0" encoding="iso-8859-1"?>
<!-- Generator: Adobe Illustrator 18.1.1, SVG Export Plug-In . SVG Version: 6.00 Build 0)  -->
<svg version="1.1" id="Capa_1" xmlns="http://www.w3.org/2000/svg" xmlns:xlink="http://www.w3.org/1999/xlink" x="0px" y="0px"
	 viewBox="0 0 96.629 96.629" style="enable-background:new 0 0 96.629 96.629;" xml:space="preserve">
<g>
	<g>
		<g>
			<path style="fill:#010002;" d="M43.311,53.794c-4.577-3.421-8.264-5.053-11.449-5.787c-0.054-1.199-0.376-2.319-0.916-3.321
				c2.931-1.249,6.764-2.011,12.365-1.85c-2.684-3.411-5.082-5.902-6.517-8.407c-3.973,2.29-6.889,4.663-9.058,7.072
				c-0.995-0.526-2.112-0.848-3.307-0.888c0.369-3.142,1.603-6.818,4.563-11.624c-3.214,0-6.449,0-9.663,0
				c-0.673,5.715-0.229,9.684,0.734,12.794c-0.995,0.626-1.832,1.471-2.459,2.469c-2.527-1.843-5.086-4.431-7.734-8.081
				c-1.324,2.96-2.638,4.953-4.864,6.66c4.581,3.421,8.267,5.053,11.449,5.787c0.057,1.202,0.379,2.316,0.916,3.325
				c-2.927,1.245-6.76,2.008-12.361,1.85c2.684,3.407,5.082,5.902,6.521,8.403c3.969-2.29,6.886-4.663,9.051-7.068
				c0.998,0.523,2.115,0.848,3.314,0.884c-0.372,3.146-1.607,6.821-4.567,11.624c3.214,0,6.449,0,9.663,0
				c0.673-5.715,0.229-9.681-0.734-12.791c0.995-0.63,1.836-1.471,2.459-2.469c2.527,1.843,5.089,4.431,7.734,8.077
				C39.765,57.491,41.082,55.497,43.311,53.794z M24.157,50.73c-1.331,0-2.416-1.081-2.416-2.416c0-1.335,1.084-2.416,2.416-2.416
				s2.416,1.081,2.416,2.416C26.573,49.649,25.489,50.73,24.157,50.73z"/>
		</g>
		<g>
			<path style="fill:#010002;" d="M79.257,44.686c2.927-1.249,6.76-2.011,12.361-1.85c-2.684-3.411-5.082-5.902-6.517-8.407
				c-3.973,2.29-6.893,4.663-9.058,7.072c-0.995-0.526-2.112-0.848-3.307-0.888c0.369-3.142,1.6-6.818,4.563-11.624
				c-3.214,0-6.449,0-9.663,0c-0.673,5.715-0.229,9.684,0.737,12.794c-0.998,0.626-1.836,1.471-2.462,2.469
				c-2.527-1.843-5.086-4.431-7.734-8.081c-1.324,2.96-2.638,4.953-4.86,6.66c4.577,3.421,8.264,5.053,11.445,5.787
				c0.057,1.202,0.379,2.316,0.916,3.325c-2.927,1.245-6.76,2.008-12.361,1.85c2.684,3.407,5.082,5.902,6.521,8.403
				c3.969-2.29,6.886-4.663,9.051-7.068c0.998,0.523,2.115,0.848,3.314,0.884c-0.372,3.146-1.607,6.821-4.567,11.624
				c3.214,0,6.449,0,9.663,0c0.673-5.715,0.229-9.681-0.734-12.791c0.995-0.63,1.836-1.471,2.459-2.469
				c2.527,1.843,5.089,4.431,7.734,8.077c1.321-2.963,2.634-4.953,4.86-6.657c-4.577-3.421-8.264-5.053-11.449-5.787
				C80.123,46.804,79.794,45.688,79.257,44.686z M72.472,50.73c-1.331,0-2.416-1.081-2.416-2.416c0-1.335,1.084-2.416,2.416-2.416
				c1.331,0,2.416,1.081,2.416,2.416C74.887,49.649,73.803,50.73,72.472,50.73z"/>
		</g>
		<g>
			<path style="fill:#010002;" d="M92.764,24.157H61.735c0,0-6.009-4.474-13.421-4.474s-13.421,4.474-13.421,4.474H3.865
				C1.739,24.157,0,25.897,0,28.022v40.584c0,2.126,1.739,3.865,3.865,3.865h31.029c0,0,6.009,4.474,13.421,4.474
				s13.421-4.474,13.421-4.474h31.029c2.126,0,3.865-1.739,3.865-3.865V28.022C96.629,25.897,94.89,24.157,92.764,24.157z
				 M48.314,23.263c5.93,0,10.737,3.915,10.737,3.915s-4.806,3.915-10.737,3.915s-10.737-3.915-10.737-3.915
				S42.384,23.263,48.314,23.263z M3.378,26.09c0.805,0,1.446,0.648,1.446,1.449s-0.648,1.449-1.446,1.449s-1.446-0.648-1.446-1.449
				S2.584,26.09,3.378,26.09z M3.378,70.539c-0.802,0-1.446-0.648-1.446-1.449s0.651-1.446,1.446-1.446
				c0.805,0,1.446,0.648,1.446,1.446C4.831,69.891,4.184,70.539,3.378,70.539z M24.157,69.569c-11.728,0-21.255-9.505-21.255-21.255
				s9.527-21.258,21.255-21.258s21.258,9.509,21.258,21.258S35.885,69.569,24.157,69.569z M48.314,73.366
				c-5.93,0-10.737-3.915-10.737-3.915s4.806-3.915,10.737-3.915s10.737,3.915,10.737,3.915S54.245,73.366,48.314,73.366z
				 M72.472,69.569c-11.728,0-21.255-9.505-21.255-21.255s9.527-21.258,21.255-21.258s21.255,9.509,21.255,21.258
				S84.2,69.569,72.472,69.569z M93.251,70.539c-0.805,0-1.446-0.648-1.446-1.449s0.648-1.446,1.446-1.446s1.446,0.648,1.446,1.446
				C94.696,69.891,94.045,70.539,93.251,70.539z M93.251,28.989c-0.805,0-1.446-0.648-1.446-1.449s0.648-1.449,1.446-1.449
				s1.446,0.648,1.446,1.449S94.045,28.989,93.251,28.989z"/>
		</g>
	</g>
</g>
<g>
</g>
<g>
</g>
<g>
</g>
<g>
</g>
<g>
</g>
<g>
</g>
<g>
</g>
<g>
</g>
<g>
</g>
<g>
</g>
<g>
</g>
<g>
</g>
<g>
</g>
<g>
</g>
<g>
</g>
</svg>
