<?xml version="1.0" encoding="iso-8859-1"?>
<!-- Generator: Adobe Illustrator 18.1.1, SVG Export Plug-In . SVG Version: 6.00 Build 0)  -->
<svg version="1.1" id="Capa_1" xmlns="http://www.w3.org/2000/svg" xmlns:xlink="http://www.w3.org/1999/xlink" x="0px" y="0px"
	 viewBox="0 0 96.629 96.629" style="enable-background:new 0 0 96.629 96.629;" xml:space="preserve">
<g>
	<g>
		<g>
			<path style="fill:#010002;" d="M30.943,44.686c2.928-1.249,6.76-2.011,12.365-1.85c-2.684-3.411-5.082-5.902-6.521-8.407
				c-3.973,2.29-6.893,4.663-9.058,7.072c-0.995-0.526-2.112-0.848-3.307-0.888c0.369-3.142,1.6-6.818,4.563-11.624
				c-3.214,0-6.449,0-9.666,0c-0.673,5.715-0.225,9.684,0.741,12.794c-0.998,0.626-1.836,1.471-2.462,2.469
				c-2.527-1.843-5.086-4.431-7.734-8.081c-1.324,2.96-2.638,4.953-4.86,6.66c4.577,3.421,8.264,5.053,11.449,5.787
				c0.05,1.202,0.376,2.316,0.916,3.325c-2.931,1.245-6.764,2.008-12.365,1.85c2.684,3.407,5.082,5.902,6.521,8.403
				c3.969-2.29,6.886-4.663,9.051-7.068c0.998,0.523,2.115,0.848,3.314,0.884c-0.372,3.146-1.607,6.821-4.57,11.624
				c3.217,0,6.453,0,9.666,0c0.673-5.715,0.229-9.681-0.734-12.791c0.995-0.63,1.832-1.471,2.459-2.469
				c2.527,1.843,5.089,4.431,7.734,8.077c1.321-2.963,2.634-4.953,4.864-6.657c-4.585-3.421-8.267-5.053-11.456-5.787
				C31.812,46.804,31.48,45.688,30.943,44.686z M24.157,50.73c-1.331,0-2.416-1.081-2.416-2.416c0-1.335,1.084-2.416,2.416-2.416
				c1.331,0,2.416,1.081,2.416,2.416C26.573,49.649,25.489,50.73,24.157,50.73z"/>
		</g>
		<g>
			<path style="fill:#010002;" d="M79.257,44.686c2.927-1.249,6.76-2.011,12.365-1.85c-2.684-3.411-5.082-5.902-6.521-8.407
				c-3.973,2.29-6.893,4.663-9.058,7.072c-0.995-0.526-2.112-0.848-3.307-0.888c0.369-3.142,1.6-6.818,4.563-11.624
				c-3.214,0-6.449,0-9.666,0c-0.673,5.715-0.225,9.684,0.741,12.794c-0.998,0.626-1.836,1.471-2.462,2.469
				c-2.527-1.843-5.086-4.431-7.734-8.081c-1.324,2.96-2.638,4.953-4.86,6.66c4.577,3.421,8.264,5.053,11.449,5.787
				c0.05,1.202,0.376,2.316,0.916,3.325c-2.931,1.245-6.764,2.008-12.365,1.85c2.684,3.407,5.082,5.902,6.521,8.403
				c3.969-2.29,6.886-4.663,9.051-7.068c0.998,0.523,2.115,0.848,3.314,0.884c-0.372,3.146-1.607,6.821-4.57,11.624
				c3.217,0,6.453,0,9.666,0c0.673-5.715,0.229-9.681-0.734-12.791c0.995-0.63,1.832-1.471,2.459-2.469
				c2.527,1.843,5.089,4.431,7.734,8.077c1.321-2.963,2.634-4.953,4.864-6.657c-4.585-3.421-8.267-5.053-11.456-5.787
				C80.127,46.804,79.794,45.688,79.257,44.686z M72.472,50.73c-1.331,0-2.416-1.081-2.416-2.416c0-1.335,1.084-2.416,2.416-2.416
				c1.331,0,2.416,1.081,2.416,2.416C74.887,49.649,73.803,50.73,72.472,50.73z"/>
		</g>
		<g>
			<path style="fill:#010002;" d="M92.764,24.157H3.865C1.739,24.157,0,25.897,0,28.022v40.584c0,2.126,1.739,3.865,3.865,3.865
				h88.899c2.126,0,3.865-1.739,3.865-3.865V28.022C96.629,25.897,94.89,24.157,92.764,24.157z M3.375,26.09
				c0.809,0,1.453,0.648,1.453,1.449s-0.651,1.449-1.453,1.449c-0.798,0-1.442-0.648-1.442-1.449S2.588,26.09,3.375,26.09z
				 M3.375,70.539c-0.798,0-1.442-0.648-1.442-1.449s0.655-1.446,1.442-1.446c0.809,0,1.453,0.648,1.453,1.446
				C4.831,69.891,4.184,70.539,3.375,70.539z M24.157,69.569c-11.728,0-21.255-9.505-21.255-21.255s9.527-21.258,21.255-21.258
				s21.255,9.509,21.255,21.258S35.885,69.569,24.157,69.569z M72.472,69.569c-11.728,0-21.255-9.505-21.255-21.255
				s9.527-21.258,21.255-21.258s21.255,9.509,21.255,21.258S84.2,69.569,72.472,69.569z M93.254,70.539
				c-0.809,0-1.453-0.648-1.453-1.449s0.651-1.446,1.453-1.446c0.798,0,1.442,0.648,1.442,1.446
				C94.696,69.891,94.041,70.539,93.254,70.539z M93.254,28.989c-0.809,0-1.453-0.648-1.453-1.449c0-0.802,0.651-1.449,1.453-1.449
				c0.798,0,1.442,0.648,1.442,1.449C94.696,28.341,94.041,28.989,93.254,28.989z"/>
		</g>
	</g>
</g>
<g>
</g>
<g>
</g>
<g>
</g>
<g>
</g>
<g>
</g>
<g>
</g>
<g>
</g>
<g>
</g>
<g>
</g>
<g>
</g>
<g>
</g>
<g>
</g>
<g>
</g>
<g>
</g>
<g>
</g>
</svg>
