<?xml version="1.0" encoding="iso-8859-1"?>
<!-- Generator: Adobe Illustrator 18.1.1, SVG Export Plug-In . SVG Version: 6.00 Build 0)  -->
<svg version="1.1" id="Capa_1" xmlns="http://www.w3.org/2000/svg" xmlns:xlink="http://www.w3.org/1999/xlink" x="0px" y="0px"
	 viewBox="0 0 84.838 84.838" style="enable-background:new 0 0 84.838 84.838;" xml:space="preserve">
<g>
	<g>
		<path style="fill:#010002;" d="M44.545,20.772V0H21.626l0.004,20.768L44.545,20.772z M36.45,8.947h5.007l-0.004,5.007
			l-5.007,0.004L36.45,8.947z M24.725,8.944l5.01,0.004l-0.004,5.01h-5.007V8.944z"/>
		<path style="fill:#010002;" d="M27.485,57.065c0-12.565,10.218-22.783,22.783-22.783v-5.64c0.004-3.146-2.577-5.73-5.723-5.73
			H21.626c-3.146-0.004-5.719,2.573-5.719,5.723v45.816c0,3.153,2.441,6.535,5.422,7.537l6.327,2.104
			c2.992,0.995,7.873,0.995,10.862,0l6.324-2.097c1.249-0.415,2.341-1.306,3.264-2.366C36.568,78.52,27.485,68.889,27.485,57.065z"
			/>
		<path style="fill:#010002;" d="M50.264,38.397c-10.304,0-18.664,8.357-18.664,18.664c0,10.314,8.36,18.667,18.664,18.667
			c10.314,0,18.667-8.353,18.667-18.667C68.931,46.758,60.578,38.397,50.264,38.397z M59.719,71.81l-9.455-9.452l-9.452,9.452
			l-5.297-5.293l9.462-9.455l-9.462-9.452l5.297-5.297l9.452,9.459l9.455-9.459l5.293,5.297l-9.455,9.452l9.455,9.455L59.719,71.81z
			"/>
	</g>
</g>
<g>
</g>
<g>
</g>
<g>
</g>
<g>
</g>
<g>
</g>
<g>
</g>
<g>
</g>
<g>
</g>
<g>
</g>
<g>
</g>
<g>
</g>
<g>
</g>
<g>
</g>
<g>
</g>
<g>
</g>
</svg>
