<?xml version="1.0" encoding="iso-8859-1"?>
<!-- Generator: Adobe Illustrator 18.1.1, SVG Export Plug-In . SVG Version: 6.00 Build 0)  -->
<svg version="1.1" id="Capa_1" xmlns="http://www.w3.org/2000/svg" xmlns:xlink="http://www.w3.org/1999/xlink" x="0px" y="0px"
	 viewBox="0 0 57.262 57.262" style="enable-background:new 0 0 57.262 57.262;" xml:space="preserve">
<g>
	<g>
		<g>
			<path style="fill:#010002;" d="M55.322,18.302c-0.068-0.415-0.265-0.87-0.78-1.385L38.548,0.927
				c-0.462-0.465-0.888-0.68-1.267-0.773L37.131,0H5.368C3.4,0,1.789,1.61,1.789,3.579v50.104c0,1.968,1.61,3.579,3.579,3.579
				h46.525c1.968,0,3.579-1.61,3.579-3.579v-35.23L55.322,18.302z M8.947,15.21V4.363c0-1.478,1.206-2.684,2.684-2.684h21.473
				c1.478,0,2.684,1.206,2.684,2.684V15.21c0,1.478-1.206,2.684-2.684,2.684H11.631C10.153,17.894,8.947,16.688,8.947,15.21z
				 M46.525,45.183c0,1.968-1.61,3.579-3.579,3.579H14.315c-1.968,0-3.579-1.61-3.579-3.579v-7.158c0-1.968,1.61-3.579,3.579-3.579
				h28.631c1.968,0,3.579,1.61,3.579,3.579V45.183z"/>
		</g>
		<g>
			<path style="fill:#010002;" d="M30.868,14.315c0.984,0,1.789-0.805,1.789-1.789V5.368c0-0.984-0.805-1.789-1.789-1.789
				s-1.789,0.805-1.789,1.789v7.158C29.078,13.51,29.883,14.315,30.868,14.315z"/>
		</g>
		<g>
			<rect x="14.315" y="39.367" style="fill:#010002;" width="28.631" height="1.789"/>
		</g>
		<g>
			<rect x="14.315" y="42.946" style="fill:#010002;" width="28.631" height="1.789"/>
		</g>
	</g>
</g>
<g>
</g>
<g>
</g>
<g>
</g>
<g>
</g>
<g>
</g>
<g>
</g>
<g>
</g>
<g>
</g>
<g>
</g>
<g>
</g>
<g>
</g>
<g>
</g>
<g>
</g>
<g>
</g>
<g>
</g>
</svg>
