<?xml version="1.0" encoding="iso-8859-1"?>
<!-- Generator: Adobe Illustrator 18.1.1, SVG Export Plug-In . SVG Version: 6.00 Build 0)  -->
<svg version="1.1" id="Capa_1" xmlns="http://www.w3.org/2000/svg" xmlns:xlink="http://www.w3.org/1999/xlink" x="0px" y="0px"
	 viewBox="0 0 93.05 93.05" style="enable-background:new 0 0 93.05 93.05;" xml:space="preserve">
<g>
	<g>
		<g>
			<path style="fill:#010002;" d="M51.893,31.315V20.467c0-1.478-1.206-2.684-2.684-2.684H27.736c-1.478,0-2.684,1.206-2.684,2.684
				v10.847c0,1.478,1.206,2.684,2.684,2.684h21.473C50.687,33.999,51.893,32.793,51.893,31.315z M48.762,28.631
				c0,0.984-0.805,1.789-1.789,1.789c-0.984,0-1.789-0.805-1.789-1.789v-7.158c0-0.984,0.805-1.789,1.789-1.789
				c0.984,0,1.789,0.805,1.789,1.789V28.631z"/>
		</g>
		<g>
			<rect x="30.42" y="59.051" style="fill:#010002;" width="28.631" height="1.789"/>
		</g>
		<g>
			<rect x="30.42" y="51.893" style="fill:#010002;" width="28.631" height="1.789"/>
		</g>
		<g>
			<path style="fill:#010002;" d="M84.06,66.08c3.45-6.345,5.411-13.614,5.411-21.344C89.471,20.027,69.444,0,44.736,0
				S0,20.027,0,44.736s20.027,44.736,44.736,44.736c7.73,0,14.999-1.961,21.348-5.411l26.967,8.99L84.06,66.08z M71.577,69.788
				c0,1.968-1.61,3.579-3.579,3.579H21.473c-1.968,0-3.579-1.61-3.579-3.579V19.684c0-1.968,1.61-3.579,3.579-3.579h31.762
				l0.15,0.154c0.387,0.093,0.809,0.308,1.267,0.773l15.994,15.99c0.515,0.515,0.712,0.97,0.78,1.385l0.15,0.15V69.788z"/>
		</g>
	</g>
</g>
<g>
</g>
<g>
</g>
<g>
</g>
<g>
</g>
<g>
</g>
<g>
</g>
<g>
</g>
<g>
</g>
<g>
</g>
<g>
</g>
<g>
</g>
<g>
</g>
<g>
</g>
<g>
</g>
<g>
</g>
</svg>
