<?xml version="1.0" encoding="iso-8859-1"?>
<!-- Generator: Adobe Illustrator 18.1.1, SVG Export Plug-In . SVG Version: 6.00 Build 0)  -->
<svg version="1.1" id="Capa_1" xmlns="http://www.w3.org/2000/svg" xmlns:xlink="http://www.w3.org/1999/xlink" x="0px" y="0px"
	 viewBox="0 0 81.115 81.115" style="enable-background:new 0 0 81.115 81.115;" xml:space="preserve">
<g>
	<path style="fill:#010002;" d="M76.348,53.896c-0.007,0-0.014,0.004-0.021,0.004v-9.151c0-0.165,0.021-0.326,0.021-0.49
		c0-0.15-0.021-0.297-0.021-0.451v-1.489h-0.075C75.238,23.454,59.677,8.469,40.559,8.469S5.88,23.458,4.867,42.318H4.792v1.489
		c0,0.15-0.021,0.297-0.021,0.451c0,0.165,0.021,0.326,0.021,0.49v9.148c-0.007,0-0.014-0.004-0.021-0.004
		C2.137,53.892,0,56.698,0,60.155c0,3.461,2.137,6.263,4.771,6.263c0.351,0,0.691-0.057,1.024-0.15
		c1.321,3.794,3.794,6.374,6.664,6.374c4.245,0,4.992-5.59,4.992-12.487s-0.748-12.479-4.992-12.479
		c-1.829,0-3.489,1.081-4.806,2.817v-7.476c3.743-14.702,17.035-25.592,32.911-25.592c15.897,0,29.211,10.926,32.929,25.671v7.426
		c-1.324-1.75-2.988-2.842-4.828-2.842c-4.248,0-4.996,5.59-4.996,12.479c0,6.896,0.748,12.487,4.996,12.487
		c2.87,0,5.34-2.588,6.66-6.374c0.329,0.093,0.673,0.15,1.02,0.15c2.634,0,4.771-2.802,4.771-6.263
		C81.118,56.702,78.982,53.896,76.348,53.896z"/>
</g>
<g>
</g>
<g>
</g>
<g>
</g>
<g>
</g>
<g>
</g>
<g>
</g>
<g>
</g>
<g>
</g>
<g>
</g>
<g>
</g>
<g>
</g>
<g>
</g>
<g>
</g>
<g>
</g>
<g>
</g>
</svg>
