<?xml version="1.0" encoding="iso-8859-1"?>
<!-- Generator: Adobe Illustrator 18.1.1, SVG Export Plug-In . SVG Version: 6.00 Build 0)  -->
<svg version="1.1" id="Capa_1" xmlns="http://www.w3.org/2000/svg" xmlns:xlink="http://www.w3.org/1999/xlink" x="0px" y="0px"
	 viewBox="0 0 82.217 82.217" style="enable-background:new 0 0 82.217 82.217;" xml:space="preserve">
<g>
	<g>
		<path style="fill:#010002;" d="M71.004,27.665H42.402c0-5.791,4.291-6.084,11.302-6.084c6.263,0,13.356,0,13.356-8.135h-2.054
			c0,5.791-4.291,6.08-11.302,6.08c-6.263,0-13.356,0-13.356,8.138H11.213C5.043,27.665,0,32.711,0,38.87v18.689
			c0,6.166,5.043,11.213,11.213,11.213h59.792c6.174,0,11.213-5.046,11.213-11.213V38.87C82.213,32.704,77.171,27.665,71.004,27.665
			z M41.1,31.401c1.374,0,2.487,1.113,2.487,2.491c0,1.378-1.117,2.491-2.487,2.491c-1.378,0-2.494-1.117-2.494-2.491
			C38.605,32.517,39.722,31.401,41.1,31.401z M41.1,42.603c1.374,0,2.487,1.117,2.487,2.494c0,1.378-1.117,2.487-2.487,2.487
			c-1.378,0-2.494-1.113-2.494-2.487C38.605,43.723,39.722,42.603,41.1,42.603z M31.136,31.401c1.374,0,2.487,1.113,2.487,2.491
			c0,1.378-1.117,2.491-2.487,2.491c-1.371,0-2.491-1.117-2.491-2.491C28.645,32.517,29.762,31.401,31.136,31.401z M31.136,42.603
			c1.374,0,2.487,1.117,2.487,2.494c0,1.378-1.117,2.487-2.487,2.487c-1.371,0-2.491-1.113-2.491-2.487
			C28.645,43.723,29.762,42.603,31.136,42.603z M21.18,31.401c1.371,0,2.484,1.113,2.484,2.491c0,1.378-1.117,2.491-2.484,2.491
			c-1.381,0-2.494-1.117-2.494-2.491C18.682,32.517,19.798,31.401,21.18,31.401z M21.18,42.603c1.371,0,2.484,1.117,2.484,2.494
			c0,1.378-1.117,2.487-2.484,2.487c-1.381,0-2.494-1.113-2.494-2.487C18.682,43.723,19.798,42.603,21.18,42.603z M11.209,58.797
			c-1.381,0-2.491-1.117-2.491-2.487c0-1.378,1.117-2.494,2.491-2.494c1.371,0,2.487,1.117,2.487,2.494
			C13.703,57.68,12.58,58.797,11.209,58.797z M11.209,47.592c-1.381,0-2.491-1.117-2.491-2.484c0-1.378,1.117-2.498,2.491-2.498
			c1.371,0,2.487,1.117,2.487,2.498C13.7,46.482,12.58,47.592,11.209,47.592z M11.209,36.383c-1.381,0-2.491-1.117-2.491-2.491
			c0-1.374,1.117-2.491,2.491-2.491c1.371,0,2.487,1.113,2.487,2.491C13.7,35.27,12.58,36.383,11.209,36.383z M51.063,58.797H21.172
			c-1.378,0-2.487-1.117-2.487-2.487c0-1.378,1.117-2.494,2.487-2.494h29.894c1.371,0,2.484,1.117,2.484,2.494
			C53.558,57.68,52.434,58.797,51.063,58.797z M51.063,47.592c-1.381,0-2.494-1.117-2.494-2.484c0-1.378,1.117-2.498,2.494-2.498
			c1.371,0,2.484,1.117,2.484,2.498C53.55,46.482,52.434,47.592,51.063,47.592z M51.063,36.383c-1.381,0-2.494-1.117-2.494-2.491
			c0-1.374,1.117-2.491,2.494-2.491c1.371,0,2.484,1.113,2.484,2.491C53.55,35.27,52.434,36.383,51.063,36.383z M61.019,58.797
			c-1.378,0-2.487-1.117-2.487-2.487c0-1.378,1.117-2.494,2.487-2.494c1.378,0,2.494,1.117,2.494,2.494
			C63.517,57.68,62.397,58.797,61.019,58.797z M61.019,47.592c-1.378,0-2.487-1.117-2.487-2.484c0-1.378,1.117-2.498,2.487-2.498
			c1.378,0,2.494,1.117,2.494,2.498C63.517,46.482,62.397,47.592,61.019,47.592z M61.019,36.383c-1.378,0-2.487-1.117-2.487-2.491
			c0-1.374,1.117-2.491,2.487-2.491c1.378,0,2.494,1.113,2.494,2.491C63.517,35.27,62.397,36.383,61.019,36.383z M70.99,58.797
			c-1.378,0-2.487-1.117-2.487-2.487c0-1.378,1.117-2.494,2.487-2.494s2.487,1.117,2.487,2.494
			C73.477,57.68,72.357,58.797,70.99,58.797z M70.99,47.592c-1.378,0-2.487-1.117-2.487-2.484c0-1.378,1.117-2.498,2.487-2.498
			s2.487,1.117,2.487,2.498C73.477,46.482,72.357,47.592,70.99,47.592z M70.99,36.383c-1.378,0-2.487-1.117-2.487-2.491
			c0-1.374,1.117-2.491,2.487-2.491s2.487,1.113,2.487,2.491C73.477,35.27,72.357,36.383,70.99,36.383z"/>
	</g>
</g>
<g>
</g>
<g>
</g>
<g>
</g>
<g>
</g>
<g>
</g>
<g>
</g>
<g>
</g>
<g>
</g>
<g>
</g>
<g>
</g>
<g>
</g>
<g>
</g>
<g>
</g>
<g>
</g>
<g>
</g>
</svg>
