<?xml version="1.0" encoding="iso-8859-1"?>
<!-- Generator: Adobe Illustrator 18.1.1, SVG Export Plug-In . SVG Version: 6.00 Build 0)  -->
<svg version="1.1" id="Capa_1" xmlns="http://www.w3.org/2000/svg" xmlns:xlink="http://www.w3.org/1999/xlink" x="0px" y="0px"
	 viewBox="0 0 85.348 85.348" style="enable-background:new 0 0 85.348 85.348;" xml:space="preserve">
<g>
	<g>
		<path style="fill:#010002;" d="M77.45,57.691v-3.16V35.563V16.595c0-1.736-1.421-3.16-3.16-3.16H11.066
			c-1.739,0-3.167,1.417-3.167,3.16v18.968v18.968v3.16L0,67.175c0,2.613,2.122,4.738,4.738,4.738H80.61
			c2.613,0,4.738-2.126,4.738-4.738L77.45,57.691z M49.002,70.339H36.358c-0.437,0-0.791-0.351-0.791-0.791s0.354-0.791,0.791-0.791
			h12.644c0.437,0,0.791,0.351,0.791,0.791C49.785,69.988,49.438,70.339,49.002,70.339z M29.644,67.179l2.412-2.895h21.233
			l2.416,2.895H29.644z M73.001,52.101c0,1.525-1.242,2.759-2.759,2.759H15.106c-1.514,0-2.756-1.245-2.756-2.759V19.032
			c0-1.525,1.242-2.759,2.756-2.759h55.136c1.517,0,2.759,1.242,2.759,2.759C73.001,19.032,73.001,52.101,73.001,52.101z"/>
		<path style="fill:#010002;" d="M35.159,49.946c0.075,0.043,0.147,0.082,0.222,0.125c-0.054-0.064-0.1-0.118-0.132-0.19
			C35.205,49.886,35.177,49.911,35.159,49.946z"/>
		<path style="fill:#010002;" d="M33.305,25.471c0.018,0,0.029,0,0.047,0c0.011-0.007,0.021-0.021,0.029-0.029
			C33.358,25.456,33.337,25.449,33.305,25.471z"/>
		<path style="fill:#010002;" d="M33.888,25.023c-0.029,0.021-0.061,0.039-0.086,0.061c0.007,0.004,0.011,0.004,0.014,0.004
			C33.845,25.07,33.87,25.045,33.888,25.023L33.888,25.023z"/>
		<path style="fill:#010002;" d="M33.48,25.338c0.007,0,0.025,0,0.036,0c0.093-0.075,0.179-0.161,0.276-0.225
			C33.67,25.177,33.516,25.302,33.48,25.338z"/>
		<path style="fill:#010002;" d="M33.265,25.503c-0.032,0.029-0.068,0.054-0.097,0.079c0.018-0.007,0.039-0.007,0.064-0.014
			c0.014-0.014,0.032-0.029,0.05-0.043C33.28,25.524,33.283,25.499,33.265,25.503z"/>
		<path style="fill:#010002;" d="M27.99,34.382c0.007,0,0.011,0.029,0.014,0.029c0.007-0.043,0.004-0.079,0.011-0.118
			C28.015,34.321,27.997,34.35,27.99,34.382z"/>
		<path style="fill:#010002;" d="M32.721,25.965c-0.036,0.032-0.057,0.075-0.093,0.1c0.147-0.132,0.304-0.243,0.451-0.372
			C32.958,25.771,32.832,25.864,32.721,25.965z"/>
		<path style="fill:#010002;" d="M28.019,34.285c0.404-2.112,1.267-4.137,2.523-5.891C29.311,30.127,28.43,32.117,28.019,34.285z"/>
		<polygon style="fill:#010002;" points="33.817,25.084 33.792,25.109 33.824,25.084 		"/>
		<path style="fill:#010002;" d="M30.56,28.37c-0.004,0.007-0.007,0.018-0.014,0.029c0.032-0.047,0.072-0.075,0.1-0.118
			C30.617,28.309,30.585,28.337,30.56,28.37z"/>
		<path style="fill:#010002;" d="M30.646,28.28c0.587-0.809,1.256-1.546,1.99-2.208C31.895,26.738,31.229,27.471,30.646,28.28z"/>
		<path style="fill:#010002;" d="M56.821,32.342c-0.032,0-0.039,0.032-0.047,0.061c0.093,0.283,0.222,0.551,0.301,0.841
			c-0.043-0.161-0.068-0.329-0.107-0.49C56.807,32.657,56.9,32.489,56.821,32.342z"/>
		<path style="fill:#010002;" d="M54.753,28.377c-0.254-0.358-0.519-0.705-0.805-1.038C54.234,27.672,54.502,28.022,54.753,28.377z"
			/>
		<path style="fill:#010002;" d="M56.381,31.279c-0.251-0.594-0.544-1.152-0.866-1.711C55.859,30.105,56.131,30.685,56.381,31.279z"
			/>
		<path style="fill:#010002;" d="M57.276,34.117c-0.064-0.293-0.125-0.587-0.2-0.873C57.151,33.53,57.212,33.824,57.276,34.117z"/>
		<path style="fill:#010002;" d="M56.131,31.727c0.147,0.293,0.497,0.447,0.601,0.727c0.036,0,0.039-0.032,0.047-0.057
			c-0.079-0.251-0.168-0.505-0.261-0.748C56.27,31.426,55.88,31.225,56.131,31.727z"/>
		<path style="fill:#010002;" d="M33.512,25.338c-0.043,0.036-0.086,0.075-0.132,0.104c0.104-0.064,0.186-0.086,0.336-0.104
			C33.656,25.31,33.577,25.331,33.512,25.338z"/>
		<path style="fill:#010002;" d="M36.909,24.533c0.007,0,0.036,0,0.047,0l0,0C36.934,24.533,36.923,24.533,36.909,24.533z"/>
		<path style="fill:#010002;" d="M55.912,34.919c-0.211-0.408-0.315-0.687-0.601-1.07c-0.211-0.283-0.505-0.508-0.587-0.866
			c-0.132-0.598-1.117-0.963-1.145-1.618c-0.007-0.097-0.251-0.558-0.229-0.58c0.064-0.05,0.043-0.293,0.05-0.369
			c0.014-0.247,0.072-0.44,0-0.687c-0.53,0.143-0.973-0.075-1.521-0.125c0.018-0.007,0.039-0.021,0.047-0.036
			c-0.154-0.14-0.265-0.243-0.455-0.351c0.211-0.211,0-0.118-0.029-0.254c-0.043-0.186,0.447-0.1,0.537-0.136
			c-0.011-0.021-0.072-0.057-0.072-0.075c-0.197-0.036-0.168,0.168-0.379,0.014c-0.165-0.115-0.193-0.05-0.347-0.014
			c0.021,0.05,0.029,0.075,0.021,0.125c0,0-0.261-0.19-0.236-0.05c0.161,0.154,0.243,0.304,0.433,0.458
			c-0.104,0.061-0.211-0.004-0.301-0.086c0.007,0.047,0.064,0.279,0.097,0.301c-0.222-0.021-0.351-0.125-0.258-0.315
			c-0.168-0.014-0.523-0.372-0.558-0.54c-0.054-0.304-0.472-0.354-0.512-0.544c-0.072-0.007-0.945-0.608-0.916-0.429
			c0.043,0.276,0.494,0.659,0.777,0.684c0.043,0.222,0.476,0.172,0.483,0.419c-0.412-0.104-0.251-0.143-0.204,0.157
			c-0.007-0.039-0.236,0.322-0.268,0.136c0.429,0.047-0.948-1.034-0.891-0.909c-0.304-0.322-0.358-0.44-0.759-0.229
			c-0.2,0.097-0.848-0.243-0.673,0.197c-0.014,0.029-0.916,0.415-0.523,0.587c-0.118,0.168-0.304,0.308-0.472,0.372
			c-0.204-0.075-0.569,0.208-0.684,0.025c-0.15-0.229-0.236-0.147-0.48-0.161c-0.243-0.021-0.032-0.83-0.032-0.945
			c0-0.154-0.132-0.365,0.19-0.336c0.272,0.021,0.53,0.086,0.805,0.107c0.308-0.043,0.422,0.075,0.401-0.354
			c-0.004,0.007-0.007,0.007-0.011,0.007c0.183-0.301-0.651-0.387-0.651-0.548c0-0.107,0.487-0.007,0.54-0.021
			c0-0.061-0.032-0.097-0.036-0.161c0.387,0.036,0.44-0.111,0.773-0.186c0.276-0.061,0.236-0.358,0.569-0.329
			c0.1,0.007,0.451,0.029,0.369-0.118c-0.2-0.336-0.197-0.336,0.161-0.476c0.014,0.1,0.072,0.14,0.089,0.183
			c-0.011,0-0.032,0.068-0.05,0.132c0.068,0.014,0.111,0.039,0.097,0.125c-0.007-0.064-0.075-0.039-0.118-0.057
			c-0.014,0.075-0.021,0.143-0.007,0.097c0.183,0.021,0.394,0.007,0.58,0.036c-0.029,0.211,0.659-0.029,0.82,0.032
			c-0.007,0.018-0.014,0.039-0.014,0.047c0.068,0,0.136,0.007,0.208,0.007c-0.057-0.372,0.616-0.519,0.616-0.419
			c0-0.086-0.293-0.197-0.215-0.236c0.254-0.132,0.555,0.072,0.827-0.039c-0.1-0.111-1.406-0.075-1.21-0.319
			c-0.111-0.036-0.097-0.107-0.147-0.183c0.043,0.007,0.58-0.19,0.573-0.211c-0.104-0.258-0.523-0.032-0.58,0.039
			c0.043,0.122-0.551,0.068-0.523,0.251c0.032,0.193,0.261,0.136,0.311,0.311c0.007,0.032-0.58,0.272-0.211,0.344
			c0.007,0.14-0.44,0.251-0.537,0.243c-0.082-0.014-0.265-0.358-0.308-0.422c-0.115-0.165-0.161-0.29-0.358-0.172
			c-0.064,0.039-0.616,0.183-0.637-0.021c-0.007-0.057,0.089,0.004,0.082-0.086c-0.075-0.007-0.075-0.007-0.143,0.004
			c0.018-0.032,0.047-0.057,0.079-0.075c-0.387-0.268,0.358-0.415,0.526-0.394c-0.061-0.011-0.079-0.018-0.129-0.029
			c0.111-0.004,0.977-0.358,1.006-0.447c-0.122,0.004-0.161,0.025-0.283,0.018c0.021-0.011,0.075-0.018,0.086-0.021
			c-0.021-0.004-0.075-0.011-0.075-0.011c0.014-0.05,0.401-0.014,0.408-0.014c-0.036-0.007-0.036-0.007-0.075-0.007
			c0.064-0.029,0.132-0.036,0.204-0.021c-0.029-0.014-0.021-0.014-0.05-0.021c0.183-0.061,0.401,0,0.591-0.029
			c-0.136-0.025,0.333-0.104,0.293,0.029c0.193,0.021,0.394,0.086,0.598,0.19c-2.312-1.471-5.053-2.326-7.995-2.326
			c-3.296,0-6.317,1.106-8.786,2.906c0.004,0.021,0,0.032-0.004,0.043c0.029,0,0.043,0.014,0.032,0.064
			c0.186-0.047,0.49,0.068,0.458,0.068c0.175-0.011,0.358-0.29,0.598-0.208c-0.014-0.007-0.218,0.118-0.233,0.161
			c-0.086,0.183,0.014,0.075,0.147,0.175c-0.064,0.014-0.186,0-0.243,0.047c0.011-0.007,0.032,0.039,0.032,0.039
			c-0.172,0.075-1.188,0.115-1.235,0.072c-0.007-0.007-0.05-0.007-0.086,0c-0.025,0.021-0.047,0.039-0.072,0.061
			c0.004,0.011,0.021,0.007,0.018,0.032c-0.014,0.007-0.043,0.007-0.068,0.014c-0.05,0.043-0.097,0.075-0.147,0.118
			c0.186-0.111,0.387-0.193,0.623-0.111c0.072,0.029,0.279,0.007,0.394-0.086c0.311,0.014,0.816,0.075,0.998,0.029
			c-0.029,0.018-0.043,0.029,0.036,0.018c0.129-0.097,0.333-0.075,0.387-0.15c-0.043,0.007-0.072,0.014-0.107,0.021
			c0.039-0.021,0.072-0.036,0.107-0.061c0.039-0.036-0.179-0.05-0.143-0.075c0.14-0.097,0.637-0.111,0.523-0.025
			c-0.054,0.018-0.104,0.039-0.157,0.054c0.011,0.029,0.122,0,0.161,0.021c-0.165,0.047,0.036,0.007-0.075,0.097
			c-0.021,0,0.415-0.104,0.329-0.036c-0.104-0.004-0.15,0.036-0.129,0.111c0.122,0.111,0.483-0.211,0.573-0.233
			c-0.004,0-0.741-0.007-0.651-0.079c0.104,0.05,0.193,0.039,0.265-0.021c-0.025-0.014-0.251-0.021-0.251-0.021
			c-0.05-0.097,0.276-0.132,0.329-0.161c-0.086,0.029-0.247,0.014-0.34,0.061c0.014,0,0.032,0,0.05-0.004
			c-0.075,0.05-0.154,0.072-0.243,0.064c0.265-0.183,0.397-0.183,0.755-0.197c-0.057,0.029-0.115,0.043-0.175,0.064
			c0.172-0.036,0.326-0.036,0.494-0.029c-0.064,0.014-0.354,0.089-0.261,0.089c-0.19,0.079,0.616-0.19,0.669-0.057
			c0.004,0.014-0.036,0.079-0.054,0.079c0.344,0,0.63,0.1,0.956,0.115c-0.004,0.007-0.004,0.014-0.011,0.025
			c0.039-0.011,0.075,0.004,0.104,0.036c-0.039,0.004-0.072,0-0.1,0.021c0.039-0.007,0.075-0.004,0.111,0.014
			c-0.047,0.018-0.064,0.018-0.1,0.039c0.029,0.014,0.426,0.147,0.422,0.161c-0.025,0.183-0.322,0.093-0.465,0.075
			c-0.018,0.039-0.043,0.007-0.064,0.061c0.079-0.007,0.111,0.093,0.218,0.079c-0.082,0.268-0.072,0.111-0.383,0.168
			c0-0.007,0.344,0.161,0.161,0.208c-0.229,0.05-0.505-0.118-0.644-0.19c-0.057-0.032-0.669,0.043-0.644,0.007
			c0.132-0.179,0.487-0.118,0.673-0.208c-0.147-0.054,0.387-0.143,0.208-0.272c-0.004,0.115-0.29,0.039-0.286,0.032
			c0.075-0.05,0.154-0.068,0.24-0.061c-0.047-0.021-0.258-0.032-0.261-0.025c0.036-0.014,0.072-0.021,0.107-0.029
			c-0.025-0.029-0.054-0.043-0.079-0.043c0.004,0,0.007-0.004,0.011-0.004c-0.089-0.05-0.429,0.039-0.358-0.018
			c-0.05,0-0.14,0.004-0.24,0.007c0.072,0.007,0.154,0.043,0.225,0.043c-0.136,0.115-0.412,0.247-0.698,0.329
			c0.061-0.007,0.036,0.018,0.043,0.039c-0.054,0-0.068-0.018-0.047-0.032c-0.05,0.011-0.097,0.025-0.147,0.039
			c0,0.014,0.004,0.021,0,0.036c0.047-0.018,0.247,0.007,0.268,0.068c0.004,0.014-0.025,0.032-0.014,0.039
			c0.043,0.029,0.136,0.011,0.147,0.039c-0.208,0.064-0.551,0.093-0.755,0.104c-0.05,0-0.011-0.021,0.021-0.05
			c-0.061-0.007-0.15,0.007-0.186,0.007c0.068-0.061,0.258-0.161,0.397-0.222c-0.157,0.021-0.308,0.021-0.429-0.018
			c-0.014,0.068,0.14,0.054,0.261,0.068c-0.172,0.147-0.612,0.197-0.877,0.175c0.021,0.007,0.047,0.021,0.064,0.036
			c-0.229,0.208-0.78,0.376-1.067,0.565c0.222-0.036,0.2,0.054,0.054,0.204c0.526-0.021,0.476,0.286,0.902,0.272
			c0.143,0.097-0.068,0.229-0.082,0.308c0.054-0.011,0.143-0.007,0.104,0.043c0.039,0.014,0.054,0.036,0.168,0.029
			c0.208-0.225-0.029-0.315,0.372-0.48c0.505-0.2,0.136-0.2,0.125-0.465c0.548-0.118,0.326-0.601,1.049-0.251
			c0.211,0.097,0.837,0.279,0.991-0.007c-0.097,0.168-0.032,0.19,0.05,0.222c-0.032-0.025-0.064-0.039-0.086-0.075
			c0.186-0.251,0.587,0.286,0.268,0.39c0.05,0.032,0.093,0.075,0.222,0.075l-0.004,0.007c-0.107,0.175,0.426,0.125,0.379,0.183
			c-0.075,0.075-0.422,0.104-0.562,0.147c0.011,0.075,0.623-0.082,0.68-0.1c0.186,0.633-1.693,0.565-2.079,0.877
			c0.047-0.004,0.991-0.222,0.916-0.082c-0.064,0.111-0.24,0.082-0.34,0.143c0.057,0,0.115,0.018,0.147,0.018
			c-0.336,0.412,0.419,0.369,0.383,0.44c-0.061,0.118-0.709,0.222-0.855,0.301c-0.24,0.125,0.011-0.279,0.333-0.293
			c-0.086,0.007-0.104-0.018-0.057-0.079c-0.24,0.011-0.641,0.286-0.834,0.24c-0.204-0.043-0.816,0.469-0.48,0.462
			c-0.208,0.075-0.515,0.061-0.744,0.161c0.047,0,0.175-0.036,0.208,0c-0.129,0.039-0.694,0.236-0.662,0.326
			c-0.1,0.061-0.14,0.387-0.34,0.387c0.011,0,0.079-0.286,0.086-0.308c-0.043,0.043-0.215,0.336-0.2,0.383c0.011,0,0.029,0,0.043,0
			c-0.025,0.072-0.079,0.118-0.157,0.14c0,0.043,0.025,0.054,0.05,0.061c-0.061,0.079-0.218,0.047-0.111,0.165
			c-0.136,0.104-0.311,0.125-0.451,0.222c0.004,0,0.004,0.007,0.007,0.011c-0.573,0.247-1.084,0.494-1.16,1.177
			c-0.018,0.172-0.222,0.938-0.48,0.905c-0.229-0.032,0.208-1.134,0.179-1.235c-0.004-0.007-0.644-0.111-0.612-0.175
			c-0.097,0.021-0.197,0-0.304,0.036c0.036,0.029,0.029,0.029,0.072,0.007c-0.068,0.104-0.15,0.168-0.122,0.225
			c-0.19,0.082-0.361-0.297-0.616-0.161c-0.376,0.208-0.655,0.379-0.873,0.766c-0.004,0-0.007,0-0.011,0
			c-0.057,0.129-1.174,1.986-0.659,2.097c0.701,0.154,0.734-0.837,1.496-0.698c-0.097,0.197-0.265,0.344-0.358,0.537
			c-0.061,0.129-0.118,0.197-0.183,0.268c-0.086,0.147-0.863,0.787-0.19,0.82c0.816,0.054,0.211,0.82,0.047,1.245
			c-0.143,0.372-0.444,1.585,0.258,1.285c0.336-0.147,0.344,0.369,0.394,0.551c-0.021,0.036-0.272,0.261-0.272,0.258
			c-0.014-0.111,0.111-0.512-0.043-0.562c-0.311-0.107-0.34,0.633-0.49,0.562c-0.301-0.118-0.154-1.27-0.379-1.346
			c-0.025,0.032-0.043,0.079-0.043,0.107c-0.018-0.007-0.036-0.014-0.057-0.021c-0.057-0.225,0.143-0.469,0.125-0.712
			c-0.014-0.218-0.05-0.397,0.011-0.623c-0.2-0.064-0.39-0.197-0.494-0.455c-0.039-0.097,0.007-0.58-0.093-0.601
			c-0.072-0.279-0.2,0.075-0.322,0.047c-0.14-0.039-0.186-0.437-0.293-0.487c-0.154,0.859-0.265,1.729-0.265,2.634
			c0,5.443,2.91,10.196,7.254,12.805c-0.086-0.125-0.018-0.265-0.086-0.412c-0.093-0.204-0.254-0.229-0.254-0.519
			c0-0.551-0.039-0.895-0.261-1.439c-0.24-0.322-0.204-1.006-0.265-1.406c-0.132-0.372-0.186-0.755-0.344-1.117
			c-0.172-0.397-0.655-0.673-1.081-0.727c-0.551-0.097-0.637-0.573-0.973-0.941c-0.283-0.301-0.569-0.651-0.795-0.973
			c-0.115-0.161-0.34-0.168-0.404-0.426c-0.061-0.243,0.172-0.344,0.168-0.558c-0.329-0.179-0.229-0.222-0.222-0.58
			c0.004-0.308,0.422-0.641,0.419-0.952c-0.086-0.029-0.111-0.075-0.075-0.143c-0.064-0.297-0.447-0.795-0.064-0.956
			c-0.075-0.404,0.426-0.684,0.73-0.82c0.068-0.036,0.143-0.243,0.229-0.122c0.047,0.054,0.039,0.093-0.025,0.147
			c0,0.1-0.061,0.573,0.161,0.562c0.093-0.007-0.272-0.512,0.229-0.544c-0.047-0.089-0.147-0.05-0.161-0.14
			c0.179-0.007,0.394,0.15,0.497,0.268c0.079,0.086,0.401,0.047,0.512,0.079c0.132,0.054,0.361-0.075,0.555-0.115
			c0.075,0.34,0.812,0.422,1.016,0.73c0.165,0.233,0.863,0.301,1.127,0.293c0.308-0.021,0.827,0.727,0.684,0.923
			c-0.218,0.286,0.093,0.648,0.372,0.616c0.276-0.029,0.021-0.523,0.562-0.301c0.204,0.082,0.279,0.075,0.333,0.308
			c0.251-0.021,0.573-0.118,0.866-0.036c0.29,0.082,0.465,0.265,0.777,0.333c0.662,0.143,0.029,1.36-0.125,1.653
			c-0.118,0.222,0.222,0.977,0.175,1.31c-0.147,0.569-0.229,0.769-0.727,1.084c-0.136,0.082-0.39,0.358-0.358,0.544
			c0.047,0.161,0.097,0.322,0.15,0.483c-0.093,0.111-0.136,0.229-0.136,0.372l0,0c-0.05,0.365-0.186,0.684-0.254,1.056
			c-0.047,0.243-0.812,0.365-0.841,0.279c0.147,0.383,0.684,0.222,0.429,0.798c-0.089,0.204-0.401,0.243-0.587,0.293
			c-0.222,0.05,0.011,0.301,0.004,0.419c0.1,0.236-0.251,0.118-0.394,0.161c-0.268,0.075,0.404,0.376,0.361,0.286
			c0.068,0.147-0.161,0.072-0.208,0.082c0.064,0.14,0.272,0.483,0.011,0.608c-0.401,0.243,0.304,0.383,0.372,0.58
			c1.725,0.691,3.607,1.084,5.583,1.084c5.647,0,10.561-3.139,13.099-7.763c0.029-0.157,0.082-0.243,0.161-0.308
			c1.07-2.054,1.675-4.388,1.675-6.864c0-0.734-0.143-1.424-0.243-2.133C56.775,35.116,56.288,35.653,55.912,34.919z M50.286,25.567
			c0,0.057-0.036,0.111-0.104,0.104c-0.05,0-0.064-0.036-0.072-0.057c0.043,0,0.072-0.014,0.111-0.014
			C50.104,25.51,50.251,25.549,50.286,25.567z M49.685,25.65c-0.036,0.039-0.068,0.079-0.097,0.122
			C49.517,25.707,49.649,25.646,49.685,25.65z M48.762,25.925c-0.097,0.007-0.097,0.125-0.2,0.104
			c0.039-0.007,0.075-0.025,0.075-0.047C48.379,25.932,48.629,25.7,48.762,25.925z M47.287,24.114L47.287,24.114L47.287,24.114
			L47.287,24.114z M47.534,24.061c-0.014,0.004-0.029,0.007-0.036,0.011c0.032,0.014,0.068,0.014,0.086,0.021
			c-0.072-0.014,0.154,0.014,0.175,0.021c-0.147-0.125,0.154-0.047,0.161-0.043c0,0.014-0.014,0.014-0.007,0.029
			c0.068-0.014,0.154,0,0.243,0.014c-0.014-0.007-0.029-0.014-0.036-0.029c0.057,0.007,0.111,0,0.168,0
			c-0.014,0-0.168-0.011-0.175-0.011c-0.029,0-0.161,0.011-0.183-0.039c0.043,0,0.082,0,0.118,0.007c0-0.004,0-0.007,0-0.007
			c0.021,0,0.043,0,0.064,0c-0.007-0.004-0.014-0.007-0.021-0.011c0.251,0.004,0.637-0.054,0.866,0.068
			c-0.082,0.014-0.469,0.075-0.687,0.05c0.032,0.018,0.068,0.029,0.093,0.039c-0.014,0.004-0.029,0-0.043,0
			c0.115,0.014,0.261,0.036,0.376,0.086c-0.111,0.007-0.15,0.036-0.251,0.043c-0.011-0.014-0.011-0.021,0-0.029
			c-0.05-0.007-0.132-0.014-0.183-0.014c0-0.029,0.05-0.021,0.05-0.043c-0.025,0-0.057-0.021-0.075-0.036
			c-0.165,0.036-0.648,0.211-0.662,0.032c0.082,0,0.154,0.007,0.233,0.004c-0.029-0.007-0.276,0-0.276-0.036
			c0,0,0.14-0.021,0.218-0.032c-0.093,0.004-0.272,0.021-0.322-0.018c0.007,0,0.014,0,0.029,0c-0.057-0.007-0.1-0.021-0.086-0.043
			c-0.036,0-0.068-0.014-0.1-0.032C47.37,24.046,47.448,24.043,47.534,24.061z M33.852,25.514c0.029-0.021,0.118-0.021,0.236-0.021
			C34.024,25.503,33.82,25.535,33.852,25.514z M35.416,26.126c0.011-0.014,0.021-0.025,0.032-0.036
			c0.089-0.043,0.175-0.089,0.276-0.064C35.656,26.065,35.491,26.122,35.416,26.126z M32.797,33.906
			c-0.011,0.093-0.068,0.14-0.172,0.132C32.521,34.013,32.768,33.928,32.797,33.906z M32.471,32.27
			c0.043,0.007,0.043,0.05,0.043,0.075c-0.068,0.004-0.125-0.014-0.157-0.021C32.385,32.299,32.446,32.27,32.471,32.27z
			 M32.242,32.761c0.021-0.036,0.05,0.107,0.032,0.14C32.206,33.054,32.235,32.782,32.242,32.761z M30.864,33.809
			c0.018-0.057,0.05-0.082,0.1-0.097c0.025-0.057,0.021-0.104,0.061-0.064C30.911,33.963,30.893,33.745,30.864,33.809z
			 M31.433,35.051c0.075,0.018,0.143,0.1,0.172,0.129c0-0.007,0-0.014-0.004-0.029c0.032,0.036,0.032,0.072,0.021,0.111
			C31.193,35.284,31.379,35.041,31.433,35.051z M31.63,34.454c0.129-0.304,0.032-0.791-0.422-0.845
			c-0.118-0.397-0.161,0.104-0.523,0.057c0.369-0.469,0.648-0.54,1.052-0.147c0.129,0.125,0.426,0.551,0.412,0.669
			c0.2,0.068,0.054,0.175,0.15,0.308C32.084,34.776,31.859,34.486,31.63,34.454z M32.857,35.305
			c-0.014-0.147-0.236,0.197-0.286,0.183c-0.004,0-0.326-0.583-0.462-0.211c-0.354-0.208,0.34-0.265,0.379-0.243
			c0.004-0.072,0.014-0.734,0.183-0.476c0.075,0.125,0.197,0.029,0.304,0.047c0.225,0.036,0.2,0.261,0.283,0.415
			c0.025,0.093,0.086,0.308,0.086,0.293C33.33,35.313,32.857,35.313,32.857,35.305z M33.58,35.509
			c0.05-0.161,0.304,0.057,0.308,0.132C33.809,35.753,33.527,35.67,33.58,35.509z M53.336,29.959
			c0.004,0.082-0.297,0.265-0.34,0.079C53.082,30.005,53.235,29.959,53.336,29.959z M51.843,29.901
			c-0.104,0.05-0.333-0.032-0.419-0.075C51.561,29.812,51.725,29.858,51.843,29.901z M49.707,29.1
			c-0.007,0.057-0.014,0.272-0.021,0.272c-0.082-0.007-0.476-0.222-0.483-0.301C49.266,29.042,49.621,29.078,49.707,29.1z
			 M48.511,28.065c0.007,0.029,0.014,0.057,0.036,0.064c-0.011,0.068-0.014,0.19-0.036,0.222c-0.068-0.014-0.1-0.186-0.14-0.225
			C48.422,28.112,48.468,28.098,48.511,28.065z M48.443,28.574c-0.004-0.05-0.068-0.079-0.075-0.132
			C48.862,28.366,48.511,29.1,48.443,28.574z M47.477,28.609c0.007,0.075-0.136-0.029-0.14-0.036
			C47.413,28.516,47.456,28.527,47.477,28.609z M46.178,25.324c-0.043,0.032-0.089,0.057-0.143,0.075
			c0.061,0.111,0.175,0.132,0.354,0.054c0.021,0.093-0.179,0.175-0.2,0.225c0.225,0.061,0.583,0.293,0.594,0.523
			c0.039-0.007,0.047-0.014,0.075-0.021c0.132-0.064,0.132,0.082-0.007,0.243c0.036,0.007,0.079,0.014,0.118,0.029
			c0.007,0.05-1.02,0.136-1.138,0.129c0.075-0.122,0.404-0.175,0.404-0.24c-0.047,0.043-0.369-0.014-0.369-0.039
			c0-0.075,0.115-0.093,0.115-0.233c0.097,0.007,0.265,0.007,0.265-0.115c-0.089,0-0.168-0.018-0.097-0.1
			c-0.036-0.004-0.283,0.029-0.279-0.036c0-0.132,0.157-0.072-0.043-0.168c-0.029,0.025-0.007,0.039,0,0.054
			c-0.014,0-0.029,0-0.043,0c0-0.14-0.025-0.107-0.021-0.222c-0.082-0.021-0.125-0.036-0.125-0.075c0.007,0,0.154,0.043,0.154,0.021
			C45.688,25.385,46.181,25.134,46.178,25.324z M45.91,25.95c0-0.018,0.004-0.039,0.043-0.047c0.007,0,0.021,0,0.029,0
			c0,0.014,0,0.029,0,0.05C45.967,25.954,45.945,25.954,45.91,25.95z M45.702,25.302c-0.007,0.036-0.05,0.075-0.111,0.075
			C45.469,25.367,45.688,25.302,45.702,25.302z M45.094,25.911c0-0.075,0.197-0.054,0.236-0.075c-0.111-0.122,0.19-0.107,0.243-0.1
			c0.344,0.021,0.082,0.175,0.082,0.218c-0.007,0.279-0.197,0.372-0.501,0.347c-0.319-0.025,0.014-0.222,0.039-0.301
			C45.162,25.968,45.129,25.94,45.094,25.911z M36.504,24.436c-0.011,0.007-0.025,0.021-0.039,0.029
			c0.057,0-0.129,0.007-0.079-0.021C36.433,24.444,36.486,24.444,36.504,24.436z M36.365,24.576
			c-0.093-0.075,0.279-0.097,0.193,0.007C36.476,24.583,36.189,24.601,36.365,24.576z M36.698,24.597
			c-0.032,0.021-0.064,0.029-0.104,0.029c-0.018,0-0.204-0.007-0.204-0.007C36.486,24.597,36.59,24.605,36.698,24.597z
			 M35.663,24.554c0.011,0,0.032-0.007,0.047-0.014c-0.05,0-0.054,0-0.025-0.018c0.1-0.011,0.397-0.043,0.472,0.032
			c-0.014,0-0.036,0.007-0.05,0.014c0.032,0.032-0.082,0.05-0.211,0.054c-0.032,0.007-0.068,0.007-0.111,0.011
			c0.021-0.004,0.05-0.007,0.079-0.011c-0.107,0-0.218-0.014-0.24-0.039c0.057,0.007,0.111-0.007,0.154-0.036
			C35.699,24.554,35.67,24.562,35.663,24.554z M35.527,24.673c-0.021,0.007-0.054,0.014-0.075,0.021
			c-0.039,0-0.057-0.036-0.029-0.054C35.517,24.637,35.474,24.665,35.527,24.673z M34.915,24.633c0.075-0.004,0.14-0.014,0.2-0.014
			c-0.018,0-0.036,0.004-0.05,0.004c0.007,0.004,0.014,0.011,0.018,0.021c-0.2,0.021-0.225,0.025-0.075,0.018
			c-0.043,0.029-0.175,0.05-0.247,0.05C34.675,24.708,34.797,24.658,34.915,24.633z M34.565,24.748
			c-0.032,0.018-0.068,0.032-0.104,0.025c-0.014,0-0.032-0.007-0.007-0.018C34.489,24.751,34.529,24.751,34.565,24.748z
			 M34.407,24.708c0.047,0.014,0.029,0.029-0.057,0.039c-0.032,0.05-0.082,0.068-0.15,0.057
			C34.253,24.73,34.325,24.701,34.407,24.708z M34.3,24.898v-0.007c-0.021,0-0.054,0.014-0.068,0.021
			c-0.072,0.014-0.14,0.021-0.208,0.014c0.032-0.05,0.075-0.072,0.125-0.064c-0.011-0.007-0.018-0.007-0.025-0.007
			c0.036-0.029,0.064-0.029,0.107-0.021c-0.007-0.007-0.014-0.011-0.021-0.011c0.036-0.014,0.068-0.021,0.104-0.021
			c-0.011,0-0.014-0.007,0-0.014c0.168-0.018,0.347,0.1,0.53,0.032c-0.036,0.007-0.05,0-0.061-0.004
			c0.032,0,0.057-0.007,0.075-0.025c-0.147-0.004,0.168-0.064,0.2-0.064c-0.168,0.079,0.179,0.061,0.15,0.075
			C34.955,24.955,34.561,24.841,34.3,24.898z M35.309,24.819c-0.014,0.043-0.047,0.057-0.097,0.05c-0.032,0-0.036,0-0.068,0
			C35.205,24.841,35.248,24.834,35.309,24.819z M35.015,25.381c-0.093,0.021,0.372-0.147,0.297,0.021
			C35.245,25.421,34.772,25.421,35.015,25.381z M35.545,25.023c0.05-0.007,0.183-0.05,0.086,0.021
			c0.014,0.004,0.057,0.007,0.075,0.007c-0.14,0.082-0.483,0.204-0.616,0.021c0.097-0.064,0.19,0.007,0.297-0.064
			c-0.279-0.007,0.34-0.039,0.365-0.054C35.685,24.988,35.617,25.009,35.545,25.023z M35.606,24.841
			c0.05-0.036,0.15-0.043,0.197-0.057c-0.043-0.018-0.107-0.014-0.175-0.011c0,0.004,0.004,0.004,0.004,0.004s-0.004,0-0.007-0.004
			c-0.075,0.007-0.15,0.018-0.204,0.021c0.004-0.007,0.007-0.011,0.014-0.018c-0.043,0.007-0.05,0-0.064-0.007l0.043-0.029
			c0,0,0,0,0,0.004c0-0.047,0.165,0.018,0.211,0.029h0.004c-0.011-0.007-0.021-0.014-0.025-0.018c0.072-0.05,0.14,0.021,0.222-0.029
			c-0.061,0-0.107,0.007-0.089-0.014c0.029-0.007,0.333,0,0.333,0C36.068,24.912,35.685,24.791,35.606,24.841z M36.021,24.826
			c0.021-0.011,0.075-0.021,0.082-0.021c0.075-0.043,0.154-0.05,0.236-0.025C36.447,24.841,36.025,24.826,36.021,24.826z
			 M36.823,24.816c-0.068,0.004-0.519-0.004-0.279-0.05c-0.014-0.075-0.061-0.086-0.132-0.047c-0.064,0-0.125-0.014-0.183-0.043
			c0.057-0.036,0.626-0.029,0.648,0.029c-0.05,0.007-0.097,0.007-0.147,0.007c-0.036,0.039,0.089,0.014,0.118,0.029
			c-0.075,0.021,1.034-0.075,1.045-0.007c-0.025,0-0.05,0.007-0.072,0.021c0.025,0,0.05,0,0.05,0
			C37.592,24.93,37.07,24.68,36.823,24.816z M37.667,24.952c-0.011,0-0.154-0.032-0.118-0.064c0.115-0.082,0.387-0.007,0.508,0.021
			C37.961,24.955,37.76,24.948,37.667,24.952z M38.29,24.554c-0.236,0.229-0.795,0.029-1.145,0.068
			c0.072-0.021,0.143-0.032,0.218-0.039c-0.197-0.082,0.247-0.036,0.308-0.043c-0.093-0.075-0.261-0.061-0.358-0.036
			c0,0.007,0.011,0.011,0.007,0.021c-0.075,0-0.272-0.011-0.369,0.007c-0.014,0-0.032,0.007-0.061,0.007
			c0.004,0,0.011-0.007,0.014-0.007c-0.021,0-0.047-0.007-0.061-0.029c0.104-0.021,0.208-0.032,0.311-0.032
			c-0.047-0.004-0.2-0.018-0.297-0.018c0.007,0,0.018,0,0.029-0.007c-0.118,0.007-0.186,0.007-0.136-0.029
			c0.061-0.007,0.125-0.007,0.183-0.007c-0.039,0.007-0.075,0-0.107-0.021c0.039-0.025,0.097-0.018,0.15-0.018
			c-0.007-0.004-0.018-0.007-0.025-0.014c0.068-0.011,0.14-0.014,0.208-0.018c-0.029-0.004-0.086-0.004-0.064-0.018
			c0.118,0,0.358,0.1,0.44,0.061c0.072,0,0.072,0.007,0.011,0.043c0.118-0.072,0.15,0.079,0.344-0.054
			c0.011-0.007-0.089-0.043-0.129-0.05c0.093,0,0.115-0.007,0.061-0.025c-0.097,0-0.172-0.014-0.186-0.036
			c0.036-0.007,0.075-0.014,0.107-0.014c-0.05,0-0.104,0-0.154,0c0.086-0.029,0.165-0.029,0.261-0.036
			c-0.089-0.007-0.179,0.029-0.272,0.014c0.054-0.011,0.079-0.014,0.125-0.021c-0.079,0.007-0.157,0.014-0.236,0.014
			c0.433-0.161,1.653-0.265,2.086-0.111c-0.225,0.057,0.369-0.036,0.344,0.021c-0.018,0.039-0.372,0.039-0.401,0.047
			c0.018,0.007,0.118-0.004,0.175-0.004c-0.311,0.082-0.651,0.075-0.966,0.157c0.029,0,0.057,0,0.082,0
			c-0.018,0.021-0.05,0.021-0.107,0.021c0.029,0.007,0.061,0.007,0.064,0.025c-0.147,0.029-0.222,0.064-0.365,0.075
			c-0.029,0.072-0.157,0.043-0.215,0.089C38.204,24.547,38.304,24.54,38.29,24.554z M37.832,27.743
			c-0.118,0.082-0.283-0.036-0.372-0.104C37.667,27.611,37.739,27.693,37.832,27.743z M37.206,28.162
			c0.007-0.021,0.029-0.029,0.043-0.036c0.072,0.086,0.165,0.115,0.283,0.079C37.456,28.362,37.177,28.205,37.206,28.162z
			 M37.642,28.302c0.064-0.075,0.14-0.125,0.229-0.161c0,0.021,0.029,0.029,0.021,0.05c-0.025,0.054-0.132,0.075,0.014,0.075
			C37.868,28.359,37.61,28.366,37.642,28.302z M38.448,28.098c0.004-0.004-0.304,0.161-0.29,0.125
			c0.029-0.036,0.064-0.064,0.107-0.075c-0.075,0-0.759-0.054-0.755-0.057c0.032-0.072,0.14-0.05,0.172-0.118
			c-0.018,0-0.039-0.007-0.039-0.021c0.272-0.082,0.48-0.49,0.766-0.49c0.089,0-0.261,0.286-0.268,0.301
			c0.068-0.043,0.132-0.05,0.204-0.014c-0.036,0.007-0.057,0.032-0.061,0.064c0.039,0,0.075,0,0.118,0
			c0,0.007-0.011,0.029-0.011,0.029c0.032-0.007,0.061-0.014,0.086-0.021c0.068,0.014,0.15,0.014,0.193,0
			c-0.018,0.043-0.043,0.082-0.072,0.154c0.014-0.007,0.054-0.014,0.079-0.014c-0.054,0.104-0.039,0.05-0.079,0.154
			c0.068,0,0.05-0.011,0.1-0.032C38.566,28.427,38.576,28.23,38.448,28.098z M42.255,24.988c-0.061,0.183-0.283-0.111-0.319,0
			c0.054,0.029,0.358,0.075,0.322,0.204c-0.021,0.075-0.39-0.057-0.44-0.075c-0.018,0.061,0.043,0.061-0.068,0.068
			c-0.018,0.061,0.322,0.057,0.397,0.068c-0.319,0.111-0.673,0.172-1.009,0.165c-0.218,0.064-0.347,0.211-0.598,0.204
			c0.004-0.014,0.007-0.029,0.011-0.036c-0.233,0.043-0.508,0.512-0.63,0.505c-0.079-0.007-0.648-0.265-0.44-0.376
			c-0.043-0.054-0.208-0.075-0.111-0.204c-0.014-0.007-0.032-0.007-0.05,0c0.036-0.122,0.236-0.147,0.311-0.236
			c-0.072-0.014-0.243-0.021-0.236-0.068c0.068-0.018,0.165,0.072,0.211-0.004c-0.021,0-0.186-0.097-0.247-0.089
			c0.072-0.036,0.075-0.064,0.004-0.075c0.1-0.254-0.444-0.254-0.591-0.222c0.004,0.004,0.011,0.007,0.014,0.011
			c-0.047,0.014-0.093,0.004-0.143-0.021c0.021-0.007,0.036-0.011,0.047-0.021c-0.043-0.021-0.086-0.029-0.136-0.014
			c0.057-0.082,0.24,0,0.308-0.075c-0.032,0-0.361,0.029-0.34-0.021c0.064-0.132,0.408-0.004,0.487-0.154
			c-0.047,0.007-0.093,0-0.14-0.014c0.079-0.157,0.834-0.19,0.945-0.197c0.029-0.057,0.111-0.043,0.172-0.021
			c-0.004-0.007-0.011-0.014-0.007-0.021c0.036-0.061,0.336,0,0.401,0c-0.047,0-0.086-0.007-0.125-0.039
			c0.036-0.014,0.075-0.021,0.115-0.021c-0.011-0.007-0.032-0.007-0.039-0.014c0.744-0.172,1.575-0.125,2.341-0.111
			c-0.054,0.054-0.143,0.075-0.243,0.093c0.082-0.011,0.147-0.014,0.143-0.004c-0.007,0.007-0.304,0.1-0.322,0.115
			c0.082-0.014,1.532-0.19,1.517-0.168c-0.043,0.075-0.351,0.089-0.512,0.097c-0.043,0.075-0.63,0.211-0.734,0.265
			c0.089-0.014,0.183-0.007,0.272,0.018c-0.021,0.004-0.054,0.011-0.075,0.011c0.057,0.007,0.107,0.029,0.154,0.05
			c-0.043,0.1-0.347-0.039-0.39,0.068c-0.011,0.021,0.183,0.007,0.15,0.086c-0.029,0.075-0.129,0-0.15,0.064
			c0.047,0.032,0.097,0.039,0.15,0.032c-0.036,0.032-0.122,0.054-0.2,0.054c-0.004,0.014,0.011,0.021,0.032,0.029
			c-0.1,0.118-0.286,0.029-0.401,0.032C42.137,24.927,42.198,24.952,42.255,24.988z M42.449,25.317c0.061,0,0.168,0,0.222-0.007
			c0.007,0.007-0.172-0.075-0.161-0.097c0.057-0.007,0.15-0.036,0.211-0.036c-0.057,0.132,0.075,0.079,0.122,0.064
			c0.043,0.064,0.122,0.007,0.183,0.043c0.007-0.054,0.462,0,0.519,0c-0.122,0.036,0.057,0.118,0.025,0.175
			c-0.437,0.193-0.666,0.014-1.074-0.021c0.014-0.007,0.032-0.014,0.043-0.014c0.021-0.036,0.047-0.05,0.075-0.075
			C42.549,25.324,42.463,25.349,42.449,25.317z M54.706,40.169c-0.05,0.222-0.254,0.358-0.254,0.601
			c-0.007,0.251,0.057,0.497,0.054,0.744c-0.004,0.261,0.361,0.54,0.247,0.78c-0.308,0.655,0.272,1.31-0.483,1.782
			c-0.265,0.161-0.608,0.308-0.666,0.655c-0.483,0.097-0.036,0.673-0.05,0.916c-0.014,0.544-0.125,0.433-0.469,0.712
			c-0.361,0.308-0.014,0.573-0.322,0.938c-0.279,0.336-0.433,0.741-0.691,1.099c-0.111,0.147-0.655,0.344-0.673,0.462
			c-0.293,0.029-0.533-0.043-0.82,0.111c-0.272,0.14-0.58-0.057-0.673,0.007c0.011-0.966-0.752-1.686-0.862-2.684
			c-0.05-0.462-0.064-0.644-0.272-1.063c-0.222-0.44-0.412-0.934-0.326-1.439c0.068-0.361,0.361-0.601,0.437-0.956
			c0.082-0.354-0.075-0.88-0.168-1.217c-0.097-0.369-0.125-0.809-0.358-1.109c-0.233-0.293-0.651-0.691-0.497-1.117
			c0.236-0.655,0.351-1.328-0.594-1.31c-0.293,0.004-0.258-0.565-0.594-0.558c-0.462,0.007-0.845,0.54-1.228,0.551
			c-0.161,0.004-0.29-0.143-0.451-0.136c-0.204,0.004-0.344,0.115-0.523,0.179c-0.39,0.132-0.68-0.251-0.927-0.505
			c-0.326-0.333-0.39-0.784-0.698-1.117c-0.172-0.19-0.34-0.383-0.476-0.608c0.007,0,0.014,0,0.021,0
			c0.004-0.265-0.165-0.523-0.032-0.727c0.136-0.211,0.225-0.497,0.236-0.748c0.014-0.361-0.236-0.873-0.05-1.202
			c0.14-0.243,0.236-0.497,0.354-0.755c0.147-0.322,0.29-0.727,0.644-0.852c0.197-0.075,0.429-0.272,0.494-0.476
			c0.072-0.222,0.021-0.476,0.161-0.673c0.204-0.283,0.447-0.523,0.655-0.812c-0.004,0-0.007,0-0.014,0
			c0.233-0.315,0.605,0.043,1.024-0.208c0.336-0.19,0.752-0.394,1.145-0.415c0.258-0.007,0.501,0,0.769-0.007
			c0.125-0.007,0.286-0.236,0.404-0.064c0.064,0.082,0.132,0.089,0.208,0.018c-0.014,0.225-0.111,0.426-0.115,0.68
			c-0.004,0.458,0.437,0.308,0.698,0.39c0.243,0.079,1.192,1.117,1.174,0.322c-0.014-0.684,0.998-0.097,1.253-0.007
			c0.358,0.125,0.63,0.175,0.984,0.043c0.265-0.097,0.505,0.075,0.78,0c0.161,0.404,0.15,0.515,0.054,0.931
			c-0.157-0.021-0.308-0.412-0.44-0.558c0.021,0.433,0.433,0.952,0.637,1.328c0.132,0.258,0.161,0.523,0.308,0.769
			c0.172,0.29,0.097,0.691,0.301,0.931c0.222,0.243,0.308,0.372,0.379,0.705c0.097,0.455,0.82,0.744,0.92,1.167
			c0.14,0.612,0.336,0.462,0.837,0.372c0.286-0.057,0.551-0.208,0.82-0.293c0.293,0.698-0.483,2.061-0.873,2.641
			C55.64,39.063,54.9,39.303,54.706,40.169z"/>
		<path style="fill:#010002;" d="M34.947,27.332L34.947,27.332c-0.025-0.011-0.093-0.007-0.1-0.018
			C34.879,27.328,34.919,27.335,34.947,27.332z"/>
		<path style="fill:#010002;" d="M57.276,34.117c0.05,0.258,0.054,0.53,0.086,0.802c0.029-0.011,0.054-0.029,0.079-0.039
			C57.408,34.622,57.326,34.375,57.276,34.117z"/>
		<path style="fill:#010002;" d="M52.076,25.449c0.687,0.558,1.288,1.217,1.872,1.89c-0.372-0.429-0.748-0.848-1.16-1.235
			C52.588,25.918,52.341,25.685,52.076,25.449z"/>
		<path style="fill:#010002;" d="M56.381,31.279c0.05,0.118,0.079,0.247,0.132,0.372c0.036,0.043,0.086,0.075,0.111,0.115
			C56.557,31.594,56.453,31.447,56.381,31.279z"/>
		<path style="fill:#010002;" d="M55.465,29.386c-0.211-0.351-0.469-0.673-0.705-1.006c0.272,0.383,0.515,0.791,0.755,1.195
			c-0.036-0.057-0.057-0.118-0.089-0.179C55.429,29.39,55.447,29.386,55.465,29.386z"/>
	</g>
</g>
<g>
</g>
<g>
</g>
<g>
</g>
<g>
</g>
<g>
</g>
<g>
</g>
<g>
</g>
<g>
</g>
<g>
</g>
<g>
</g>
<g>
</g>
<g>
</g>
<g>
</g>
<g>
</g>
<g>
</g>
</svg>
