<?xml version="1.0" encoding="iso-8859-1"?>
<!-- Generator: Adobe Illustrator 18.1.1, SVG Export Plug-In . SVG Version: 6.00 Build 0)  -->
<svg version="1.1" id="Capa_1" xmlns="http://www.w3.org/2000/svg" xmlns:xlink="http://www.w3.org/1999/xlink" x="0px" y="0px"
	 viewBox="0 0 85.348 85.348" style="enable-background:new 0 0 85.348 85.348;" xml:space="preserve">
<g>
	<path style="fill:#010002;" d="M77.45,57.691v-3.16V35.563V16.595c0-1.736-1.421-3.16-3.16-3.16H11.066
		c-1.739,0-3.167,1.417-3.167,3.16v18.968v18.968v3.16L0,67.175c0,2.613,2.122,4.738,4.738,4.738H80.61
		c2.613,0,4.738-2.126,4.738-4.738L77.45,57.691z M49.002,70.339H36.358c-0.437,0-0.791-0.351-0.791-0.791s0.354-0.791,0.791-0.791
		h12.644c0.437,0,0.791,0.351,0.791,0.791C49.785,69.988,49.438,70.339,49.002,70.339z M29.644,67.179l2.412-2.895h21.233
		l2.416,2.895H29.644z M73.001,52.101c0,1.525-1.242,2.759-2.759,2.759h-8.081c-0.272-0.197-0.505-0.433-0.82-0.601
		c-3.425-1.754-6.964-3.207-10.547-4.585c-0.268-0.097-0.587-0.301-0.691-0.537c-0.293-0.644-0.497-1.328-0.705-2.008
		c-0.132-0.433-0.243-0.837-0.719-1.049c-0.129-0.064-0.243-0.308-0.243-0.469c0.029-1.571-0.336-3.225,0.823-4.595
		c0.039-0.047,0.054-0.104,0.075-0.157c0.63-1.378,0.741-2.949,1.621-4.23c0.021-0.036,0.029-0.075,0.029-0.111
		c0.1-0.973,0.211-1.958,0.293-2.928c0.007-0.122-0.097-0.336-0.204-0.372c-0.483-0.175-0.462-0.562-0.455-0.956
		c0.004-1.911,0-3.819,0-5.737c0-1.106-0.329-2.097-1.167-2.852c-0.959-0.855-1.936-1.693-2.913-2.516
		c-0.476-0.401-0.523-0.709-0.075-1.149c0.197-0.2,0.451-0.34,0.676-0.501c-0.054-0.075-0.104-0.147-0.147-0.222
		c-0.301,0-0.601-0.039-0.895,0.007c-1.084,0.175-2.169,0.329-3.239,0.576c-2.036,0.487-4.015,1.117-5.665,2.477
		c-1.134,0.938-2.033,2.018-2.147,3.557c-0.061,0.802-0.05,1.614-0.057,2.419c-0.007,1.313,0.007,2.62-0.014,3.937
		c-0.004,0.218-0.129,0.562-0.276,0.612c-0.53,0.172-0.544,0.515-0.472,0.956c0.05,0.308,0.007,0.626,0.079,0.923
		c0.183,0.82,0.376,1.639,0.612,2.452c0.175,0.601,0.519,1.167,0.612,1.779c0.19,1.224,0.644,2.287,1.467,3.207
		c0.136,0.154,0.24,0.412,0.222,0.612c-0.064,0.941-0.157,1.875-0.286,2.813c-0.025,0.183-0.222,0.455-0.376,0.49
		c-0.623,0.125-0.723,0.616-0.873,1.099c-0.197,0.644-0.404,1.278-0.655,1.908c-0.079,0.19-0.272,0.383-0.462,0.476
		c-1.113,0.483-2.24,0.931-3.361,1.399c-1.192,0.505-2.394,0.977-3.557,1.539c-1.199,0.565-2.362,1.224-3.532,1.847
		c-0.272,0.147-0.487,0.351-0.741,0.512h-8.271c-1.514,0-2.756-1.245-2.756-2.759V19.054c0-1.525,1.242-2.759,2.756-2.759h55.136
		c1.517,0,2.759,1.242,2.759,2.759C73.001,19.054,73.001,52.101,73.001,52.101z"/>
</g>
<g>
</g>
<g>
</g>
<g>
</g>
<g>
</g>
<g>
</g>
<g>
</g>
<g>
</g>
<g>
</g>
<g>
</g>
<g>
</g>
<g>
</g>
<g>
</g>
<g>
</g>
<g>
</g>
<g>
</g>
</svg>
