<?xml version="1.0" encoding="iso-8859-1"?>
<!-- Generator: Adobe Illustrator 18.1.1, SVG Export Plug-In . SVG Version: 6.00 Build 0)  -->
<svg version="1.1" id="Capa_1" xmlns="http://www.w3.org/2000/svg" xmlns:xlink="http://www.w3.org/1999/xlink" x="0px" y="0px"
	 viewBox="0 0 85.348 85.348" style="enable-background:new 0 0 85.348 85.348;" xml:space="preserve">
<g>
	<path style="fill:#010002;" d="M77.45,57.691v-3.16V35.563V16.595c0-1.736-1.424-3.16-3.164-3.16h-63.22
		c-1.739,0-3.167,1.417-3.167,3.16v18.968v18.968v3.16L0,67.175c0,2.613,2.122,4.738,4.738,4.738H80.61
		c2.616,0,4.738-2.126,4.738-4.738L77.45,57.691z M49.002,70.339H36.354c-0.437,0-0.791-0.351-0.791-0.791s0.354-0.791,0.791-0.791
		h12.648c0.433,0,0.791,0.351,0.791,0.791C49.782,69.988,49.435,70.339,49.002,70.339z M29.644,67.179l2.412-2.895h21.237
		l2.412,2.895H29.644z M72.998,52.101c0,1.525-1.242,2.759-2.756,2.759h-7.834c-1.006-1.732-2.598-2.963-4.731-3.754
		c-2.058-0.762-4.083-1.636-6.084-2.552c-0.573-0.258-0.995-0.823-1.514-1.224c-0.222-0.175-0.505-0.336-0.777-0.376
		c-0.931-0.147-1.342-0.483-1.564-1.399c-0.29-1.202-0.494-2.405-0.24-3.654c0.107-0.548,0.308-0.898,0.837-1.106
		c1.106-0.433,2.187-0.909,3.278-1.374c0.82-0.347,0.866-0.633,0.569-1.471c-0.941-2.656-1.636-5.361-1.865-8.206
		c-0.147-1.789-0.097-3.629-0.53-5.39h-0.075c-0.036-0.165-0.057-0.329-0.093-0.49c-0.791-3.106-4.126-4.803-6.929-4.978
		c-0.021,0-0.047-0.007-0.068-0.007c-0.215-0.014-0.419,0.014-0.626,0.029c-1.185,0.168-2.147,0.913-3.267,1.242
		c-1.46,0.429-2.355,1.772-2.906,3.217c-0.773,2.054-0.63,4.248-0.802,6.374c-0.229,2.838-0.923,5.544-1.865,8.199
		c-0.297,0.841-0.243,1.127,0.569,1.474c1.092,0.462,2.172,0.945,3.278,1.371c0.533,0.211,0.73,0.555,0.841,1.109
		c0.251,1.253,0.043,2.455-0.243,3.65c-0.222,0.923-0.63,1.253-1.564,1.399c-0.272,0.05-0.548,0.211-0.777,0.376
		c-0.515,0.397-0.938,0.97-1.51,1.231c-2.004,0.909-4.026,1.789-6.088,2.552c-2.133,0.791-3.722,2.011-4.728,3.747h-7.838
		c-1.514,0-2.756-1.238-2.756-2.756V19.018c0-1.521,1.242-2.759,2.756-2.759h55.136c1.514,0,2.759,1.242,2.759,2.759v33.083H72.998z
		"/>
</g>
<g>
</g>
<g>
</g>
<g>
</g>
<g>
</g>
<g>
</g>
<g>
</g>
<g>
</g>
<g>
</g>
<g>
</g>
<g>
</g>
<g>
</g>
<g>
</g>
<g>
</g>
<g>
</g>
<g>
</g>
</svg>
