<?xml version="1.0" encoding="iso-8859-1"?>
<!-- Generator: Adobe Illustrator 18.1.1, SVG Export Plug-In . SVG Version: 6.00 Build 0)  -->
<svg version="1.1" id="Capa_1" xmlns="http://www.w3.org/2000/svg" xmlns:xlink="http://www.w3.org/1999/xlink" x="0px" y="0px"
	 viewBox="0 0 71.577 71.577" style="enable-background:new 0 0 71.577 71.577;" xml:space="preserve">
<g>
	<g>
		<g>
			<polygon style="fill:#010002;" points="25.052,57.523 17.894,64.681 53.683,64.681 46.525,57.523 			"/>
		</g>
		<g>
			<path style="fill:#010002;" d="M0,6.896v46.525h71.577V6.896H0z M28.409,43.49h-5.547V25.675h5.547V43.49z M25.635,23.245
				c-1.779,0-3.21-1.439-3.21-3.21c0-1.772,1.432-3.207,3.21-3.207c1.775,0,3.207,1.439,3.207,3.207
				C28.849,21.806,27.41,23.245,25.635,23.245z M49.152,43.49h-5.536v-8.657c0-2.069-0.043-4.724-2.885-4.724
				c-2.881,0-3.321,2.248-3.321,4.574v8.808h-5.533V25.675h5.304v2.437h0.075c0.737-1.403,2.545-2.877,5.243-2.877
				c5.601,0,6.639,3.686,6.639,8.485v9.767h0.014V43.49z"/>
		</g>
	</g>
</g>
<g>
</g>
<g>
</g>
<g>
</g>
<g>
</g>
<g>
</g>
<g>
</g>
<g>
</g>
<g>
</g>
<g>
</g>
<g>
</g>
<g>
</g>
<g>
</g>
<g>
</g>
<g>
</g>
<g>
</g>
</svg>
