<?xml version="1.0" encoding="iso-8859-1"?>
<!-- Generator: Adobe Illustrator 18.1.1, SVG Export Plug-In . SVG Version: 6.00 Build 0)  -->
<svg version="1.1" id="Capa_1" xmlns="http://www.w3.org/2000/svg" xmlns:xlink="http://www.w3.org/1999/xlink" x="0px" y="0px"
	 viewBox="0 0 71.577 71.577" style="enable-background:new 0 0 71.577 71.577;" xml:space="preserve">
<g>
	<g>
		<polygon style="fill:#010002;" points="25.052,57.523 17.894,64.681 53.683,64.681 46.525,57.523 		"/>
		<path style="fill:#010002;" d="M0,6.896v46.525h71.577V6.896H0z M50.48,40.337c-2.004,0-23.917,0-26.609,0
			c-3.926,0-7.104-3.185-7.104-7.104c0-3.926,3.185-7.104,7.104-7.104c0.716,0,1.396,0.14,2.047,0.336
			c1.063-3.736,4.463-6.488,8.539-6.488c3.028,0,5.698,1.514,7.304,3.822c0.519-0.122,1.052-0.2,1.61-0.2
			c3.922,0,7.104,3.182,7.104,7.104c0,0.347-0.061,0.684-0.104,1.02c0.039,0,0.072-0.021,0.104-0.021
			c2.384,0,4.313,1.936,4.313,4.32C54.796,38.401,52.863,40.337,50.48,40.337z"/>
	</g>
</g>
<g>
</g>
<g>
</g>
<g>
</g>
<g>
</g>
<g>
</g>
<g>
</g>
<g>
</g>
<g>
</g>
<g>
</g>
<g>
</g>
<g>
</g>
<g>
</g>
<g>
</g>
<g>
</g>
<g>
</g>
</svg>
