<?xml version="1.0" encoding="iso-8859-1"?>
<!-- Generator: Adobe Illustrator 18.1.1, SVG Export Plug-In . SVG Version: 6.00 Build 0)  -->
<svg version="1.1" id="Capa_1" xmlns="http://www.w3.org/2000/svg" xmlns:xlink="http://www.w3.org/1999/xlink" x="0px" y="0px"
	 viewBox="0 0 115.783 115.783" style="enable-background:new 0 0 115.783 115.783;" xml:space="preserve">
<g>
	<g>
		<polygon style="fill:#010002;" points="52.104,49.623 48.246,53.488 67.536,53.488 63.678,49.623 		"/>
		<polygon style="fill:#010002;" points="13.507,89.591 9.649,93.453 28.946,93.453 25.088,89.591 		"/>
		<polygon style="fill:#010002;" points="90.695,89.591 86.837,93.453 106.134,93.453 102.276,89.591 		"/>
		<path style="fill:#010002;" d="M33.799,42.998c0.462,0,0.916-0.172,1.267-0.523l0.39-0.39c0.698-0.698,0.698-1.832,0.007-2.53
			c-0.698-0.701-1.836-0.701-2.53-0.007l-0.39,0.39c-0.701,0.698-0.701,1.832-0.007,2.53C32.879,42.826,33.341,42.998,33.799,42.998
			z"/>
		<path style="fill:#010002;" d="M21.036,55.764c0.458,0,0.916-0.175,1.267-0.526l0.723-0.727c0.698-0.698,0.698-1.832,0-2.53
			c-0.698-0.694-1.832-0.698-2.53,0.004l-0.723,0.727c-0.694,0.698-0.694,1.832,0,2.53C20.12,55.585,20.578,55.764,21.036,55.764z"
			/>
		<path style="fill:#010002;" d="M25.292,51.505c0.458,0,0.92-0.175,1.267-0.526l0.723-0.727c0.694-0.698,0.694-1.832,0-2.53
			c-0.698-0.694-1.836-0.698-2.53,0.004l-0.723,0.727c-0.698,0.698-0.698,1.832,0,2.53C24.376,51.33,24.834,51.505,25.292,51.505z"
			/>
		<path style="fill:#010002;" d="M29.543,47.25c0.458,0,0.916-0.175,1.267-0.523l0.723-0.723c0.698-0.698,0.698-1.832,0-2.53
			c-0.694-0.698-1.832-0.698-2.53,0l-0.723,0.723c-0.694,0.698-0.694,1.832,0,2.53C28.627,47.078,29.085,47.25,29.543,47.25z"/>
		<path style="fill:#010002;" d="M17.118,59.679c0.458,0,0.913-0.172,1.263-0.523l0.39-0.39c0.698-0.698,0.698-1.832,0.007-2.53
			c-0.698-0.701-1.836-0.701-2.53-0.007l-0.39,0.39c-0.701,0.698-0.701,1.832-0.007,2.53C16.201,59.504,16.66,59.679,17.118,59.679z
			"/>
		<path style="fill:#010002;" d="M80.725,42.476c0.351,0.347,0.809,0.523,1.267,0.523c0.458,0,0.92-0.175,1.267-0.526
			c0.694-0.698,0.694-1.832-0.007-2.53l-0.39-0.39c-0.694-0.694-1.832-0.694-2.53,0.007c-0.691,0.698-0.691,1.832,0.011,2.53
			L80.725,42.476z"/>
		<path style="fill:#010002;" d="M88.505,50.26l0.723,0.727c0.351,0.351,0.812,0.526,1.267,0.526c0.455,0,0.916-0.175,1.267-0.523
			c0.698-0.698,0.698-1.832,0-2.53l-0.723-0.727c-0.694-0.701-1.832-0.698-2.53-0.004C87.804,48.42,87.804,49.555,88.505,50.26z"/>
		<path style="fill:#010002;" d="M84.25,46.008l0.723,0.723c0.351,0.351,0.809,0.523,1.267,0.523c0.458,0,0.916-0.175,1.267-0.523
			c0.694-0.698,0.694-1.832,0-2.53l-0.723-0.723c-0.698-0.698-1.836-0.698-2.53,0C83.555,44.172,83.552,45.303,84.25,46.008z"/>
		<path style="fill:#010002;" d="M92.757,54.511l0.723,0.727c0.351,0.351,0.809,0.526,1.267,0.526c0.458,0,0.916-0.175,1.267-0.523
			c0.694-0.698,0.694-1.832,0-2.53l-0.723-0.726c-0.698-0.701-1.832-0.698-2.53-0.004C92.059,52.675,92.059,53.81,92.757,54.511z"/>
		<path style="fill:#010002;" d="M97.012,58.77l0.39,0.39c0.351,0.347,0.805,0.523,1.263,0.523c0.462,0,0.923-0.172,1.267-0.523
			c0.694-0.698,0.694-1.832-0.007-2.53l-0.39-0.39c-0.694-0.694-1.832-0.694-2.53,0.007C96.307,56.934,96.307,58.069,97.012,58.77z"
			/>
		<path style="fill:#010002;" d="M77.192,47.414V22.33H38.594v25.084h8.986v-1.038c0.279-0.261,0.605-0.465,0.952-0.651
			c0.591-0.319,1.174-0.644,1.782-0.934c0.583-0.279,1.192-0.519,1.793-0.773c0.565-0.236,1.138-0.462,1.7-0.705
			c0.089-0.043,0.197-0.147,0.229-0.243c0.125-0.315,0.233-0.637,0.329-0.963c0.075-0.243,0.125-0.49,0.444-0.555
			c0.075-0.018,0.175-0.154,0.193-0.247c0.068-0.472,0.104-0.945,0.147-1.417c0.004-0.104-0.05-0.225-0.115-0.308
			c-0.419-0.465-0.648-1.002-0.741-1.618c-0.054-0.311-0.222-0.598-0.311-0.902c-0.115-0.408-0.222-0.82-0.308-1.235
			c-0.043-0.15-0.018-0.311-0.043-0.462c-0.039-0.222-0.029-0.397,0.233-0.483c0.075-0.021,0.14-0.2,0.14-0.308
			c0.014-0.662,0.004-1.324,0.011-1.986c0.004-0.404,0-0.816,0.029-1.217c0.061-0.777,0.515-1.324,1.084-1.793
			c0.834-0.687,1.84-1.009,2.86-1.253c0.537-0.129,1.092-0.204,1.639-0.293c0.147-0.025,0.293,0,0.447,0
			c0.025,0.036,0.05,0.075,0.075,0.111c-0.115,0.082-0.243,0.154-0.344,0.251c-0.225,0.225-0.208,0.379,0.036,0.583
			c0.501,0.419,0.988,0.837,1.471,1.27c0.426,0.379,0.591,0.877,0.591,1.439c0.004,0.966,0.004,1.929,0.004,2.888
			c-0.004,0.2-0.018,0.394,0.222,0.483c0.057,0.014,0.104,0.125,0.104,0.186c-0.043,0.494-0.093,0.984-0.15,1.478
			c0,0.018-0.004,0.043-0.014,0.057c-0.444,0.648-0.501,1.439-0.816,2.137c-0.021,0.025-0.025,0.057-0.047,0.075
			c-0.587,0.694-0.397,1.525-0.415,2.319c0,0.079,0.064,0.208,0.122,0.236c0.24,0.104,0.301,0.308,0.372,0.53
			c0.1,0.34,0.208,0.687,0.354,1.013c0.057,0.118,0.218,0.222,0.351,0.272c1.811,0.694,3.6,1.428,5.322,2.312
			c0.347,0.179,0.644,0.394,0.895,0.655v1.081h8.986C77.192,47.407,77.192,47.414,77.192,47.414z"/>
		<path style="fill:#010002;" d="M0,87.379h8.983v-1.041c0.279-0.258,0.605-0.465,0.952-0.651c0.591-0.319,1.174-0.644,1.782-0.938
			c0.583-0.276,1.192-0.519,1.793-0.769c0.565-0.236,1.138-0.462,1.7-0.705c0.089-0.043,0.197-0.147,0.229-0.243
			c0.125-0.315,0.233-0.637,0.333-0.966c0.075-0.24,0.122-0.49,0.44-0.551c0.075-0.018,0.179-0.154,0.193-0.243
			c0.068-0.476,0.107-0.948,0.147-1.417c0.004-0.104-0.05-0.229-0.115-0.308c-0.419-0.469-0.644-1.002-0.741-1.618
			c-0.05-0.311-0.222-0.598-0.311-0.902c-0.115-0.408-0.222-0.82-0.308-1.235c-0.039-0.154-0.018-0.315-0.039-0.462
			c-0.043-0.222-0.032-0.397,0.229-0.483c0.075-0.025,0.14-0.204,0.14-0.311c0.014-0.662,0.004-1.324,0.011-1.986
			c0.004-0.404,0-0.816,0.029-1.22c0.061-0.777,0.515-1.321,1.088-1.789c0.83-0.687,1.836-1.009,2.856-1.253
			c0.537-0.132,1.092-0.208,1.639-0.293c0.147-0.029,0.293,0,0.447,0c0.025,0.036,0.05,0.075,0.075,0.107
			c-0.115,0.079-0.24,0.154-0.344,0.247c-0.225,0.229-0.204,0.383,0.036,0.587c0.505,0.419,0.988,0.837,1.471,1.267
			c0.426,0.379,0.591,0.877,0.591,1.439c0.004,0.963,0.004,1.925,0.004,2.888c-0.004,0.2-0.018,0.394,0.225,0.487
			c0.054,0.014,0.1,0.125,0.1,0.183c-0.043,0.497-0.089,0.984-0.15,1.482c0,0.014-0.004,0.043-0.014,0.057
			c-0.444,0.651-0.501,1.439-0.816,2.14c-0.018,0.021-0.021,0.057-0.047,0.072c-0.583,0.698-0.397,1.528-0.412,2.319
			c0,0.079,0.061,0.211,0.118,0.236c0.24,0.104,0.304,0.308,0.372,0.53c0.104,0.336,0.208,0.684,0.354,1.013
			c0.061,0.115,0.218,0.218,0.354,0.268c1.807,0.694,3.597,1.428,5.318,2.312c0.351,0.183,0.648,0.397,0.895,0.659v1.084h8.986
			V62.281H0V87.379L0,87.379z"/>
		<path style="fill:#010002;" d="M77.192,62.292v25.088h8.986v-1.041c0.279-0.258,0.605-0.465,0.952-0.651
			c0.591-0.319,1.174-0.644,1.782-0.938c0.583-0.276,1.192-0.519,1.793-0.769c0.565-0.236,1.138-0.462,1.696-0.705
			c0.093-0.043,0.2-0.147,0.233-0.243c0.125-0.315,0.233-0.637,0.329-0.966c0.075-0.24,0.125-0.49,0.444-0.551
			c0.075-0.018,0.175-0.154,0.19-0.243c0.072-0.476,0.107-0.948,0.147-1.417c0.004-0.104-0.047-0.229-0.111-0.308
			c-0.419-0.469-0.648-1.002-0.741-1.618c-0.054-0.311-0.222-0.598-0.311-0.902c-0.115-0.408-0.222-0.82-0.308-1.235
			c-0.043-0.154-0.021-0.315-0.043-0.462c-0.039-0.222-0.029-0.397,0.233-0.483c0.075-0.025,0.14-0.204,0.14-0.311
			c0.014-0.662,0.004-1.324,0.011-1.986c0.004-0.404,0-0.816,0.029-1.22c0.057-0.777,0.512-1.321,1.084-1.789
			c0.834-0.687,1.84-1.009,2.856-1.253c0.54-0.132,1.095-0.208,1.639-0.293c0.147-0.029,0.293,0,0.447,0
			c0.029,0.036,0.054,0.075,0.075,0.107c-0.115,0.079-0.243,0.154-0.344,0.247c-0.225,0.229-0.208,0.383,0.036,0.587
			c0.501,0.419,0.984,0.837,1.471,1.267c0.426,0.379,0.591,0.877,0.591,1.439c0.004,0.963,0.004,1.925,0.004,2.888
			c-0.004,0.2-0.018,0.394,0.222,0.487c0.057,0.014,0.104,0.125,0.104,0.183c-0.043,0.497-0.093,0.984-0.15,1.482
			c0,0.014-0.004,0.043-0.014,0.057c-0.444,0.651-0.505,1.439-0.82,2.14c-0.018,0.021-0.021,0.057-0.043,0.072
			c-0.587,0.698-0.401,1.528-0.415,2.319c0,0.079,0.064,0.211,0.122,0.236c0.24,0.104,0.301,0.308,0.372,0.53
			c0.1,0.336,0.208,0.684,0.354,1.013c0.057,0.115,0.215,0.218,0.351,0.268c1.807,0.694,3.597,1.428,5.322,2.312
			c0.347,0.183,0.644,0.397,0.895,0.659v1.084h8.983V62.281H77.192V62.292z"/>
	</g>
</g>
<g>
</g>
<g>
</g>
<g>
</g>
<g>
</g>
<g>
</g>
<g>
</g>
<g>
</g>
<g>
</g>
<g>
</g>
<g>
</g>
<g>
</g>
<g>
</g>
<g>
</g>
<g>
</g>
<g>
</g>
</svg>
