<?xml version="1.0" encoding="iso-8859-1"?>
<!-- Generator: Adobe Illustrator 18.1.1, SVG Export Plug-In . SVG Version: 6.00 Build 0)  -->
<svg version="1.1" id="Capa_1" xmlns="http://www.w3.org/2000/svg" xmlns:xlink="http://www.w3.org/1999/xlink" x="0px" y="0px"
	 viewBox="0 0 80.746 80.746" style="enable-background:new 0 0 80.746 80.746;" xml:space="preserve">
<g>
	<g>
		<path style="fill:#010002;" d="M73.621,38.499H7.125C3.207,38.499,0,41.706,0,45.621v19c0,3.922,3.207,7.129,7.125,7.129h11.953
			C19.057,71.611,19,71.493,19,71.353v-9.498c0-1.417,1.156-2.573,2.577-2.573h37.596c1.417,0,2.573,1.16,2.573,2.573v9.498
			c0,0.14-0.057,0.258-0.075,0.397h11.953c3.919,0,7.122-3.207,7.122-7.129v-19C80.739,41.706,77.539,38.499,73.621,38.499z
			 M68.868,53.341c-1.639,0-2.967-1.328-2.967-2.97c0-1.639,1.328-2.967,2.967-2.967c1.643,0,2.97,1.328,2.97,2.967
			C71.838,52.013,70.511,53.341,68.868,53.341z"/>
		<rect x="21.369" y="61.655" style="fill:#010002;" width="37.997" height="5.046"/>
		<path style="fill:#010002;" d="M61.746,23.311L47.431,8.995H19.004v27.196h42.742V23.311z M48.325,22.416V11.157l11.259,11.259
			H48.325z"/>
	</g>
</g>
<g>
</g>
<g>
</g>
<g>
</g>
<g>
</g>
<g>
</g>
<g>
</g>
<g>
</g>
<g>
</g>
<g>
</g>
<g>
</g>
<g>
</g>
<g>
</g>
<g>
</g>
<g>
</g>
<g>
</g>
</svg>
