<?xml version="1.0" encoding="iso-8859-1"?>
<!-- Generator: Adobe Illustrator 18.1.1, SVG Export Plug-In . SVG Version: 6.00 Build 0)  -->
<svg version="1.1" id="Capa_1" xmlns="http://www.w3.org/2000/svg" xmlns:xlink="http://www.w3.org/1999/xlink" x="0px" y="0px"
	 viewBox="0 0 93.05 93.05" style="enable-background:new 0 0 93.05 93.05;" xml:space="preserve">
<g>
	<g>
		<g>
			<circle style="fill:#010002;" cx="59.259" cy="49.27" r="1.707"/>
		</g>
		<g>
			<circle style="fill:#010002;" cx="54.71" cy="49.27" r="1.707"/>
		</g>
		<g>
			<circle style="fill:#010002;" cx="63.804" cy="49.27" r="1.707"/>
		</g>
		<g>
			<path style="fill:#010002;" d="M84.06,66.08c3.45-6.345,5.411-13.614,5.411-21.344C89.471,20.027,69.444,0,44.736,0
				S0,20.027,0,44.736s20.027,44.736,44.736,44.736c7.73,0,14.999-1.961,21.348-5.411l26.967,8.99L84.06,66.08z M68.023,18.481
				c1.743,1.578,2.749,3.826,2.749,6.181c0,2.348-0.998,4.602-2.749,6.177l-0.755-0.834c1.51-1.364,2.373-3.31,2.373-5.343
				s-0.866-3.98-2.373-5.343L68.023,18.481z M66.602,20.052c1.296,1.174,2.04,2.856,2.04,4.61c0,1.754-0.744,3.429-2.04,4.61
				l-0.759-0.837c1.067-0.963,1.678-2.333,1.678-3.769c0-1.432-0.612-2.809-1.678-3.769L66.602,20.052z M64.337,22.565l0.755-0.837
				c0.827,0.748,1.299,1.814,1.299,2.931c0,1.113-0.472,2.183-1.299,2.928l-0.755-0.837C65.518,25.685,65.518,23.631,64.337,22.565z
				 M59.438,22.565c-1.185,1.066-1.185,3.121,0,4.187l-0.766,0.837c-0.82-0.744-1.296-1.814-1.296-2.928
				c0-1.117,0.476-2.183,1.296-2.931L59.438,22.565z M57.927,20.89c-1.066,0.959-1.675,2.337-1.675,3.769
				c0,1.435,0.608,2.806,1.675,3.769l-0.759,0.837c-1.296-1.177-2.044-2.856-2.044-4.61c0-1.754,0.748-3.432,2.044-4.61
				L57.927,20.89z M55.748,18.481l0.759,0.837c-1.51,1.364-2.376,3.31-2.376,5.343c0,2.029,0.866,3.976,2.373,5.343l-0.755,0.834
				c-1.746-1.575-2.752-3.826-2.752-6.177C53.003,22.307,54.001,20.056,55.748,18.481z M75.338,54.166
				c0,0.673-0.544,1.224-1.224,1.224h-3.597v1.84h-7.344v-1.84H26.373v1.84h-7.344v-1.84h-3.672c-0.673,0-1.224-0.548-1.224-1.224
				v-9.792c0-0.673,0.544-1.224,1.224-1.224h44.811l0.802-18.36c0-0.508,0.412-0.92,0.923-0.92c0.505,0,0.916,0.412,0.916,0.92
				l0.805,18.36h10.511c0.673,0,1.224,0.551,1.224,1.224L75.338,54.166L75.338,54.166z"/>
		</g>
		<g>
			<circle style="fill:#010002;" cx="68.356" cy="49.27" r="1.707"/>
		</g>
	</g>
</g>
<g>
</g>
<g>
</g>
<g>
</g>
<g>
</g>
<g>
</g>
<g>
</g>
<g>
</g>
<g>
</g>
<g>
</g>
<g>
</g>
<g>
</g>
<g>
</g>
<g>
</g>
<g>
</g>
<g>
</g>
</svg>
