<?xml version="1.0" encoding="iso-8859-1"?>
<!-- Generator: Adobe Illustrator 18.1.1, SVG Export Plug-In . SVG Version: 6.00 Build 0)  -->
<svg version="1.1" id="Capa_1" xmlns="http://www.w3.org/2000/svg" xmlns:xlink="http://www.w3.org/1999/xlink" x="0px" y="0px"
	 viewBox="0 0 93.05 93.05" style="enable-background:new 0 0 93.05 93.05;" xml:space="preserve">
<g>
	<g>
		<g>
			<path style="fill:#010002;" d="M84.06,66.08c3.45-6.345,5.411-13.614,5.411-21.344C89.471,20.027,69.444,0,44.736,0
				S0,20.027,0,44.736s20.027,44.736,44.736,44.736c7.73,0,14.999-1.961,21.348-5.411l26.967,8.99L84.06,66.08z M61.885,16.227
				c4.266,0,8.357,1.818,11.22,4.989l-1.521,1.374c-2.473-2.738-6.012-4.313-9.699-4.313c-3.686,0-7.226,1.571-9.699,4.313
				l-1.525-1.371C53.529,18.041,57.619,16.227,61.885,16.227z M70.253,23.789l-1.525,1.374c-1.743-1.936-4.241-3.042-6.843-3.042
				s-5.1,1.106-6.846,3.042l-1.521-1.378c2.137-2.362,5.182-3.715,8.367-3.715C65.071,20.074,68.116,21.427,70.253,23.789z
				 M27.586,16.227c4.266,0,8.357,1.818,11.223,4.989l-1.521,1.374c-2.477-2.738-6.016-4.313-9.702-4.313s-7.226,1.571-9.699,4.313
				l-1.521-1.371C19.229,18.041,23.32,16.227,27.586,16.227z M35.95,23.789l-1.517,1.374c-1.746-1.936-4.245-3.042-6.846-3.042
				s-5.1,1.106-6.846,3.042l-1.521-1.378c2.137-2.362,5.182-3.715,8.367-3.715C30.771,20.074,33.817,21.427,35.95,23.789z
				 M75.338,56.417c0,0.673-0.544,1.224-1.224,1.224h-3.597v1.84h-7.344v-1.84H26.373v1.84h-7.347v-1.84h-3.668
				c-0.673,0-1.224-0.548-1.224-1.224v-9.792c0-0.673,0.544-1.224,1.224-1.224h11.309V29.304c-0.895-0.365-1.532-1.238-1.532-2.265
				c0-1.349,1.102-2.448,2.452-2.448s2.452,1.095,2.452,2.448c0,1.027-0.637,1.9-1.532,2.265v16.098h32.46V29.304
				c-0.898-0.365-1.532-1.238-1.532-2.265c0-1.349,1.102-2.448,2.452-2.448c1.349,0,2.452,1.095,2.452,2.448
				c0,1.027-0.637,1.9-1.532,2.265v16.098h11.309c0.673,0,1.224,0.551,1.224,1.224V56.417L75.338,56.417z"/>
		</g>
		<g>
			<path style="fill:#010002;" d="M65.851,47.123H23.62c-0.483,0-0.88,0.397-0.88,0.88v7.04c0,0.487,0.397,0.88,0.88,0.88h42.23
				c0.483,0,0.873-0.394,0.873-0.88v-7.04C66.731,47.516,66.334,47.123,65.851,47.123z M27.586,52.631
				c-0.608,0-1.117-0.501-1.117-1.109c0-0.616,0.508-1.113,1.117-1.113c0.616,0,1.109,0.497,1.109,1.113
				C28.695,52.13,28.201,52.631,27.586,52.631z M32.489,52.631c-0.616,0-1.113-0.501-1.113-1.109c0-0.616,0.497-1.113,1.113-1.113
				c0.608,0,1.113,0.497,1.113,1.113C33.602,52.13,33.097,52.631,32.489,52.631z M37.381,52.631c-0.608,0-1.106-0.501-1.106-1.109
				c0-0.616,0.497-1.113,1.106-1.113c0.616,0,1.113,0.497,1.113,1.113C38.494,52.13,37.997,52.631,37.381,52.631z M42.281,52.631
				c-0.608,0-1.113-0.501-1.113-1.109c0-0.616,0.505-1.113,1.113-1.113c0.616,0,1.113,0.497,1.113,1.113
				C43.394,52.13,42.896,52.631,42.281,52.631z M47.191,52.631c-0.616,0-1.113-0.501-1.113-1.109c0-0.616,0.497-1.113,1.113-1.113
				c0.608,0,1.113,0.497,1.113,1.113C48.297,52.13,47.796,52.631,47.191,52.631z M52.083,52.631c-0.608,0-1.106-0.501-1.106-1.109
				c0-0.616,0.497-1.113,1.106-1.113c0.616,0,1.117,0.497,1.117,1.113C53.192,52.13,52.699,52.631,52.083,52.631z M56.982,52.631
				c-0.608,0-1.113-0.501-1.113-1.109c0-0.616,0.505-1.113,1.113-1.113c0.616,0,1.113,0.497,1.113,1.113
				C58.092,52.13,57.598,52.631,56.982,52.631z M61.885,52.631c-0.616,0-1.109-0.501-1.109-1.109c0-0.616,0.494-1.113,1.109-1.113
				c0.608,0,1.117,0.497,1.117,1.113C63.002,52.13,62.494,52.631,61.885,52.631z"/>
		</g>
	</g>
</g>
<g>
</g>
<g>
</g>
<g>
</g>
<g>
</g>
<g>
</g>
<g>
</g>
<g>
</g>
<g>
</g>
<g>
</g>
<g>
</g>
<g>
</g>
<g>
</g>
<g>
</g>
<g>
</g>
<g>
</g>
</svg>
