<?xml version="1.0" encoding="iso-8859-1"?>
<!-- Generator: Adobe Illustrator 18.1.1, SVG Export Plug-In . SVG Version: 6.00 Build 0)  -->
<svg version="1.1" id="Capa_1" xmlns="http://www.w3.org/2000/svg" xmlns:xlink="http://www.w3.org/1999/xlink" x="0px" y="0px"
	 viewBox="0 0 71.577 71.577" style="enable-background:new 0 0 71.577 71.577;" xml:space="preserve">
<g>
	<g>
		<g>
			<polygon style="fill:#010002;" points="25.052,57.523 17.894,64.681 53.683,64.681 46.525,57.523 			"/>
		</g>
		<g>
			<rect x="32.593" y="21.266" style="fill:#010002;" width="14.745" height="2.208"/>
		</g>
		<g>
			<path style="fill:#010002;" d="M0,6.896v46.525h71.577V6.896H0z M50.283,37.478c0,2.498-2.53,4.524-5.651,4.524
				c-3.117,0-5.647-2.022-5.647-4.524c0-2.491,2.53-4.52,5.647-4.52c0.984,0,1.897,0.222,2.706,0.576v-8.586H32.593v12.53
				c0,2.498-2.53,4.524-5.647,4.524c-3.121,0-5.651-2.022-5.651-4.524c0-2.491,2.53-4.52,5.651-4.52
				c0.981,0,1.893,0.222,2.702,0.576V18.313h20.639L50.283,37.478L50.283,37.478z"/>
		</g>
	</g>
</g>
<g>
</g>
<g>
</g>
<g>
</g>
<g>
</g>
<g>
</g>
<g>
</g>
<g>
</g>
<g>
</g>
<g>
</g>
<g>
</g>
<g>
</g>
<g>
</g>
<g>
</g>
<g>
</g>
<g>
</g>
</svg>
