<?xml version="1.0" encoding="iso-8859-1"?>
<!-- Generator: Adobe Illustrator 18.1.1, SVG Export Plug-In . SVG Version: 6.00 Build 0)  -->
<svg version="1.1" id="Capa_1" xmlns="http://www.w3.org/2000/svg" xmlns:xlink="http://www.w3.org/1999/xlink" x="0px" y="0px"
	 viewBox="0 0 71.577 71.577" style="enable-background:new 0 0 71.577 71.577;" xml:space="preserve">
<g>
	<g>
		<polygon style="fill:#010002;" points="25.052,57.523 17.894,64.681 53.683,64.681 46.525,57.523 		"/>
		<path style="fill:#010002;" d="M0,6.896v46.525h71.577V6.896H0z M42.549,24.247c-0.376,0-0.748,0-1.124,0
			c0,0.036-0.004,0.061-0.004,0.086c0,0.834,0,1.671,0,2.509c0.004,0.805-0.311,1.489-0.837,2.072
			c-0.319,0.351-0.68,0.662-1.027,0.988c-0.92,0.873-1.847,1.743-2.759,2.62c-0.247,0.236-0.369,0.551-0.422,0.891
			c-0.011,0.086-0.014,0.175-0.014,0.265c0,2.001,0,3.998-0.004,6.002c0,0.079,0.021,0.104,0.097,0.122
			c1.145,0.272,1.99,1.21,2.147,2.38c0.2,1.485-0.841,2.892-2.316,3.139c-1.521,0.254-2.938-0.719-3.25-2.23
			c-0.301-1.467,0.641-2.942,2.097-3.285c0.089-0.018,0.111-0.061,0.111-0.143c-0.004-0.598-0.004-1.192,0-1.786
			c0-0.404-0.14-0.755-0.379-1.074c-0.018-0.021-0.039-0.043-0.061-0.064c-1.228-1.163-2.466-2.316-3.679-3.493
			c-0.608-0.591-0.945-1.324-0.945-2.19c0-0.866,0-1.729,0.004-2.595c0-0.068-0.018-0.097-0.082-0.122
			c-0.698-0.286-1.131-1.009-1.041-1.732c0.1-0.795,0.687-1.392,1.464-1.496c1.034-0.136,1.958,0.709,1.9,1.746
			c-0.039,0.712-0.408,1.199-1.052,1.489c-0.054,0.021-0.075,0.05-0.075,0.107c0,0.905-0.004,1.811,0.004,2.716
			c0.004,0.458,0.172,0.859,0.512,1.177c1.117,1.059,2.237,2.115,3.353,3.174c0.021,0.018,0.043,0.039,0.075,0.072
			c0-5.758,0-11.499,0-17.246c-0.455,0-0.913,0-1.389,0c0.655-1.131,1.299-2.251,1.95-3.382c0.655,1.127,1.299,2.244,1.947,3.371
			c-0.469,0-0.923,0-1.385,0c0,4.345,0,8.682,0,13.031c0.025-0.021,0.039-0.032,0.057-0.05c1.149-1.088,2.301-2.169,3.446-3.264
			c0.236-0.229,0.358-0.53,0.415-0.855c0.014-0.082,0.025-0.168,0.025-0.254c0-0.87,0-1.739,0-2.613c0-0.021,0-0.043,0-0.075
			c-0.372,0-0.748,0-1.12,0c0-1.131,0-2.251,0-3.375c1.12,0,2.24,0,3.364,0C42.549,21.996,42.549,23.116,42.549,24.247z"/>
	</g>
</g>
<g>
</g>
<g>
</g>
<g>
</g>
<g>
</g>
<g>
</g>
<g>
</g>
<g>
</g>
<g>
</g>
<g>
</g>
<g>
</g>
<g>
</g>
<g>
</g>
<g>
</g>
<g>
</g>
<g>
</g>
</svg>
