<?xml version="1.0" encoding="iso-8859-1"?>
<!-- Generator: Adobe Illustrator 18.1.1, SVG Export Plug-In . SVG Version: 6.00 Build 0)  -->
<svg version="1.1" id="Capa_1" xmlns="http://www.w3.org/2000/svg" xmlns:xlink="http://www.w3.org/1999/xlink" x="0px" y="0px"
	 viewBox="0 0 71.577 71.577" style="enable-background:new 0 0 71.577 71.577;" xml:space="preserve">
<g>
	<g>
		<g>
			<path style="fill:#010002;" d="M0,6.896v46.525h71.577V6.896H0z M34.547,21.555l2.824,16.015
				c0.433,2.466-1.711,4.907-4.796,5.443c-3.081,0.544-5.93-1.009-6.367-3.482c-0.433-2.462,1.714-4.903,4.796-5.443
				c0.973-0.175,1.911-0.115,2.766,0.093l-2.906-16.477l2.91-0.519c2.86,2.108,10.193,0.859,11.653,9.144
				C44.138,21.416,37.961,23.377,34.547,21.555z"/>
		</g>
		<g>
			<polygon style="fill:#010002;" points="25.052,57.523 17.894,64.681 53.683,64.681 46.525,57.523 			"/>
		</g>
	</g>
</g>
<g>
</g>
<g>
</g>
<g>
</g>
<g>
</g>
<g>
</g>
<g>
</g>
<g>
</g>
<g>
</g>
<g>
</g>
<g>
</g>
<g>
</g>
<g>
</g>
<g>
</g>
<g>
</g>
<g>
</g>
</svg>
