<?xml version="1.0" encoding="iso-8859-1"?>
<!-- Generator: Adobe Illustrator 18.1.1, SVG Export Plug-In . SVG Version: 6.00 Build 0)  -->
<svg version="1.1" id="Capa_1" xmlns="http://www.w3.org/2000/svg" xmlns:xlink="http://www.w3.org/1999/xlink" x="0px" y="0px"
	 viewBox="0 0 71.577 71.577" style="enable-background:new 0 0 71.577 71.577;" xml:space="preserve">
<g>
	<g>
		<polygon style="fill:#010002;" points="25.052,57.523 17.894,64.681 53.683,64.681 46.525,57.523 		"/>
		<circle style="fill:#010002;" cx="23.86" cy="23.391" r="3.114"/>
		<circle style="fill:#010002;" cx="44.002" cy="33.212" r="4.427"/>
		<path style="fill:#010002;" d="M0,6.896v46.525h71.577V6.896H0z M27.997,28.012c-0.233,0.204-0.497,0.361-0.744,0.533l0.197,3.089
			l-2.573,0.687l-1.371-2.774c-0.304-0.021-0.616-0.029-0.913-0.086l-2.018,2.298l-2.308-1.335l0.977-2.899
			c-0.208-0.229-0.39-0.476-0.565-0.744l-3.056,0.197l-0.687-2.577l2.749-1.356c0.014-0.319,0.05-0.623,0.115-0.927L15.5,20.099
			l1.335-2.308l2.899,0.977c0.225-0.2,0.494-0.361,0.744-0.533l-0.197-3.089l2.573-0.687l1.371,2.774
			c0.304,0.021,0.616,0.032,0.913,0.089l2.018-2.298l2.308,1.335l-0.977,2.895c0.208,0.233,0.394,0.48,0.565,0.748l3.06-0.2
			l0.684,2.577l-2.745,1.356c-0.014,0.319-0.05,0.623-0.115,0.927l2.298,2.018l-1.338,2.308L27.997,28.012z M56.65,35.109
			l-4.273,0.852c-0.14,0.426-0.301,0.834-0.505,1.228l2.416,3.618l-2.684,2.684l-3.622-2.412c-0.387,0.2-0.809,0.322-1.22,0.462
			l-0.862,4.32h-3.794l-0.866-4.32c-0.408-0.147-0.83-0.265-1.217-0.462l-3.625,2.419l-2.684-2.684l2.416-3.622
			c-0.2-0.394-0.365-0.802-0.505-1.228l-4.273-0.855v-3.794l4.277-0.855c0.14-0.426,0.301-0.834,0.505-1.228l-2.416-3.625
			l2.684-2.684l3.625,2.416c0.383-0.193,0.809-0.319,1.217-0.462l0.866-4.316h3.794l0.862,4.316c0.412,0.143,0.83,0.268,1.22,0.462
			l3.622-2.416l2.681,2.684l-2.412,3.618c0.2,0.394,0.365,0.802,0.505,1.228l4.277,0.855L56.65,35.109z"/>
	</g>
</g>
<g>
</g>
<g>
</g>
<g>
</g>
<g>
</g>
<g>
</g>
<g>
</g>
<g>
</g>
<g>
</g>
<g>
</g>
<g>
</g>
<g>
</g>
<g>
</g>
<g>
</g>
<g>
</g>
<g>
</g>
</svg>
