<?xml version="1.0" encoding="iso-8859-1"?>
<!-- Generator: Adobe Illustrator 18.1.1, SVG Export Plug-In . SVG Version: 6.00 Build 0)  -->
<svg version="1.1" id="Capa_1" xmlns="http://www.w3.org/2000/svg" xmlns:xlink="http://www.w3.org/1999/xlink" x="0px" y="0px"
	 viewBox="0 0 71.577 71.577" style="enable-background:new 0 0 71.577 71.577;" xml:space="preserve">
<g>
	<g>
		<polygon style="fill:#010002;" points="25.052,57.523 17.894,64.681 53.683,64.681 46.525,57.523 		"/>
		<path style="fill:#010002;" d="M29.468,36.003c1.371-0.687,3.139-1.535,4.738-2.294l1.532-0.727l-0.723,1.535
			c-0.505,1.067-1.052,2.208-1.564,3.264c0.755,0.161,1.535,0.261,2.337,0.261c6.034,0,10.915-4.889,10.915-10.915
			c0-6.03-4.882-10.915-10.915-10.915c-6.03,0-10.915,4.885-10.915,10.915C24.873,30.792,26.691,34.021,29.468,36.003z
			 M35.789,23.484c2.011,0,3.643,1.632,3.643,3.64s-1.632,3.64-3.643,3.64c-2.011,0-3.64-1.632-3.64-3.64
			S33.777,23.484,35.789,23.484z"/>
		<path style="fill:#010002;" d="M27.539,37.782l3.4,3.4c0.029-0.029,0.068-0.036,0.097-0.064c0.347-0.354,3.429-6.861,3.429-6.861
			s-6.51,3.081-6.861,3.432C27.579,37.718,27.568,37.753,27.539,37.782z"/>
		<circle style="fill:#010002;" cx="35.789" cy="27.124" r="2.426"/>
		<polygon style="fill:#010002;" points="46.704,44.106 46.704,36.83 39.432,44.106 		"/>
		<polygon style="fill:#010002;" points="24.873,36.83 24.873,44.106 32.149,44.106 		"/>
		<path style="fill:#010002;" d="M0,6.896v46.525h71.577V6.896H0z M47.924,45.927H23.66V14.391h24.265V45.927z"/>
	</g>
</g>
<g>
</g>
<g>
</g>
<g>
</g>
<g>
</g>
<g>
</g>
<g>
</g>
<g>
</g>
<g>
</g>
<g>
</g>
<g>
</g>
<g>
</g>
<g>
</g>
<g>
</g>
<g>
</g>
<g>
</g>
</svg>
