<?xml version="1.0" encoding="iso-8859-1"?>
<!-- Generator: Adobe Illustrator 18.1.1, SVG Export Plug-In . SVG Version: 6.00 Build 0)  -->
<svg version="1.1" id="Capa_1" xmlns="http://www.w3.org/2000/svg" xmlns:xlink="http://www.w3.org/1999/xlink" x="0px" y="0px"
	 viewBox="0 0 71.577 71.577" style="enable-background:new 0 0 71.577 71.577;" xml:space="preserve">
<g>
	<g>
		<polygon style="fill:#010002;" points="25.052,57.521 17.894,64.679 53.683,64.679 46.525,57.521 		"/>
		<polygon style="fill:#010002;" points="21.695,25.029 18.918,25.029 18.918,27.809 21.695,27.809 22.522,26.417 		"/>
		<circle style="fill:#010002;" cx="43.433" cy="32.584" r="2.738"/>
		<circle style="fill:#010002;" cx="28.144" cy="32.584" r="2.738"/>
		<circle style="fill:#010002;" cx="44.811" cy="26.417" r="1.392"/>
		<polygon style="fill:#010002;" points="22.146,28.257 22.146,31.03 24.92,31.03 24.92,28.257 23.527,27.434 		"/>
		<polygon style="fill:#010002;" points="28.144,25.029 25.367,25.029 24.54,26.417 25.367,27.809 28.144,27.809 		"/>
		<circle style="fill:#010002;" cx="48.046" cy="29.645" r="1.389"/>
		<path style="fill:#010002;" d="M0,6.898v46.525h71.577V6.898H0z M51.074,42.332c-1.89,0.336-4.23-2.928-6.163-6.707
			c-0.455,0.222-0.945,0.372-1.482,0.372c-1.882,0-3.421-1.535-3.421-3.425c0-0.111,0.057-0.208,0.068-0.308
			c-1.353-0.125-2.788-0.229-4.284-0.229s-2.931,0.104-4.284,0.229c0.011,0.1,0.068,0.197,0.068,0.308
			c0,1.89-1.539,3.425-3.425,3.425c-0.537,0-1.027-0.154-1.482-0.372c-1.929,3.776-4.266,7.04-6.159,6.707
			c-3.722-0.659-4.309-14.985-3.65-18.71c0.659-3.726,4.205-6.206,7.931-5.554c1.764,0.308,3.235,1.281,4.245,2.609
			c2.004-0.329,4.287-0.419,6.76-0.419c2.473,0,4.756,0.089,6.76,0.419c1.006-1.324,2.477-2.305,4.248-2.609
			c3.726-0.659,7.272,1.829,7.934,5.554C55.383,27.348,54.796,41.681,51.074,42.332z"/>
		<polygon style="fill:#010002;" points="24.92,24.585 24.92,21.804 22.146,21.804 22.146,24.585 23.531,25.404 		"/>
		<circle style="fill:#010002;" cx="51.267" cy="26.417" r="1.392"/>
		<circle style="fill:#010002;" cx="48.046" cy="23.193" r="1.389"/>
	</g>
</g>
<g>
</g>
<g>
</g>
<g>
</g>
<g>
</g>
<g>
</g>
<g>
</g>
<g>
</g>
<g>
</g>
<g>
</g>
<g>
</g>
<g>
</g>
<g>
</g>
<g>
</g>
<g>
</g>
<g>
</g>
</svg>
