<?xml version="1.0" encoding="iso-8859-1"?>
<!-- Generator: Adobe Illustrator 18.1.1, SVG Export Plug-In . SVG Version: 6.00 Build 0)  -->
<svg version="1.1" id="Capa_1" xmlns="http://www.w3.org/2000/svg" xmlns:xlink="http://www.w3.org/1999/xlink" x="0px" y="0px"
	 viewBox="0 0 71.577 71.577" style="enable-background:new 0 0 71.577 71.577;" xml:space="preserve">
<g>
	<g>
		<polygon style="fill:#010002;" points="25.052,57.523 17.894,64.681 53.683,64.681 46.525,57.523 		"/>
		<circle style="fill:#010002;" cx="35.789" cy="30.159" r="2.072"/>
		<path style="fill:#010002;" d="M35.789,24.791c-2.963,0-5.368,2.405-5.368,5.368s2.405,5.368,5.368,5.368
			c2.963,0,5.368-2.405,5.368-5.368S38.752,24.791,35.789,24.791z M35.789,34.3c-2.287,0-4.144-1.857-4.144-4.144
			c0-2.287,1.857-4.144,4.144-4.144c2.287,0,4.144,1.857,4.144,4.144C39.933,32.442,38.075,34.3,35.789,34.3z"/>
		<path style="fill:#010002;" d="M0,6.896v46.525h71.577V6.896H0z M47.176,17.454h3.16v3.157h-3.16V17.454z M42.127,18.395h3.579
			v3.579h-3.579V18.395z M47.008,23.57v3.092H43.92V23.57H47.008z M35.789,43.97c-7.627,0-13.811-6.184-13.811-13.811
			s6.184-13.811,13.811-13.811c1.603,0,3.117,0.326,4.549,0.827v6.589h1.789v4.692h3.769v1.399h3.675c0,0.104,0.029,0.2,0.029,0.304
			C49.599,37.789,43.415,43.97,35.789,43.97z M49.614,28.062h-1.718v-1.714h1.718V28.062z M50.777,24.941h-2.745V22.2h2.745V24.941z
			 M54.105,25.36h-2.14v-2.144h2.144v2.144H54.105z M54.359,21.512h-2.656v-2.659h2.656V21.512z M56.539,23.295h-1.07v-1.074h1.07
			V23.295z M57.408,19.984h-1.739v-1.739h1.739V19.984z"/>
	</g>
</g>
<g>
</g>
<g>
</g>
<g>
</g>
<g>
</g>
<g>
</g>
<g>
</g>
<g>
</g>
<g>
</g>
<g>
</g>
<g>
</g>
<g>
</g>
<g>
</g>
<g>
</g>
<g>
</g>
<g>
</g>
</svg>
