<?xml version="1.0" encoding="iso-8859-1"?>
<!-- Generator: Adobe Illustrator 18.1.1, SVG Export Plug-In . SVG Version: 6.00 Build 0)  -->
<svg version="1.1" id="Capa_1" xmlns="http://www.w3.org/2000/svg" xmlns:xlink="http://www.w3.org/1999/xlink" x="0px" y="0px"
	 viewBox="0 0 71.577 71.577" style="enable-background:new 0 0 71.577 71.577;" xml:space="preserve">
<g>
	<g>
		<polygon style="fill:#010002;" points="25.052,57.523 17.894,64.681 53.683,64.681 46.525,57.523 		"/>
		<path style="fill:#010002;" d="M0,6.896v46.525h32.868V47.33c0-0.079,0.036-0.154,0.054-0.233h5.744
			c0.014,0.079,0.05,0.154,0.05,0.233v6.091h32.861V6.896H0z M40.409,18.334c0-1.367,1.106-2.469,2.466-2.469
			c1.371,0,2.466,1.106,2.466,2.469v9.86c0,1.364-1.106,1.092-2.466,1.092c-1.36,0-2.466,0.272-2.466-1.092V18.334z M26.233,18.334
			c0-1.367,1.113-2.469,2.473-2.469c1.356,0,2.462,1.106,2.462,2.469v9.86c0,1.364-1.109,1.117-2.462,1.117
			c-1.364,0-2.473,0.251-2.473-1.117V18.334z M49.041,41.54c0,2.845-2.391,5.179-5.297,5.179H27.84c-2.91,0-5.293-2.326-5.293-5.179
			V30.775c0-0.344,0.039-0.623,0.104-0.87c0.061,0.44,0.608,0.752,1.564,0.752h23.216c0.88,0,1.399-0.272,1.517-0.655
			c0.064,0.222,0.097,0.465,0.097,0.769V41.54H49.041z"/>
	</g>
</g>
<g>
</g>
<g>
</g>
<g>
</g>
<g>
</g>
<g>
</g>
<g>
</g>
<g>
</g>
<g>
</g>
<g>
</g>
<g>
</g>
<g>
</g>
<g>
</g>
<g>
</g>
<g>
</g>
<g>
</g>
</svg>
