<?xml version="1.0" encoding="iso-8859-1"?>
<!-- Generator: Adobe Illustrator 18.1.1, SVG Export Plug-In . SVG Version: 6.00 Build 0)  -->
<svg version="1.1" id="Capa_1" xmlns="http://www.w3.org/2000/svg" xmlns:xlink="http://www.w3.org/1999/xlink" x="0px" y="0px"
	 viewBox="0 0 71.577 71.577" style="enable-background:new 0 0 71.577 71.577;" xml:space="preserve">
<g>
	<g>
		<polygon style="fill:#010002;" points="25.052,57.523 17.894,64.681 53.683,64.681 46.525,57.523 		"/>
		<path style="fill:#010002;" d="M0,6.896v46.525h71.577V6.896H0z M52.559,44.875l-6.145-6.141l0.308-0.304l-1.052-1.052
			c-2.545,2.083-6.295,1.961-8.664-0.408c-2.53-2.53-2.53-6.642,0-9.169c2.53-2.53,6.639-2.53,9.169,0
			c2.369,2.369,2.487,6.12,0.412,8.664l1.049,1.052l0.308-0.304l6.138,6.138L52.559,44.875z M52.706,36.758
			c-0.365,0-1.342,0-2.677,0l-0.945-0.945c1.432-3.078,0.852-6.789-1.643-9.287c-3.121-3.124-8.575-3.124-11.703,0
			c-1.56,1.56-2.419,3.64-2.419,5.851c0,1.578,0.455,3.078,1.27,4.381c-5.859,0-11.191,0-12.508,0c-4.52,0-8.181-3.661-8.181-8.178
			s3.661-8.178,8.181-8.178c0.823,0,1.603,0.157,2.358,0.387c1.22-4.302,5.136-7.469,9.828-7.469c3.482,0,6.553,1.743,8.407,4.398
			c0.598-0.14,1.21-0.229,1.854-0.229c4.517,0,8.178,3.661,8.178,8.178c0,0.401-0.064,0.787-0.118,1.174
			c0.047,0,0.075-0.025,0.118-0.025c2.749,0,4.975,2.226,4.975,4.975C57.673,34.532,55.447,36.758,52.706,36.758z"/>
		<path style="fill:#010002;" d="M45.559,28.405c-2.19-2.19-5.755-2.19-7.952,0c-2.194,2.19-2.19,5.758,0,7.949
			c2.061,2.061,5.325,2.158,7.53,0.34l0.755-0.755C47.717,33.731,47.624,30.467,45.559,28.405z"/>
	</g>
</g>
<g>
</g>
<g>
</g>
<g>
</g>
<g>
</g>
<g>
</g>
<g>
</g>
<g>
</g>
<g>
</g>
<g>
</g>
<g>
</g>
<g>
</g>
<g>
</g>
<g>
</g>
<g>
</g>
<g>
</g>
</svg>
