<?xml version="1.0" encoding="iso-8859-1"?>
<!-- Generator: Adobe Illustrator 18.1.1, SVG Export Plug-In . SVG Version: 6.00 Build 0)  -->
<svg version="1.1" id="Capa_1" xmlns="http://www.w3.org/2000/svg" xmlns:xlink="http://www.w3.org/1999/xlink" x="0px" y="0px"
	 viewBox="0 0 71.577 71.577" style="enable-background:new 0 0 71.577 71.577;" xml:space="preserve">
<g>
	<g>
		<polygon style="fill:#010002;" points="25.052,57.523 17.894,64.681 53.683,64.681 46.525,57.523 		"/>
		<circle style="fill:#010002;" cx="35.789" cy="30.159" r="5.01"/>
		<path style="fill:#010002;" d="M0,6.896v46.525h71.577V6.896H0z M50.1,32.306l-4.835,0.966c-0.161,0.483-0.347,0.945-0.573,1.389
			l2.738,4.101l-3.038,3.035l-4.101-2.731c-0.437,0.222-0.913,0.365-1.378,0.523l-0.977,4.885h-4.295l-0.977-4.882
			c-0.465-0.161-0.945-0.301-1.378-0.523l-4.101,2.734l-3.038-3.038l2.734-4.101c-0.225-0.447-0.412-0.905-0.569-1.389l-4.839-0.973
			v-4.295l4.839-0.97c0.157-0.483,0.344-0.945,0.569-1.389l-2.734-4.101l3.035-3.035l4.101,2.734
			c0.437-0.222,0.913-0.361,1.378-0.523l0.977-4.885h4.298l0.973,4.885c0.465,0.161,0.941,0.301,1.378,0.523l4.101-2.734
			l3.038,3.038l-2.731,4.098c0.222,0.447,0.412,0.909,0.565,1.392l4.842,0.97v4.295H50.1z"/>
	</g>
</g>
<g>
</g>
<g>
</g>
<g>
</g>
<g>
</g>
<g>
</g>
<g>
</g>
<g>
</g>
<g>
</g>
<g>
</g>
<g>
</g>
<g>
</g>
<g>
</g>
<g>
</g>
<g>
</g>
<g>
</g>
</svg>
