<?xml version="1.0" encoding="iso-8859-1"?>
<!-- Generator: Adobe Illustrator 18.1.1, SVG Export Plug-In . SVG Version: 6.00 Build 0)  -->
<svg version="1.1" id="Capa_1" xmlns="http://www.w3.org/2000/svg" xmlns:xlink="http://www.w3.org/1999/xlink" x="0px" y="0px"
	 viewBox="0 0 96.257 96.257" style="enable-background:new 0 0 96.257 96.257;" xml:space="preserve">
<g>
	<g>
		<g>
			<polygon style="fill:#010002;" points="49.732,69.863 42.574,77.02 78.363,77.02 71.205,69.863 			"/>
		</g>
		<g>
			<path style="fill:#010002;" d="M24.68,19.236v20.206h5.74c2.96,0,5.368,2.409,5.368,5.368v5.637H32.21v-5.637
				c0-0.984-0.805-1.789-1.789-1.789H17.894c-0.984,0-1.789,0.805-1.789,1.789v1.678c0,0.984-0.805,1.789-1.789,1.789H1.789
				C0.805,48.279,0,49.084,0,50.068v18.005c0,0.981,0.805,1.789,1.789,1.789H30.42c0.984,0,1.789-0.809,1.789-1.789V56.51h3.579
				v9.251h60.468V19.236C96.257,19.236,24.68,19.236,24.68,19.236z M40.752,60.876l1.689-5.268H21.466
				c-1.181,0-2.137-0.959-2.137-2.137s0.959-2.14,2.137-2.14h20.976l-1.689-5.264l10.525,7.401L40.752,60.876z"/>
		</g>
	</g>
</g>
<g>
</g>
<g>
</g>
<g>
</g>
<g>
</g>
<g>
</g>
<g>
</g>
<g>
</g>
<g>
</g>
<g>
</g>
<g>
</g>
<g>
</g>
<g>
</g>
<g>
</g>
<g>
</g>
<g>
</g>
</svg>
