<?xml version="1.0" encoding="iso-8859-1"?>
<!-- Generator: Adobe Illustrator 18.1.1, SVG Export Plug-In . SVG Version: 6.00 Build 0)  -->
<svg version="1.1" id="Capa_1" xmlns="http://www.w3.org/2000/svg" xmlns:xlink="http://www.w3.org/1999/xlink" x="0px" y="0px"
	 viewBox="0 0 71.577 71.577" style="enable-background:new 0 0 71.577 71.577;" xml:space="preserve">
<g>
	<g>
		<polygon style="fill:#010002;" points="25.052,57.523 17.894,64.681 53.683,64.681 46.525,57.523 		"/>
		<path style="fill:#010002;" d="M37.335,19c-3.504-3.504-9.205-3.504-12.705,0c-3.504,3.504-3.504,9.205,0,12.708
			c3.296,3.296,8.514,3.45,12.039,0.544l1.21-1.21C40.785,27.514,40.634,22.293,37.335,19z"/>
		<path style="fill:#010002;" d="M0,6.896v46.525h71.577V6.896H0z M48.518,45.33l-9.82-9.817l0.494-0.49l-1.686-1.686
			c-4.069,3.321-10.064,3.135-13.854-0.655c-4.044-4.044-4.044-10.618,0-14.663s10.618-4.044,14.663,0
			c3.797,3.79,3.976,9.785,0.659,13.854l1.686,1.682l0.49-0.487l9.817,9.813L48.518,45.33z"/>
	</g>
</g>
<g>
</g>
<g>
</g>
<g>
</g>
<g>
</g>
<g>
</g>
<g>
</g>
<g>
</g>
<g>
</g>
<g>
</g>
<g>
</g>
<g>
</g>
<g>
</g>
<g>
</g>
<g>
</g>
<g>
</g>
</svg>
