<?xml version="1.0" encoding="iso-8859-1"?>
<!-- Generator: Adobe Illustrator 18.1.1, SVG Export Plug-In . SVG Version: 6.00 Build 0)  -->
<svg version="1.1" id="Capa_1" xmlns="http://www.w3.org/2000/svg" xmlns:xlink="http://www.w3.org/1999/xlink" x="0px" y="0px"
	 viewBox="0 0 86.848 86.848" style="enable-background:new 0 0 86.848 86.848;" xml:space="preserve">
<g>
	<g>
		<polygon style="fill:#010002;" points="46.521,65.159 25.048,65.159 17.891,72.316 53.679,72.316 		"/>
		<path style="fill:#010002;" d="M50.941,52.01c-0.179-0.251-0.361-0.523-0.526-0.82l-2.011-3.493l8.249-4.774l1.22,2.115
			c0.039-0.018,0.075-0.039,0.107-0.061c1.364-0.791,3.421-1.976,5.837-1.976c1.263,0,2.444,0.319,3.497,0.934
			c0.082-0.043,0.168-0.079,0.251-0.125c0.594-1.482,1.546-2.795,2.777-3.833c0.379-0.326,0.809-0.576,1.235-0.827V14.532H0v46.525
			h49.678C48.54,57.908,49.123,54.547,50.941,52.01z"/>
		<path style="fill:#010002;" d="M81.04,43.786c-2.047-2.437-5.672-2.759-8.113-0.705c-1.149,0.966-1.814,2.294-1.993,3.675
			c-1.342,0.512-2.774,1.253-4.259,2.079c-1.947-3.056-4.67-1.521-6.675-0.361c-2.562,1.478-3.711,1.886-4.824-0.036l-1.267,0.734
			c1.95,3.382,4.771,1.761,6.828,0.573c2.448-1.417,3.607-1.832,4.67-0.197c-1.618,0.952-3.099,1.893-4.309,2.888
			c-1.288-0.54-2.77-0.637-4.184-0.118c-2.988,1.092-4.527,4.388-3.439,7.38c1.084,2.985,7.533,13.181,10.518,12.089
			c1.521-0.544,1.854-3.912,1.668-7.473c0.422-0.029,0.841-0.122,1.235-0.351c1.374-0.798,1.85-2.559,1.056-3.937
			c-0.047-0.079-0.125-0.125-0.179-0.197c0.934-0.659,1.936-1.342,3.024-1.968c1.088-0.633,2.18-1.156,3.214-1.639
			c0.036,0.082,0.036,0.172,0.079,0.251c0.795,1.381,2.559,1.85,3.933,1.056c0.39-0.222,0.684-0.544,0.923-0.895
			c2.996,1.936,6.063,3.335,7.301,2.298C88.68,56.899,83.079,46.209,81.04,43.786z M56.553,56.151l2.018-1.16l1.17,2.018
			l-0.669,1.181l-1.356-0.018L56.553,56.151z M56.732,61.873l-1.17-2.022l2.015-1.163l1.192,0.669l-0.021,1.36L56.732,61.873z
			 M62.451,61.698l-2.015,1.167l-1.167-2.022l0.662-1.177l1.356,0.014L62.451,61.698z M60.239,58.502l0.014-1.36l2.022-1.167
			l1.17,2.026l-2.022,1.16L60.239,58.502z M66.606,63.469c-1.099,0.637-2.509,0.254-3.142-0.841
			c-0.633-1.102-0.258-2.505,0.837-3.142c1.106-0.637,2.509-0.258,3.146,0.837C68.08,61.419,67.705,62.829,66.606,63.469z
			 M77.733,57.045c-1.106,0.63-2.505,0.251-3.146-0.845c-0.637-1.102-0.254-2.505,0.841-3.139c1.099-0.637,2.505-0.258,3.139,0.834
			C79.207,54.995,78.835,56.408,77.733,57.045z M75.582,50.993c-0.555,0.322-1.267,0.122-1.589-0.433
			c-0.326-0.558-0.132-1.267,0.422-1.596c0.562-0.322,1.274-0.129,1.6,0.429C76.333,49.952,76.147,50.668,75.582,50.993z
			 M79.289,51.985c-0.562,0.322-1.27,0.129-1.596-0.426c-0.322-0.555-0.132-1.267,0.429-1.596c0.558-0.326,1.27-0.125,1.593,0.429
			C80.037,50.951,79.851,51.659,79.289,51.985z M76.58,47.282c-0.558,0.329-1.274,0.136-1.593-0.419
			c-0.322-0.562-0.136-1.274,0.426-1.596c0.558-0.326,1.267-0.132,1.596,0.426C77.328,46.248,77.142,46.957,76.58,47.282z
			 M80.284,48.277c-0.555,0.322-1.27,0.132-1.593-0.426c-0.322-0.558-0.132-1.274,0.426-1.596c0.558-0.322,1.27-0.132,1.6,0.426
			C81.036,47.236,80.835,47.959,80.284,48.277z"/>
	</g>
</g>
<g>
</g>
<g>
</g>
<g>
</g>
<g>
</g>
<g>
</g>
<g>
</g>
<g>
</g>
<g>
</g>
<g>
</g>
<g>
</g>
<g>
</g>
<g>
</g>
<g>
</g>
<g>
</g>
<g>
</g>
</svg>
