<?xml version="1.0" encoding="iso-8859-1"?>
<!-- Generator: Adobe Illustrator 18.1.1, SVG Export Plug-In . SVG Version: 6.00 Build 0)  -->
<svg version="1.1" id="Capa_1" xmlns="http://www.w3.org/2000/svg" xmlns:xlink="http://www.w3.org/1999/xlink" x="0px" y="0px"
	 viewBox="0 0 71.577 71.577" style="enable-background:new 0 0 71.577 71.577;" xml:space="preserve">
<g>
	<g>
		<polygon style="fill:#010002;" points="25.052,57.523 17.894,64.681 53.683,64.681 46.525,57.523 		"/>
		<path style="fill:#010002;" d="M0,6.896v46.525h71.577V6.896H0z M45.559,30.875c1.754,5.164,1.435,6.456-1.056,8.375
			c-2.734,2.104-5.293,0.555-8.722,3.507c-3.421-2.953-5.987-1.406-8.722-3.507c-2.491-1.918-2.802-3.207-1.056-8.375
			c1.84-5.404-0.809-9.516-1.292-10.221c1.188-0.812,2.978-2.913,2.978-2.913s1.653,1.034,3.901,1.034
			c2.24,0,4.191-1.217,4.191-1.217s1.95,1.217,4.191,1.217c2.251,0,3.901-1.034,3.901-1.034s1.786,2.101,2.978,2.913
			C46.368,21.359,43.726,25.471,45.559,30.875z"/>
	</g>
</g>
<g>
</g>
<g>
</g>
<g>
</g>
<g>
</g>
<g>
</g>
<g>
</g>
<g>
</g>
<g>
</g>
<g>
</g>
<g>
</g>
<g>
</g>
<g>
</g>
<g>
</g>
<g>
</g>
<g>
</g>
</svg>
