<?xml version="1.0" encoding="iso-8859-1"?>
<!-- Generator: Adobe Illustrator 18.1.1, SVG Export Plug-In . SVG Version: 6.00 Build 0)  -->
<svg version="1.1" id="Capa_1" xmlns="http://www.w3.org/2000/svg" xmlns:xlink="http://www.w3.org/1999/xlink" x="0px" y="0px"
	 viewBox="0 0 71.577 71.577" style="enable-background:new 0 0 71.577 71.577;" xml:space="preserve">
<g>
	<g>
		<polygon style="fill:#010002;" points="25.052,57.523 17.894,64.681 53.683,64.681 46.525,57.523 		"/>
		<path style="fill:#010002;" d="M35.789,24.791c-2.963,0-5.368,2.405-5.368,5.368s2.405,5.368,5.368,5.368
			c2.963,0,5.368-2.405,5.368-5.368S38.752,24.791,35.789,24.791z M35.789,34.3c-2.287,0-4.144-1.857-4.144-4.144
			c0-2.287,1.857-4.144,4.144-4.144c2.287,0,4.144,1.857,4.144,4.144C39.933,32.442,38.075,34.3,35.789,34.3z"/>
		<circle style="fill:#010002;" cx="35.789" cy="30.159" r="2.072"/>
		<path style="fill:#010002;" d="M0,6.896v46.525h71.577V6.896H0z M35.789,43.97c-7.627,0-13.811-6.184-13.811-13.811
			s6.184-13.811,13.811-13.811s13.811,6.184,13.811,13.811C49.599,37.789,43.415,43.97,35.789,43.97z"/>
	</g>
</g>
<g>
</g>
<g>
</g>
<g>
</g>
<g>
</g>
<g>
</g>
<g>
</g>
<g>
</g>
<g>
</g>
<g>
</g>
<g>
</g>
<g>
</g>
<g>
</g>
<g>
</g>
<g>
</g>
<g>
</g>
</svg>
