<?xml version="1.0" encoding="iso-8859-1"?>
<!-- Generator: Adobe Illustrator 18.1.1, SVG Export Plug-In . SVG Version: 6.00 Build 0)  -->
<svg version="1.1" id="Capa_1" xmlns="http://www.w3.org/2000/svg" xmlns:xlink="http://www.w3.org/1999/xlink" x="0px" y="0px"
	 viewBox="0 0 71.577 71.577" style="enable-background:new 0 0 71.577 71.577;" xml:space="preserve">
<g>
	<g>
		<polygon style="fill:#010002;" points="25.052,57.523 17.894,64.681 53.683,64.681 46.525,57.523 		"/>
		<path style="fill:#010002;" d="M0,6.896v46.525h71.577V6.896H0z M36.286,32.528v13.428l-11.853-11.85h-4.738v-7.902h4.738
			l11.853-11.853v13.428c1.306,0,2.369,1.059,2.369,2.373C38.655,31.465,37.592,32.528,36.286,32.528z M38.838,33.276
			c1.718-1.721,1.721-4.52,0.007-6.242l2.076-2.079c2.867,2.863,2.867,7.53,0,10.397L38.838,33.276z M41.962,36.397
			c3.439-3.439,3.439-9.037,0-12.479l2.076-2.079c4.588,4.585,4.588,12.05,0,16.634L41.962,36.397z M47.155,41.593l-2.076-2.079
			c5.157-5.161,5.157-13.56,0-18.717l2.076-2.079C53.461,25.027,53.461,35.287,47.155,41.593z"/>
	</g>
</g>
<g>
</g>
<g>
</g>
<g>
</g>
<g>
</g>
<g>
</g>
<g>
</g>
<g>
</g>
<g>
</g>
<g>
</g>
<g>
</g>
<g>
</g>
<g>
</g>
<g>
</g>
<g>
</g>
<g>
</g>
</svg>
