<?xml version="1.0" encoding="iso-8859-1"?>
<!-- Generator: Adobe Illustrator 18.1.1, SVG Export Plug-In . SVG Version: 6.00 Build 0)  -->
<svg version="1.1" id="Capa_1" xmlns="http://www.w3.org/2000/svg" xmlns:xlink="http://www.w3.org/1999/xlink" x="0px" y="0px"
	 viewBox="0 0 71.577 71.577" style="enable-background:new 0 0 71.577 71.577;" xml:space="preserve">
<g>
	<g>
		<polygon style="fill:#010002;" points="25.052,57.523 17.894,64.681 53.683,64.681 46.525,57.523 		"/>
		<path style="fill:#010002;" d="M0,6.896v46.525h71.577V6.896H0z M43.444,41.919c-3.908-4.327-11.409-4.327-15.307,0l-3.06-2.766
			c2.734-3.028,6.639-4.76,10.715-4.76s7.981,1.732,10.715,4.76L43.444,41.919z M49.567,36.39c-3.511-3.89-8.543-6.123-13.782-6.123
			c-5.236,0-10.264,2.233-13.782,6.123l-3.06-2.766c4.298-4.756,10.436-7.483,16.842-7.483c6.403,0,12.544,2.727,16.838,7.483
			L49.567,36.39z M55.311,31.204c-4.985-5.515-12.1-8.679-19.526-8.682c-7.426,0-14.541,3.164-19.523,8.679l-3.056-2.763
			c5.758-6.381,13.993-10.039,22.586-10.039s16.821,3.661,22.586,10.039L55.311,31.204z"/>
	</g>
</g>
<g>
</g>
<g>
</g>
<g>
</g>
<g>
</g>
<g>
</g>
<g>
</g>
<g>
</g>
<g>
</g>
<g>
</g>
<g>
</g>
<g>
</g>
<g>
</g>
<g>
</g>
<g>
</g>
<g>
</g>
</svg>
