<?xml version="1.0" encoding="iso-8859-1"?>
<!-- Generator: Adobe Illustrator 18.1.1, SVG Export Plug-In . SVG Version: 6.00 Build 0)  -->
<svg version="1.1" id="Capa_1" xmlns="http://www.w3.org/2000/svg" xmlns:xlink="http://www.w3.org/1999/xlink" x="0px" y="0px"
	 viewBox="0 0 41.157 41.157" style="enable-background:new 0 0 41.157 41.157;" xml:space="preserve">
<g>
	<g>
		<g>
			<polygon style="fill:#010002;" points="14.405,33.074 10.289,37.193 30.868,37.193 26.752,33.074 			"/>
		</g>
		<g>
			<rect x="0" y="3.964" style="fill:#010002;" width="41.157" height="26.752"/>
		</g>
	</g>
	<g>
		<g>
			<polygon style="fill:#010002;" points="14.405,33.074 10.289,37.193 30.868,37.193 26.752,33.074 			"/>
		</g>
		<g>
			<rect x="0" y="3.964" style="fill:#010002;" width="41.157" height="26.752"/>
		</g>
	</g>
	<g>
		<g>
			<path style="fill:#010002;" d="M5.705,11.2c-0.616,0-1.113-0.497-1.113-1.113V9.192c0-0.612,0.497-1.113,1.113-1.113
				s1.113,0.497,1.113,1.113v0.895C6.814,10.703,6.32,11.2,5.705,11.2z"/>
		</g>
		<g>
			<path style="fill:#010002;" d="M5.705,28.364c-0.616,0-1.113-0.501-1.113-1.117V25.34c0-0.612,0.497-1.113,1.113-1.113
				s1.113,0.497,1.113,1.113v1.908C6.814,27.863,6.32,28.364,5.705,28.364z M5.705,22.642c-0.616,0-1.113-0.497-1.113-1.113v-1.908
				c0-0.612,0.497-1.113,1.113-1.113s1.113,0.497,1.113,1.113v1.908C6.814,22.144,6.32,22.642,5.705,22.642z M5.705,16.923
				c-0.616,0-1.113-0.497-1.113-1.117v-1.904c0-0.616,0.497-1.117,1.113-1.117s1.113,0.497,1.113,1.117v1.904
				C6.814,16.425,6.32,16.923,5.705,16.923z"/>
		</g>
		<g>
			<path style="fill:#010002;" d="M6.599,33.07H4.592v-2.008c0-0.612,0.497-1.117,1.113-1.117c0.544,0,0.998,0.394,1.099,0.913
				c0.519,0.093,0.909,0.548,0.909,1.099C7.709,32.573,7.215,33.07,6.599,33.07z"/>
		</g>
		<g>
			<path style="fill:#010002;" d="M31.272,33.07h-1.65c-0.616,0-1.113-0.497-1.113-1.113s0.497-1.117,1.113-1.117h1.65
				c0.616,0,1.113,0.501,1.113,1.117S31.88,33.07,31.272,33.07z M26.337,33.07h-1.65c-0.616,0-1.113-0.497-1.113-1.113
				s0.497-1.117,1.113-1.117h1.65c0.616,0,1.113,0.501,1.113,1.117S26.952,33.07,26.337,33.07z M21.402,33.07h-1.646
				c-0.616,0-1.113-0.497-1.113-1.113s0.497-1.117,1.113-1.117h1.646c0.616,0,1.113,0.501,1.113,1.117S22.017,33.07,21.402,33.07z
				 M16.466,33.07h-1.643c-0.616,0-1.117-0.497-1.117-1.113s0.501-1.117,1.117-1.117h1.643c0.619,0,1.117,0.501,1.117,1.117
				S17.082,33.07,16.466,33.07z M11.535,33.07H9.888c-0.616,0-1.117-0.497-1.117-1.113s0.501-1.117,1.117-1.117h1.646
				c0.616,0,1.113,0.501,1.113,1.117S12.15,33.07,11.535,33.07z"/>
		</g>
		<g>
			<path style="fill:#010002;" d="M35.452,33.07h-0.895c-0.616,0-1.117-0.497-1.117-1.113s0.501-1.117,1.117-1.117h0.895
				c0.616,0,1.113,0.501,1.113,1.117S36.068,33.07,35.452,33.07z"/>
		</g>
	</g>
</g>
<g>
</g>
<g>
</g>
<g>
</g>
<g>
</g>
<g>
</g>
<g>
</g>
<g>
</g>
<g>
</g>
<g>
</g>
<g>
</g>
<g>
</g>
<g>
</g>
<g>
</g>
<g>
</g>
<g>
</g>
</svg>
