<?xml version="1.0" encoding="iso-8859-1"?>
<!-- Generator: Adobe Illustrator 18.1.1, SVG Export Plug-In . SVG Version: 6.00 Build 0)  -->
<svg version="1.1" id="Capa_1" xmlns="http://www.w3.org/2000/svg" xmlns:xlink="http://www.w3.org/1999/xlink" x="0px" y="0px"
	 viewBox="0 0 83.208 83.208" style="enable-background:new 0 0 83.208 83.208;" xml:space="preserve">
<g>
	<g>
		<g>
			<polygon style="fill:#010002;" points="25.052,69.154 17.894,76.312 53.683,76.312 46.525,69.154 			"/>
		</g>
		<g>
			<path style="fill:#010002;" d="M64.419,6.896c-7.831,0-14.537,4.814-17.357,11.631H0v46.525h71.577v-22.01
				c6.814-2.82,11.631-9.53,11.631-17.357C83.208,15.325,74.78,6.896,64.419,6.896z M64.419,42.685c-9.373,0-17-7.627-17-17
				s7.627-17,17-17s17,7.627,17,17S73.792,42.685,64.419,42.685z"/>
		</g>
		<g>
			<polygon style="fill:#010002;" points="78.785,22.536 67.558,22.532 67.558,11.313 61.277,11.316 61.281,22.543 50.047,22.54 
				50.047,28.82 61.274,28.813 61.274,40.047 67.565,40.051 67.562,28.824 78.792,28.828 			"/>
		</g>
	</g>
</g>
<g>
</g>
<g>
</g>
<g>
</g>
<g>
</g>
<g>
</g>
<g>
</g>
<g>
</g>
<g>
</g>
<g>
</g>
<g>
</g>
<g>
</g>
<g>
</g>
<g>
</g>
<g>
</g>
<g>
</g>
</svg>
