<?xml version="1.0" encoding="iso-8859-1"?>
<!-- Generator: Adobe Illustrator 18.1.1, SVG Export Plug-In . SVG Version: 6.00 Build 0)  -->
<svg version="1.1" id="Capa_1" xmlns="http://www.w3.org/2000/svg" xmlns:xlink="http://www.w3.org/1999/xlink" x="0px" y="0px"
	 viewBox="0 0 71.577 71.577" style="enable-background:new 0 0 71.577 71.577;" xml:space="preserve">
<g>
	<g>
		<polygon style="fill:#010002;" points="25.052,57.523 17.894,64.681 53.683,64.681 46.525,57.523 		"/>
		<path style="fill:#010002;" d="M33.999,31.948v-1.789V19.573c-5.071,0.855-8.947,5.279-8.947,10.586
			c0,5.919,4.817,10.737,10.737,10.737c5.311,0,9.734-3.876,10.586-8.947H35.789H33.999z"/>
		<path style="fill:#010002;" d="M0,6.896v46.525h71.577V6.896H0z M35.789,42.685c-6.921,0-12.526-5.608-12.526-12.526
			s5.604-12.526,12.526-12.526v12.526h12.526C48.314,37.073,42.71,42.685,35.789,42.685z M37.614,28.334V17.629
			c5.701,0.437,10.268,5,10.701,10.704H37.614z"/>
	</g>
</g>
<g>
</g>
<g>
</g>
<g>
</g>
<g>
</g>
<g>
</g>
<g>
</g>
<g>
</g>
<g>
</g>
<g>
</g>
<g>
</g>
<g>
</g>
<g>
</g>
<g>
</g>
<g>
</g>
<g>
</g>
</svg>
