<?xml version="1.0" encoding="iso-8859-1"?>
<!-- Generator: Adobe Illustrator 18.1.1, SVG Export Plug-In . SVG Version: 6.00 Build 0)  -->
<svg version="1.1" id="Capa_1" xmlns="http://www.w3.org/2000/svg" xmlns:xlink="http://www.w3.org/1999/xlink" x="0px" y="0px"
	 viewBox="0 0 93.05 93.05" style="enable-background:new 0 0 93.05 93.05;" xml:space="preserve">
<g>
	<g>
		<g>
			<polygon style="fill:#010002;" points="61.932,66.706 61.932,55.25 50.469,66.706 			"/>
		</g>
		<g>
			<circle style="fill:#010002;" cx="44.736" cy="39.961" r="3.822"/>
		</g>
		<g>
			<path style="fill:#010002;" d="M34.783,53.94c2.162-1.084,4.95-2.419,7.465-3.615l2.412-1.142L43.519,51.6
				c-0.795,1.678-1.653,3.482-2.462,5.139c1.195,0.254,2.419,0.415,3.683,0.415c9.498,0,17.196-7.698,17.196-17.193
				c0-9.498-7.695-17.196-17.196-17.196S27.543,30.46,27.543,39.961C27.539,45.738,30.413,50.82,34.783,53.94z M44.736,34.228
				c3.167,0,5.733,2.566,5.733,5.737c0,3.16-2.566,5.726-5.733,5.726c-3.167,0-5.733-2.562-5.733-5.726
				C39.002,36.794,41.568,34.228,44.736,34.228z"/>
		</g>
		<g>
			<path style="fill:#010002;" d="M84.06,66.08c3.45-6.345,5.411-13.614,5.411-21.344C89.471,20.027,69.444,0,44.736,0
				S0,20.027,0,44.736s20.027,44.736,44.736,44.736c7.73,0,14.999-1.961,21.348-5.411l26.967,8.99L84.06,66.08z M63.843,69.569
				H25.628V19.902h38.215V69.569z"/>
		</g>
		<g>
			<path style="fill:#010002;" d="M31.744,56.743l5.35,5.361c0.047-0.054,0.104-0.064,0.154-0.104
				c0.551-0.551,5.4-10.808,5.4-10.808s-10.253,4.853-10.812,5.404C31.805,56.642,31.791,56.696,31.744,56.743z"/>
		</g>
		<g>
			<polygon style="fill:#010002;" points="27.539,55.25 27.539,66.706 39.002,66.706 			"/>
		</g>
	</g>
</g>
<g>
</g>
<g>
</g>
<g>
</g>
<g>
</g>
<g>
</g>
<g>
</g>
<g>
</g>
<g>
</g>
<g>
</g>
<g>
</g>
<g>
</g>
<g>
</g>
<g>
</g>
<g>
</g>
<g>
</g>
</svg>
