<?xml version="1.0" encoding="iso-8859-1"?>
<!-- Generator: Adobe Illustrator 18.1.1, SVG Export Plug-In . SVG Version: 6.00 Build 0)  -->
<svg version="1.1" id="Capa_1" xmlns="http://www.w3.org/2000/svg" xmlns:xlink="http://www.w3.org/1999/xlink" x="0px" y="0px"
	 viewBox="0 0 412.443 412.443" style="enable-background:new 0 0 412.443 412.443;" xml:space="preserve">
<g>
	<g>
		<g>
			<g>
				<path style="fill:#010002;" d="M198.29,255.177c41.387,0,75.097-33.694,75.097-75.113s-33.71-75.113-75.097-75.113
					c-41.403,0-75.097,33.694-75.097,75.113S156.887,255.177,198.29,255.177z M198.29,111.772c37.723,0,68.292,30.568,68.292,68.292
					c0,37.707-30.568,68.259-68.292,68.259s-68.292-30.552-68.292-68.259C129.999,142.34,160.567,111.772,198.29,111.772z"/>
			</g>
			<g>
				<path style="fill:#010002;" d="M198.29,197.134c9.407,0,17.068-7.631,17.068-17.068c0-9.439-7.661-17.068-17.068-17.068v17.068
					h-17.068C181.223,189.486,188.884,197.134,198.29,197.134z"/>
			</g>
			<g>
				<path style="fill:#010002;" d="M372.597,292.9c15.292-28.126,23.986-60.343,23.986-94.607C396.581,88.77,307.811,0,198.29,0
					S0,88.77,0,198.29s88.77,198.29,198.29,198.29c34.264,0,66.484-8.694,94.623-23.986l119.529,39.849L372.597,292.9z
					 M198.29,98.131c45.177,0,81.935,36.755,81.935,81.949s-36.755,81.949-81.935,81.949s-81.935-36.755-81.935-81.949
					S153.113,98.131,198.29,98.131z M198.29,291.806c-50.904,0-92.181,15.768-92.181-1.237c0-9.85,13.832-28.443,35.311-42.417
					c15.419,12.882,35.233,20.702,56.87,20.702s41.452-7.79,56.87-20.702c21.479,13.977,35.311,32.567,35.311,42.417
					C290.471,307.574,249.197,291.806,198.29,291.806z"/>
			</g>
			<g>
				<path style="fill:#010002;" d="M198.29,209.935c16.465,0,29.872-13.388,29.872-29.872s-13.404-29.872-29.872-29.872
					s-29.869,13.407-29.869,29.872S181.825,209.935,198.29,209.935z M198.29,155.316c13.659,0,24.763,11.104,24.763,24.763
					s-11.104,24.747-24.763,24.747s-24.747-11.104-24.747-24.747C173.543,166.436,184.634,155.316,198.29,155.316z"/>
			</g>
		</g>
	</g>
</g>
<g>
</g>
<g>
</g>
<g>
</g>
<g>
</g>
<g>
</g>
<g>
</g>
<g>
</g>
<g>
</g>
<g>
</g>
<g>
</g>
<g>
</g>
<g>
</g>
<g>
</g>
<g>
</g>
<g>
</g>
</svg>
