<?xml version="1.0" encoding="iso-8859-1"?>
<!-- Generator: Adobe Illustrator 18.1.1, SVG Export Plug-In . SVG Version: 6.00 Build 0)  -->
<svg version="1.1" id="Capa_1" xmlns="http://www.w3.org/2000/svg" xmlns:xlink="http://www.w3.org/1999/xlink" x="0px" y="0px"
	 viewBox="0 0 93.05 93.05" style="enable-background:new 0 0 93.05 93.05;" xml:space="preserve">
<g>
	<g>
		<g>
			<path style="fill:#010002;" d="M25.936,43.515h19.49c0.759,0,1.378-0.616,1.378-1.378s-0.619-1.381-1.378-1.381h-19.49
				c-0.759,0-1.378,0.616-1.378,1.381C24.554,42.9,25.174,43.515,25.936,43.515z"/>
		</g>
		<g>
			<circle style="fill:#010002;" cx="61.07" cy="44.736" r="1.113"/>
		</g>
		<g>
			<path style="fill:#010002;" d="M61.077,55.637c6.02,0,10.898-4.882,10.898-10.901c0-6.023-4.878-10.901-10.898-10.901
				c-6.027,0-10.905,4.882-10.905,10.901C50.175,50.755,55.053,55.637,61.077,55.637z M57.537,44.875
				c-1.467-0.336-3.164-1.088-5.268-2.659c1.02-0.787,1.628-1.7,2.237-3.063c1.217,1.678,2.391,2.87,3.55,3.718
				c0.293-0.458,0.673-0.845,1.131-1.138c-0.444-1.428-0.644-3.257-0.336-5.884c1.482,0,2.963,0,4.445,0
				c-1.364,2.208-1.929,3.901-2.104,5.347c0.555,0.014,1.07,0.165,1.525,0.404c0.998-1.106,2.333-2.197,4.166-3.25
				c0.662,1.149,1.768,2.294,2.999,3.862c-2.58-0.072-4.341,0.279-5.683,0.852c0.243,0.458,0.39,0.973,0.419,1.528
				c1.464,0.336,3.153,1.088,5.264,2.659c-1.024,0.787-1.628,1.707-2.237,3.06c-1.217-1.678-2.391-2.87-3.55-3.718
				c-0.286,0.458-0.673,0.845-1.131,1.138c0.444,1.424,0.644,3.257,0.336,5.887c-1.482,0-2.963,0-4.445,0
				c1.364-2.208,1.929-3.901,2.104-5.35c-0.555-0.018-1.07-0.165-1.525-0.408c-0.995,1.109-2.333,2.197-4.166,3.246
				c-0.666-1.149-1.764-2.294-2.999-3.862c2.58,0.075,4.341-0.276,5.683-0.852C57.705,45.942,57.559,45.43,57.537,44.875z"/>
		</g>
		<g>
			<path style="fill:#010002;" d="M25.936,49.034h19.49c0.759,0,1.378-0.616,1.378-1.378c0-0.762-0.619-1.381-1.378-1.381h-19.49
				c-0.759,0-1.378,0.616-1.378,1.381C24.554,48.411,25.174,49.034,25.936,49.034z"/>
		</g>
		<g>
			<path style="fill:#010002;" d="M84.06,66.08c3.45-6.345,5.411-13.614,5.411-21.344C89.471,20.027,69.444,0,44.736,0
				S0,20.027,0,44.736s20.027,44.736,44.736,44.736c7.73,0,14.999-1.961,21.348-5.411l26.967,8.99L84.06,66.08z M52.412,62.458
				h-25.37c-0.555,0-0.988-1.814-1.07-2.834H53.49C53.404,60.636,52.963,62.458,52.412,62.458z M68.964,62.458H57.383
				c-0.551,0-0.991-1.814-1.077-2.834h13.728C69.956,60.636,69.512,62.458,68.964,62.458z M75.582,58.679H21.43v2.759
				c0,0.558-0.451,1.013-1.013,1.013c-0.558,0-1.013-0.455-1.013-1.013v-7.483h-4.502v-1.578h4.502v-1.968h-4.502V39.375h4.502
				v-1.972h-4.502v-1.578h4.502v-6.786h-4.502c-0.558,0-1.013-0.451-1.013-1.013c0-0.558,0.455-1.013,1.013-1.013h5.519
				c0.562,0,1.013,0.455,1.013,1.013V31.1h54.152L75.582,58.679L75.582,58.679z"/>
		</g>
	</g>
</g>
<g>
</g>
<g>
</g>
<g>
</g>
<g>
</g>
<g>
</g>
<g>
</g>
<g>
</g>
<g>
</g>
<g>
</g>
<g>
</g>
<g>
</g>
<g>
</g>
<g>
</g>
<g>
</g>
<g>
</g>
</svg>
