<?xml version="1.0" encoding="iso-8859-1"?>
<!-- Generator: Adobe Illustrator 18.1.1, SVG Export Plug-In . SVG Version: 6.00 Build 0)  -->
<svg version="1.1" id="Capa_1" xmlns="http://www.w3.org/2000/svg" xmlns:xlink="http://www.w3.org/1999/xlink" x="0px" y="0px"
	 viewBox="0 0 93.05 93.05" style="enable-background:new 0 0 93.05 93.05;" xml:space="preserve">
<g>
	<g>
		<g>
			<polygon style="fill:#010002;" points="37.968,58.507 36.429,60.35 53.039,60.35 51.503,58.507 			"/>
		</g>
		<g>
			<path style="fill:#010002;" d="M48.765,61.359h-8.063c-0.279,0-0.505,0.222-0.505,0.508s0.225,0.505,0.505,0.505h8.063
				c0.279,0,0.508-0.222,0.508-0.505S49.045,61.359,48.765,61.359z"/>
		</g>
		<g>
			<path style="fill:#010002;" d="M84.06,66.08c3.45-6.345,5.411-13.614,5.411-21.344C89.471,20.027,69.444,0,44.736,0
				S0,20.027,0,44.736s20.027,44.736,44.736,44.736c7.73,0,14.999-1.961,21.344-5.411l26.97,8.99L84.06,66.08z M68.918,63.374
				H20.553c-1.668,0-3.021-1.353-3.021-3.024l5.035-6.045v-2.011V40.205V28.115c0-1.109,0.909-2.015,2.018-2.015h40.301
				c1.106,0,2.011,0.905,2.011,2.015v12.089v12.089v2.011l5.039,6.045C71.942,62.021,70.586,63.374,68.918,63.374z"/>
		</g>
		<g>
			<path style="fill:#010002;" d="M62.311,27.897H27.163c-0.963,0-1.754,0.791-1.754,1.761v21.083c0,0.97,0.791,1.761,1.754,1.761
				h35.148c0.963,0,1.75-0.791,1.75-1.761V29.658C64.061,28.688,63.274,27.897,62.311,27.897z"/>
		</g>
	</g>
</g>
<g>
</g>
<g>
</g>
<g>
</g>
<g>
</g>
<g>
</g>
<g>
</g>
<g>
</g>
<g>
</g>
<g>
</g>
<g>
</g>
<g>
</g>
<g>
</g>
<g>
</g>
<g>
</g>
<g>
</g>
</svg>
