<?xml version="1.0" encoding="iso-8859-1"?>
<!-- Generator: Adobe Illustrator 18.1.1, SVG Export Plug-In . SVG Version: 6.00 Build 0)  -->
<svg version="1.1" id="Capa_1" xmlns="http://www.w3.org/2000/svg" xmlns:xlink="http://www.w3.org/1999/xlink" x="0px" y="0px"
	 viewBox="0 0 412.443 412.443" style="enable-background:new 0 0 412.443 412.443;" xml:space="preserve">
<g>
	<g>
		<g>
			<g>
				<path style="fill:#010002;" d="M198.29,157.681v11.47h-11.47c0,6.329,5.124,11.454,11.47,11.454s11.47-5.124,11.47-11.454
					S204.62,157.681,198.29,157.681z"/>
			</g>
			<g>
				<path style="fill:#010002;" d="M198.29,129.033c-22.146,0-40.118,17.974-40.118,40.118s17.958,40.118,40.118,40.118
					c22.146,0,40.118-17.958,40.118-40.118C238.408,147.004,220.437,129.033,198.29,129.033z M198.29,203.541
					c-18.988,0-34.375-15.386-34.375-34.375s15.386-34.375,34.375-34.375s34.375,15.386,34.375,34.375
					S217.279,203.541,198.29,203.541z"/>
			</g>
			<g>
				<path style="fill:#010002;" d="M372.597,292.9c15.292-28.126,23.986-60.343,23.986-94.607C396.581,88.77,307.811,0,198.29,0
					S0,88.77,0,198.29s88.77,198.29,198.29,198.29c34.264,0,66.484-8.694,94.623-23.986l119.529,39.849L372.597,292.9z
					 M212.601,278.399c40.642,1.982,71.654,12.231,71.654,24.621c0,13.818-171.91,13.818-171.91,0
					c0-12.39,31.012-22.636,71.654-24.621l4.775-23.86c-42.974-4.74-76.413-41.148-76.413-85.389
					c0-47.48,38.485-85.948,85.948-85.948s85.948,38.485,85.948,85.948c0,44.244-33.438,80.649-76.413,85.392L212.601,278.399z"/>
			</g>
		</g>
	</g>
</g>
<g>
</g>
<g>
</g>
<g>
</g>
<g>
</g>
<g>
</g>
<g>
</g>
<g>
</g>
<g>
</g>
<g>
</g>
<g>
</g>
<g>
</g>
<g>
</g>
<g>
</g>
<g>
</g>
<g>
</g>
</svg>
