<?xml version="1.0" encoding="iso-8859-1"?>
<!-- Generator: Adobe Illustrator 18.1.1, SVG Export Plug-In . SVG Version: 6.00 Build 0)  -->
<svg version="1.1" id="Capa_1" xmlns="http://www.w3.org/2000/svg" xmlns:xlink="http://www.w3.org/1999/xlink" x="0px" y="0px"
	 viewBox="0 0 71.577 71.577" style="enable-background:new 0 0 71.577 71.577;" xml:space="preserve">
<g>
	<g>
		<polygon style="fill:#010002;" points="46.525,57.523 25.052,57.523 17.894,64.681 53.683,64.681 		"/>
		<path style="fill:#010002;" d="M0,6.896v46.525h14.634v-2.126c0.565-0.526,1.235-0.956,1.947-1.338
			c1.217-0.651,2.419-1.317,3.654-1.911c1.202-0.569,2.448-1.066,3.675-1.582c1.156-0.49,2.333-0.952,3.482-1.446
			c0.2-0.089,0.397-0.301,0.483-0.505c0.251-0.644,0.476-1.303,0.673-1.972c0.161-0.505,0.258-1.006,0.909-1.131
			c0.154-0.036,0.361-0.315,0.383-0.505c0.132-0.97,0.222-1.943,0.297-2.913c0.014-0.211-0.086-0.469-0.225-0.63
			c-0.855-0.956-1.321-2.054-1.525-3.318c-0.097-0.633-0.455-1.22-0.637-1.847c-0.236-0.837-0.447-1.686-0.63-2.534
			c-0.075-0.308-0.043-0.641-0.075-0.948c-0.075-0.458-0.068-0.812,0.483-0.991c0.154-0.047,0.279-0.412,0.279-0.633
			c0.036-1.356,0.007-2.716,0.021-4.076c0.007-0.834,0-1.671,0.064-2.498c0.115-1.593,1.049-2.716,2.222-3.679
			c1.714-1.41,3.758-2.072,5.859-2.566c1.113-0.261,2.237-0.422,3.357-0.601c0.308-0.047,0.608-0.004,0.923-0.004
			c0.05,0.075,0.097,0.15,0.154,0.225c-0.236,0.172-0.497,0.319-0.705,0.519c-0.455,0.458-0.404,0.777,0.082,1.192
			c1.013,0.859,2.026,1.718,3.013,2.609c0.873,0.78,1.21,1.804,1.21,2.956c0.007,1.976,0.007,3.951,0.007,5.927
			c-0.007,0.404-0.036,0.805,0.469,0.988c0.104,0.032,0.218,0.254,0.218,0.383c-0.082,1.013-0.197,2.022-0.301,3.031
			c-0.007,0.039-0.014,0.086-0.036,0.115c-0.909,1.328-1.027,2.953-1.678,4.381c-0.036,0.054-0.043,0.118-0.082,0.161
			c-1.195,1.421-0.82,3.128-0.845,4.763c-0.007,0.161,0.111,0.422,0.243,0.483c0.497,0.215,0.616,0.637,0.755,1.084
			c0.211,0.698,0.426,1.414,0.727,2.079c0.111,0.247,0.44,0.458,0.719,0.562c3.697,1.417,7.376,2.924,10.912,4.746
			c0.712,0.365,1.321,0.812,1.84,1.342v2.215h14.62V6.904L0,6.896L0,6.896z"/>
	</g>
</g>
<g>
</g>
<g>
</g>
<g>
</g>
<g>
</g>
<g>
</g>
<g>
</g>
<g>
</g>
<g>
</g>
<g>
</g>
<g>
</g>
<g>
</g>
<g>
</g>
<g>
</g>
<g>
</g>
<g>
</g>
</svg>
