<?xml version="1.0" encoding="iso-8859-1"?>
<!-- Generator: Adobe Illustrator 18.1.1, SVG Export Plug-In . SVG Version: 6.00 Build 0)  -->
<svg version="1.1" id="Capa_1" xmlns="http://www.w3.org/2000/svg" xmlns:xlink="http://www.w3.org/1999/xlink" x="0px" y="0px"
	 viewBox="0 0 62.573 62.573" style="enable-background:new 0 0 62.573 62.573;" xml:space="preserve">
<g>
	<g>
		<polygon style="fill:#010002;" points="23.903,57.645 18.982,62.573 43.59,62.573 38.666,57.645 		"/>
		<path style="fill:#010002;" d="M36.121,33.362c-0.061-0.014-0.301-0.039-0.354-0.021c0.007,0.05,0.279,0.204,0.336,0.204
			C36.111,33.552,36.114,33.398,36.121,33.362z"/>
		<path style="fill:#010002;" d="M35.202,32.911c0.007,0.032,0.05,0.057,0.054,0.086C35.298,33.362,35.538,32.857,35.202,32.911z"/>
		<path style="fill:#010002;" d="M25.85,30.291c0.032-0.011,0.064-0.011,0.097-0.004c-0.082,0.018-0.172,0.057-0.115,0.054
			c0.05,0,0.143-0.014,0.172-0.032c-0.104,0.004-0.086,0,0.054-0.011c0-0.007-0.004-0.011-0.011-0.014
			c0.011,0,0.021-0.004,0.036-0.004C26.011,30.277,25.893,30.27,25.85,30.291z"/>
		<path style="fill:#010002;" d="M33.405,30.871c0,0.075,0.018,0.057,0.014,0.15c0.011,0,0.021,0,0.032,0.004
			c-0.007-0.011-0.018-0.018,0-0.039c0.136,0.068,0.025,0.025,0.025,0.115c0,0.043,0.168,0.021,0.197,0.025
			c-0.05,0.061,0,0.072,0.068,0.072c0,0.086-0.115,0.082-0.186,0.079c0,0.1-0.079,0.111-0.079,0.165
			c0,0.014,0.222,0.054,0.254,0.025c0,0.047-0.229,0.082-0.279,0.168c0.082,0.004,0.791-0.057,0.784-0.089
			c-0.029-0.007-0.057-0.011-0.082-0.018c0.097-0.111,0.097-0.215,0.007-0.168c-0.021,0.004-0.021,0.011-0.05,0.014
			c-0.007-0.157-0.251-0.319-0.404-0.361c0.014-0.039,0.147-0.093,0.132-0.157c-0.115,0.054-0.197,0.043-0.236-0.036
			c0.036-0.014,0.072-0.032,0.097-0.054c0-0.132-0.336,0.043-0.265,0.072c0,0.011-0.097-0.014-0.107-0.014
			C33.316,30.85,33.348,30.86,33.405,30.871z"/>
		<path style="fill:#010002;" d="M35.32,32.696c-0.014-0.004-0.021-0.025-0.021-0.043c-0.032,0.021-0.061,0.036-0.093,0.036
			c0.025,0.032,0.05,0.147,0.093,0.157C35.313,32.818,35.313,32.736,35.32,32.696z"/>
		<path style="fill:#010002;" d="M24.619,37.145c-0.075-0.007-0.157,0.057-0.211-0.029c-0.118-0.175-0.125,0.279-0.129,0.329
			c-0.029-0.014-0.505,0.025-0.261,0.168c0.097-0.261,0.315,0.143,0.319,0.143c0.036,0.007,0.186-0.225,0.197-0.125
			c0,0.004,0.322,0.004,0.336,0.007c0,0.007-0.039-0.136-0.061-0.208C24.751,37.327,24.773,37.174,24.619,37.145z"/>
		<path style="fill:#010002;" d="M25.027,37.771c-0.036,0.107,0.157,0.168,0.215,0.093C25.242,37.803,25.066,37.657,25.027,37.771z"
			/>
		<path style="fill:#010002;" d="M38.619,33.949c-0.075,0.007-0.175,0.036-0.233,0.057C38.415,34.139,38.619,34.013,38.619,33.949z"
			/>
		<path style="fill:#010002;" d="M33.537,31.161c-0.021,0.007-0.029,0.018-0.029,0.032c0.021,0,0.036,0,0.043,0.004
			c0-0.014,0.007-0.025,0.007-0.032C33.552,31.165,33.545,31.161,33.537,31.161z"/>
		<path style="fill:#010002;" d="M26.594,30.277c-0.018,0.004-0.039,0.007-0.054,0.007c0.032,0,0.057-0.004,0.075-0.007
			c0.086,0,0.165-0.014,0.147-0.032c0.007-0.004,0.021-0.007,0.032-0.011c-0.054-0.05-0.258-0.025-0.326-0.021
			c-0.018,0.011-0.014,0.011,0.018,0.011c-0.011,0.004-0.021,0.007-0.032,0.007c0.007,0.004,0.029,0,0.079,0
			c-0.032,0.018-0.068,0.029-0.107,0.021C26.448,30.27,26.519,30.277,26.594,30.277z"/>
		<path style="fill:#010002;" d="M27.103,30.281c0.029,0,0.05-0.004,0.075-0.018c-0.072,0.004-0.143,0-0.211,0.014
			C26.963,30.277,27.088,30.284,27.103,30.281z"/>
		<path style="fill:#010002;" d="M33.29,30.796c0.043,0,0.075-0.025,0.075-0.05C33.355,30.753,33.208,30.789,33.29,30.796z"/>
		<path style="fill:#010002;" d="M26.369,30.316c-0.036-0.004-0.011-0.021-0.072-0.021c-0.018,0.011-0.007,0.036,0.018,0.032
			C26.337,30.327,26.358,30.32,26.369,30.316z"/>
		<path style="fill:#010002;" d="M32.997,31.437c0.215,0.014,0.34-0.047,0.347-0.236c0-0.029,0.175-0.136-0.064-0.15
			c-0.043-0.004-0.243-0.011-0.168,0.072c-0.029,0.018-0.161,0-0.165,0.05c0.025,0.018,0.05,0.039,0.075,0.061
			C33.001,31.286,32.779,31.422,32.997,31.437z"/>
		<path style="fill:#010002;" d="M27.017,30.17c0.007-0.004,0.018-0.011,0.029-0.014c-0.014,0-0.05,0-0.082,0.004
			C26.927,30.177,27.049,30.17,27.017,30.17z"/>
		<path style="fill:#010002;" d="M6.675,22.829v31.999h49.224V22.829H6.675z M40.881,35.194c-0.018-0.021-0.054-0.05-0.079-0.075
			c0.064,0.168,0.125,0.344,0.183,0.519c0.007-0.021,0.014-0.036,0.036-0.043c0.05,0.1-0.014,0.222,0.097,0.286
			c0.029,0.107,0.043,0.222,0.075,0.329c-0.054-0.2-0.14-0.379-0.208-0.573c0,0.014-0.007,0.036-0.029,0.039
			c-0.075-0.2-0.315-0.301-0.412-0.501c-0.175-0.351,0.097-0.215,0.258-0.057c-0.032-0.082-0.057-0.172-0.089-0.251
			C40.756,34.976,40.835,35.083,40.881,35.194z M40.08,33.559c-0.007,0-0.021,0-0.029,0.007c0.029,0.039,0.036,0.089,0.064,0.125
			c-0.082-0.147-0.175-0.279-0.265-0.419C39.919,33.376,40.015,33.452,40.08,33.559z M38.236,31.301
			c0.075,0.072,0.125,0.168,0.2,0.243c-0.229-0.229-0.433-0.49-0.687-0.694C37.929,31.011,38.097,31.175,38.236,31.301z
			 M25.467,30.42c0.004,0,0.004,0,0.011,0.004c-0.011,0-0.018,0.004-0.029,0.007C25.456,30.427,25.464,30.424,25.467,30.42z
			 M22.948,32.857c0.021-0.029,0.054-0.054,0.075-0.082c-0.029,0.039-0.061,0.072-0.089,0.107c-0.433,0.601-0.795,1.249-1.084,1.929
			c0.293-0.68,0.659-1.331,1.084-1.929C22.94,32.872,22.944,32.865,22.948,32.857z M26.118,47.699
			c0.011-0.021,0.029-0.043,0.061-0.043c0.021,0.043,0.054,0.086,0.089,0.129C26.215,47.76,26.165,47.728,26.118,47.699z
			 M40.402,43.547c-0.05,0.047-0.086,0.104-0.107,0.215c-1.743,3.185-5.128,5.34-9.008,5.34c-1.356,0-2.652-0.265-3.84-0.744
			c-0.047-0.136-0.53-0.229-0.254-0.397c0.179-0.082,0.036-0.322-0.007-0.419c0.032-0.007,0.19,0.05,0.143-0.057
			c0.029,0.064-0.433-0.147-0.247-0.197c0.097-0.029,0.34,0.05,0.272-0.111c0.004-0.082-0.154-0.251-0.004-0.29
			c0.129-0.032,0.344-0.061,0.404-0.2c0.175-0.394-0.197-0.283-0.297-0.544c0.021,0.057,0.544-0.021,0.58-0.197
			c0.047-0.251,0.143-0.476,0.175-0.727v0.004c0-0.093,0.029-0.186,0.093-0.258c-0.036-0.107-0.072-0.222-0.104-0.333
			c-0.021-0.129,0.15-0.315,0.247-0.372c0.34-0.218,0.397-0.361,0.501-0.748c0.032-0.225-0.204-0.748-0.122-0.902
			c0.107-0.204,0.54-1.041,0.086-1.138c-0.215-0.043-0.336-0.168-0.533-0.222c-0.2-0.057-0.422,0.007-0.598,0.029
			c-0.036-0.161-0.089-0.154-0.225-0.215c-0.372-0.154-0.197,0.186-0.387,0.208c-0.193,0.021-0.404-0.225-0.254-0.426
			c0.097-0.132-0.261-0.651-0.472-0.63c-0.179,0-0.662-0.043-0.773-0.208c-0.143-0.215-0.644-0.268-0.698-0.501
			c-0.136,0.029-0.293,0.111-0.383,0.075c-0.075-0.025-0.297,0.004-0.351-0.057c-0.072-0.082-0.222-0.19-0.344-0.19
			c0.011,0.068,0.079,0.036,0.111,0.097c-0.344,0.021-0.093,0.372-0.157,0.372c-0.15,0.007-0.111-0.315-0.111-0.383
			c0.043-0.032,0.05-0.072,0.014-0.097c-0.061-0.089-0.111,0.057-0.157,0.079c-0.211,0.093-0.555,0.283-0.501,0.562
			c-0.265,0.111,0,0.455,0.043,0.659c-0.025,0.05-0.007,0.075,0.05,0.097c0.004,0.215-0.283,0.44-0.286,0.655
			c-0.004,0.247-0.075,0.279,0.15,0.397c0.004,0.15-0.157,0.222-0.115,0.387c0.043,0.175,0.197,0.183,0.276,0.293
			c0.154,0.222,0.354,0.462,0.548,0.673c0.229,0.251,0.293,0.573,0.669,0.644c0.297,0.043,0.626,0.222,0.744,0.505
			c0.107,0.251,0.147,0.515,0.236,0.769c0.043,0.272,0.018,0.741,0.183,0.963c0.154,0.372,0.179,0.612,0.179,0.995
			c0,0.193,0.111,0.218,0.175,0.358c0.047,0.097,0,0.197,0.061,0.283c-2.988-1.793-4.989-5.068-4.989-8.808
			c0-0.623,0.075-1.224,0.183-1.814c-0.004,0-0.007-0.018-0.011-0.018c0.004-0.025,0.014-0.039,0.018-0.061
			c-0.004,0.021-0.004,0.05-0.007,0.075c0.072,0.029,0.104,0.311,0.2,0.336c0.086,0.025,0.172-0.222,0.222-0.032
			c0.072,0.018,0.036,0.351,0.064,0.412c0.072,0.183,0.204,0.272,0.34,0.319c-0.043,0.15-0.018,0.276-0.007,0.422
			c0.011,0.172-0.129,0.336-0.086,0.494c0.014,0.004,0.025,0.007,0.039,0.014c0-0.018,0.011-0.054,0.029-0.075
			c0.154,0.054,0.054,0.837,0.261,0.923c0.104,0.05,0.122-0.462,0.336-0.383c0.107,0.043,0.018,0.315,0.032,0.383
			c0,0.007,0.172-0.154,0.186-0.175c-0.036-0.132-0.039-0.483-0.272-0.376c-0.483,0.211-0.276-0.633-0.175-0.888
			c0.111-0.29,0.526-0.82-0.032-0.852c-0.462-0.032,0.072-0.462,0.129-0.565c0.043-0.05,0.082-0.093,0.125-0.19
			c0.064-0.132,0.179-0.236,0.247-0.372c-0.526-0.097-0.548,0.587-1.031,0.48c-0.354-0.075,0.412-1.349,0.451-1.442h0.007
			c0.15-0.265,0.34-0.379,0.598-0.523c0.175-0.089,0.297,0.168,0.426,0.111c-0.021-0.043,0.036-0.082,0.082-0.161
			c-0.029,0.014-0.021,0.014-0.047,0c0.075-0.029,0.143-0.007,0.211-0.029c-0.021,0.043,0.419,0.111,0.422,0.122
			c0.018,0.068-0.283,0.827-0.122,0.845c0.175,0.021,0.315-0.508,0.329-0.626c0.05-0.469,0.404-0.637,0.798-0.809
			c0-0.004-0.004-0.007-0.004-0.007c0.097-0.068,0.218-0.079,0.311-0.154c-0.075-0.079,0.036-0.061,0.075-0.107
			c-0.018-0.007-0.036-0.014-0.036-0.047c0.054-0.014,0.089-0.047,0.107-0.093c-0.007,0-0.018,0-0.029,0
			c-0.011-0.039,0.107-0.236,0.136-0.265c-0.004,0.014-0.05,0.215-0.061,0.211c0.14,0.004,0.161-0.222,0.233-0.265
			c-0.021-0.061,0.365-0.2,0.455-0.222c-0.021-0.029-0.111-0.007-0.143-0.007c0.157-0.064,0.369-0.057,0.512-0.107
			c-0.233,0.004,0.19-0.344,0.329-0.315c0.132,0.029,0.408-0.161,0.573-0.168c-0.032,0.047-0.021,0.061,0.039,0.054
			c-0.222,0.011-0.394,0.29-0.229,0.204c0.1-0.054,0.548-0.122,0.591-0.208c0.025-0.05-0.497-0.014-0.265-0.301
			c-0.021,0-0.061-0.011-0.1-0.011c0.068-0.043,0.19-0.021,0.233-0.1c0.05-0.093-0.598,0.057-0.63,0.061
			c0.268-0.215,1.56-0.168,1.432-0.601c-0.039,0.011-0.458,0.122-0.469,0.072c0.097-0.029,0.336-0.05,0.387-0.1
			c0.029-0.039-0.336-0.004-0.261-0.125l0.004-0.004c-0.086,0-0.118-0.032-0.15-0.054c0.2-0.064-0.004-0.351-0.14-0.283
			c0.011,0.014-0.011,0.054,0.014,0.061c-0.025-0.011-0.043-0.025-0.061-0.047c0.011-0.018,0.029-0.007,0.047-0.014
			c-0.018-0.018-0.061-0.018-0.021-0.086c-0.107,0.197-0.537,0.072-0.68,0c-0.501-0.24-0.347,0.093-0.723,0.175
			c0.007,0.183,0.261,0.183-0.086,0.319c-0.279,0.111-0.115,0.172-0.258,0.333c-0.079,0-0.089-0.011-0.118-0.018l0,0l0,0
			c0.021-0.032-0.032-0.039-0.072-0.029c0.011-0.054,0.154-0.143,0.057-0.211c-0.293,0.007-0.258-0.204-0.619-0.19
			c0.1-0.104,0.115-0.161-0.036-0.14c0.197-0.132,0.576-0.247,0.734-0.39c-0.014-0.011-0.029-0.018-0.047-0.025
			c0.179,0.014,0.483-0.018,0.601-0.122c-0.082-0.007-0.193,0.004-0.179-0.043c0.082,0.025,0.186,0.025,0.293,0.011
			c-0.097,0.039-0.225,0.111-0.272,0.15c0.025,0,0.086-0.011,0.129-0.004c-0.025,0.018-0.05,0.036-0.014,0.032
			c0.143-0.007,0.379-0.032,0.523-0.072c-0.007-0.018-0.075-0.007-0.1-0.025c-0.007-0.004,0.011-0.018,0.011-0.029
			c-0.014-0.036-0.15-0.054-0.186-0.039c0.004-0.011,0-0.018,0-0.029c0.036-0.007,0.068-0.014,0.1-0.025
			c-0.014,0.011-0.004,0.021,0.032,0.021c-0.004-0.011,0.011-0.032-0.029-0.021c0.197-0.057,0.387-0.147,0.48-0.229
			c-0.05,0-0.104-0.021-0.154-0.025c0.072-0.004,0.132-0.004,0.165-0.004c-0.047,0.036,0.186-0.021,0.243,0.011c0,0-0.004,0-0.007,0
			c0.021,0,0.039,0.011,0.057,0.025c-0.025,0.007-0.05,0.014-0.075,0.018c0.004-0.004,0.147,0,0.179,0.018
			c-0.061-0.004-0.115,0.007-0.165,0.043c0,0,0.197,0.057,0.197-0.025c0.122,0.089-0.243,0.157-0.143,0.19
			c-0.129,0.057-0.372,0.018-0.462,0.143c-0.018,0.021,0.401-0.029,0.444-0.004c0.097,0.047,0.286,0.161,0.444,0.129
			c0.125-0.029-0.111-0.143-0.111-0.143c0.215-0.036,0.208,0.072,0.265-0.115c-0.075,0.007-0.097-0.061-0.15-0.057
			c0.011-0.036,0.029-0.014,0.043-0.039c0.1,0.014,0.301,0.072,0.319-0.057c0.004-0.007-0.272-0.1-0.29-0.107
			c0.021-0.018,0.036-0.018,0.068-0.025c-0.021-0.011-0.05-0.014-0.075-0.011c0.018-0.014,0.043-0.011,0.072-0.014
			c-0.021-0.021-0.047-0.029-0.072-0.021c0.004-0.007,0.004-0.011,0.007-0.018c-0.222-0.007-0.419-0.079-0.655-0.082
			c0.011,0,0.039-0.047,0.036-0.054c-0.036-0.093-0.591,0.093-0.458,0.036c-0.061,0,0.14-0.05,0.183-0.061
			c-0.115-0.007-0.222-0.007-0.34,0.018c0.043-0.014,0.082-0.021,0.122-0.043c-0.247,0.011-0.34,0.011-0.523,0.136
			c0.061,0.004,0.115-0.011,0.168-0.043c-0.011,0-0.021,0-0.036,0c0.064-0.029,0.172-0.021,0.233-0.043
			c-0.039,0.021-0.261,0.047-0.225,0.115c0,0,0.154,0.004,0.175,0.011c-0.05,0.043-0.111,0.047-0.183,0.018
			c-0.061,0.05,0.447,0.057,0.447,0.057c-0.064,0.018-0.311,0.24-0.394,0.161c-0.011-0.057,0.018-0.079,0.089-0.075
			c0.057-0.05-0.24,0.021-0.225,0.021c0.075-0.061-0.064-0.036,0.05-0.068c-0.025-0.011-0.104,0.004-0.111-0.014
			c0.036-0.007,0.072-0.021,0.107-0.032c0.079-0.061-0.265-0.054-0.358,0.018c-0.025,0.018,0.125,0.032,0.097,0.054
			c-0.025,0.014-0.047,0.029-0.075,0.039c0.029-0.004,0.047-0.007,0.075-0.014c-0.036,0.057-0.179,0.036-0.268,0.104
			c-0.054,0.007-0.047,0-0.025-0.011c-0.125,0.032-0.472-0.011-0.687-0.018c-0.079,0.068-0.222,0.079-0.268,0.064
			c-0.157-0.054-0.293-0.011-0.419,0.064c-0.107,0.089-0.222,0.175-0.326,0.268c0.025-0.021,0.043-0.05,0.068-0.075
			c0.079-0.072,0.168-0.14,0.261-0.197c0.032-0.025,0.061-0.05,0.089-0.075c-0.018,0-0.032,0.004-0.047,0.007
			c0.021-0.018,0.047-0.032,0.068-0.054c0.014,0,0.011,0.014,0.011,0.021c0.014-0.014,0.032-0.029,0.05-0.043
			c-0.014,0-0.018,0-0.032,0c0.018-0.014,0.039-0.007,0.057-0.018c0.029-0.025,0.061-0.05,0.089-0.075c-0.007,0-0.018,0-0.025,0
			c0.029-0.021,0.14-0.111,0.222-0.157c0.004-0.004,0.011-0.011,0.018-0.014c-0.004,0-0.007,0-0.014,0
			c0.018-0.014,0.039-0.025,0.061-0.043v0.004c0.036-0.025,0.079-0.047,0.115-0.072c0.039,0,0.079,0,0.118-0.007
			c0.011-0.007,0.032-0.014,0.047-0.014v0.004c0.183-0.043,0.451,0.039,0.623-0.061c0.018-0.011-0.222,0.004-0.104-0.05
			c-0.021,0-0.24,0.039-0.14,0.043c-0.011,0.011-0.029,0.014-0.05,0.018c0.014-0.004,0.025,0.007,0.039,0c-0.025,0-0.036,0-0.043,0
			l0,0c-0.111,0.018-0.222-0.032-0.326-0.021c-0.007,0.007-0.007,0.007,0,0.011c-0.021,0-0.043,0.004-0.061,0.011
			c0.029-0.018,0.061-0.036,0.089-0.057l0,0c0.061-0.004,0.075-0.011,0.039-0.021c-0.004,0-0.007,0.007-0.014,0.007
			c1.636-1.106,3.579-1.789,5.698-1.789c2.022,0,3.908,0.591,5.501,1.6c-0.14-0.068-0.279-0.115-0.412-0.125
			c0.032-0.097-0.293-0.036-0.197-0.018c-0.132,0.018-0.286-0.021-0.404,0.018c0.014,0.004,0.007,0.004,0.032,0.011
			c-0.047-0.004-0.093,0-0.14,0.014c0.029,0,0.029,0,0.054,0.004c-0.007,0-0.272-0.021-0.279,0.011c0,0,0.036,0.004,0.05,0.004
			c-0.014,0-0.05,0.007-0.064,0.014c0.082,0.004,0.111-0.011,0.197-0.011c-0.021,0.064-0.616,0.304-0.691,0.308
			c0.032,0.007,0.05,0.011,0.089,0.018c-0.118-0.014-0.63,0.086-0.365,0.272c-0.025,0.011-0.043,0.029-0.057,0.05
			c0.047-0.007,0.047-0.007,0.097,0c0.007,0.061-0.061,0.021-0.061,0.061c0.014,0.14,0.394,0.039,0.44,0.011
			c0.132-0.079,0.165,0.004,0.24,0.118c0.032,0.043,0.154,0.283,0.215,0.29c0.075,0.004,0.372-0.072,0.372-0.172
			c-0.258-0.043,0.147-0.211,0.14-0.233c-0.029-0.118-0.193-0.082-0.215-0.215c-0.018-0.129,0.387-0.089,0.361-0.172
			c0.036-0.05,0.329-0.208,0.397-0.029c0.004,0.014-0.365,0.15-0.39,0.147c0.036,0.047,0.021,0.1,0.1,0.122
			c-0.129,0.165,0.766,0.143,0.834,0.222c-0.19,0.072-0.394-0.068-0.573,0.025c-0.057,0.029,0.147,0.104,0.147,0.165
			c0-0.068-0.462,0.036-0.426,0.29c-0.047,0-0.089-0.004-0.143-0.007c0-0.004,0.004-0.018,0.011-0.029
			c-0.111-0.043-0.587,0.125-0.565-0.021c-0.125-0.021-0.272-0.011-0.397-0.025c-0.007,0.032,0-0.011,0.011-0.068
			c0.029,0.011,0.075-0.007,0.079,0.036c0.007-0.061-0.025-0.075-0.072-0.082c0.011-0.05,0.025-0.093,0.036-0.089
			c-0.014-0.032-0.057-0.057-0.064-0.129c-0.243,0.093-0.247,0.093-0.111,0.326c0.064,0.1-0.183,0.089-0.251,0.082
			c-0.229-0.018-0.2,0.186-0.39,0.222c-0.225,0.05-0.265,0.15-0.53,0.129c0,0.043,0.021,0.072,0.025,0.111
			c-0.039,0.007-0.372-0.061-0.372,0.014c0,0.107,0.573,0.168,0.447,0.376c0,0,0,0,0.011-0.004c0.014,0.29-0.068,0.211-0.276,0.24
			c-0.19-0.014-0.372-0.064-0.555-0.079c-0.218-0.014-0.129,0.129-0.129,0.233c0,0.075-0.147,0.633,0.021,0.648
			c0.165,0.014,0.225-0.05,0.326,0.111c0.079,0.125,0.336-0.072,0.472-0.014c0.115-0.047,0.24-0.14,0.326-0.251
			c-0.272-0.122,0.351-0.383,0.358-0.412c-0.118-0.301,0.329-0.061,0.469-0.132c0.272-0.14,0.308-0.061,0.523,0.157
			c-0.039-0.086,0.909,0.659,0.612,0.626c0.021,0.129,0.183-0.115,0.183-0.093c-0.036-0.208-0.14-0.175,0.14-0.104
			c0-0.168-0.301-0.132-0.333-0.293c-0.2-0.018-0.508-0.283-0.533-0.472c-0.014-0.122,0.58,0.293,0.63,0.297
			c0.029,0.136,0.315,0.168,0.354,0.376c0.021,0.122,0.268,0.365,0.379,0.376c-0.064,0.125,0.029,0.2,0.179,0.218
			c-0.025-0.014-0.061-0.179-0.068-0.211c0.064,0.061,0.129,0.097,0.204,0.064c-0.122-0.104-0.183-0.211-0.293-0.315
			c-0.021-0.089,0.165,0.036,0.165,0.036c0.004-0.036-0.004-0.057-0.018-0.089c0.104-0.021,0.125-0.064,0.236,0.014
			c0.147,0.104,0.125-0.036,0.261-0.014c0,0.021,0.039,0.043,0.047,0.057c-0.061,0.021-0.397-0.032-0.372,0.089
			c0.021,0.097,0.165,0.036,0.021,0.183c0.132,0.072,0.204,0.143,0.311,0.236c-0.004,0.007-0.018,0.014-0.032,0.021
			c0.372,0.036,0.676,0.186,1.045,0.082c0.047,0.175,0.007,0.301-0.004,0.476c-0.004,0.05,0.011,0.222-0.036,0.251
			c-0.014,0.011,0.154,0.336,0.161,0.397c0.018,0.447,0.698,0.698,0.791,1.113c0.057,0.251,0.261,0.401,0.404,0.598
			c0.197,0.261,0.265,0.458,0.412,0.737c0.258,0.512,0.594,0.14,0.995,0c-0.025-0.179-0.029-0.365-0.064-0.537
			c0.036,0.175,0.086,0.336,0.115,0.519c-0.014,0.004-0.036,0.014-0.054,0.021c0.075,0.49,0.172,0.966,0.172,1.467
			C41.554,40.534,41.135,42.134,40.402,43.547z"/>
		<path style="fill:#010002;" d="M24.046,36.859c0.011-0.075-0.193-0.372-0.283-0.462c-0.279-0.268-0.469-0.218-0.723,0.104
			c0.247,0.036,0.276-0.315,0.358-0.039c0.315,0.039,0.379,0.372,0.293,0.58c0.157,0.025,0.311,0.222,0.458,0.025
			C24.079,36.977,24.182,36.894,24.046,36.859z"/>
		<path style="fill:#010002;" d="M23.674,37.542c-0.018-0.021-0.068-0.075-0.118-0.086c-0.036-0.011-0.168,0.161,0.129,0.15
			c0.007-0.036,0.007-0.057-0.014-0.075C23.674,37.535,23.674,37.535,23.674,37.542z"/>
		<polygon style="fill:#010002;" points="25.381,30.878 25.388,30.878 25.392,30.878 		"/>
		<path style="fill:#010002;" d="M36.039,31.068c0.021-0.029,0.043-0.057,0.068-0.082C36.082,30.989,35.985,31.029,36.039,31.068z"
			/>
		<path style="fill:#010002;" d="M25.381,30.878c-0.082,0-0.143,0-0.161,0.014C25.192,30.914,25.331,30.885,25.381,30.878z"/>
		<path style="fill:#010002;" d="M25.782,30.821c0,0-0.014-0.032-0.025-0.029c0.039-0.025,0.125-0.018,0.168-0.029
			c-0.089-0.072-0.157,0.007-0.1-0.122c0.011-0.025,0.15-0.111,0.161-0.111c-0.165-0.057-0.29,0.136-0.412,0.143
			c0.021,0-0.186-0.075-0.315-0.043c0.007-0.032-0.004-0.047-0.021-0.043c0.004-0.007,0.004-0.014,0.004-0.025
			c-0.018,0.011-0.032,0.025-0.047,0.039l0,0c-0.007,0.004-0.011,0.011-0.018,0.014c-0.068,0.05-0.129,0.107-0.193,0.157
			c0.043-0.004,0.1-0.014,0.14,0c-0.104,0.011-0.157,0.032-0.229,0.075c-0.007,0.004-0.014,0.011-0.021,0.018
			c0.025,0,0.054-0.004,0.061,0C24.962,30.9,25.668,30.875,25.782,30.821z"/>
		<polygon style="fill:#010002;" points="24.823,30.911 24.794,30.932 24.837,30.925 		"/>
		<path style="fill:#010002;" d="M35.466,31.175c-0.086-0.154-0.258,0.007-0.082,0.043c0,0.014-0.021,0.029-0.05,0.029
			c-0.007-0.014-0.014-0.014-0.029,0C35.423,31.329,35.388,31.183,35.466,31.175z"/>
		<path style="fill:#010002;" d="M36.443,31.004c0.05,0.004,0.072-0.039,0.072-0.075c-0.021-0.011-0.125-0.039-0.036,0.025
			c-0.032,0-0.054,0.011-0.079,0.011C36.404,30.982,36.415,31,36.443,31.004z"/>
		<polygon style="fill:#010002;" points="34.461,29.934 34.461,29.934 34.457,29.934 		"/>
		<path style="fill:#010002;" d="M24.272,35.542c-0.021,0-0.061,0.018-0.079,0.043c0.025,0,0.064,0.014,0.111,0.007
			C24.297,35.577,24.297,35.545,24.272,35.542z"/>
		<path style="fill:#010002;" d="M23.159,36.601c0.021-0.047,0.032,0.1,0.111-0.115c-0.025-0.029-0.025,0.007-0.043,0.05
			C23.191,36.544,23.169,36.565,23.159,36.601z"/>
		<path style="fill:#010002;" d="M24.114,35.878c-0.007,0.014-0.029,0.204,0.021,0.097C24.143,35.957,24.129,35.853,24.114,35.878z"
			/>
		<path style="fill:#010002;" d="M24.368,36.758c0.072,0.004,0.111-0.025,0.118-0.089C24.476,36.683,24.297,36.737,24.368,36.758z"
			/>
		<path style="fill:#010002;" d="M34.579,29.951c-0.007,0-0.007,0-0.014,0c0.036,0.025,0.154,0.011,0.222,0.007
			c-0.054,0.007-0.15,0.021-0.15,0.021c0,0.025,0.168,0.021,0.19,0.025c-0.057,0.004-0.104,0-0.157,0
			c0.007,0.122,0.347,0.004,0.451-0.021c0.014,0.007,0.036,0.021,0.05,0.025c0,0.014-0.029,0.007-0.029,0.025
			c0.029,0.004,0.086,0.004,0.122,0.007c-0.007,0.004-0.004,0.011,0,0.018c0.068-0.004,0.097-0.021,0.172-0.025
			c-0.075-0.043-0.179-0.054-0.258-0.064c0.007,0,0.021,0,0.029,0c-0.021-0.007-0.043-0.014-0.064-0.025
			c0.147,0.014,0.412-0.029,0.469-0.036c-0.154-0.079-0.419-0.043-0.594-0.043c0.007,0,0.007,0.004,0.014,0.007
			c-0.014,0-0.029,0-0.043,0v0.004c-0.025,0-0.057-0.004-0.079-0.004c0.014,0.032,0.1,0.025,0.122,0.025
			c0.007,0,0.111,0.007,0.125,0.007c-0.043,0-0.075,0.004-0.118,0c0.007,0.007,0.014,0.014,0.029,0.018
			c-0.064-0.011-0.125-0.018-0.168-0.011c0-0.007,0.007-0.011,0.007-0.014c-0.007-0.004-0.211-0.061-0.111,0.025
			c-0.018-0.004-0.172-0.025-0.125-0.014c-0.014-0.004-0.039-0.007-0.064-0.014c0.007,0,0.018-0.004,0.029-0.007
			c-0.064-0.014-0.118-0.011-0.175,0.007c0.021,0.011,0.047,0.018,0.072,0.021C34.511,29.941,34.543,29.944,34.579,29.951z"/>
		<path style="fill:#010002;" d="M26.29,31.315c0.054-0.007,0.165-0.047,0.215-0.068c-0.068-0.018-0.129,0.014-0.19,0.043
			C26.305,31.297,26.297,31.308,26.29,31.315z"/>
		<path style="fill:#010002;" d="M26.949,30.248c-0.122,0.014,0.075,0.004,0.136,0C27.135,30.18,26.884,30.198,26.949,30.248z"/>
		<path style="fill:#010002;" d="M27.954,32.428c-0.068-0.036-0.118-0.093-0.258-0.072C27.765,32.403,27.872,32.485,27.954,32.428z"
			/>
		<path style="fill:#010002;" d="M27.94,30.377c0.014-0.007,0.032-0.011,0.05-0.011c-0.007-0.05-0.769,0.018-0.719,0
			c-0.018-0.007-0.104,0.007-0.079-0.014c0.032,0,0.068-0.004,0.1-0.004c-0.014-0.039-0.408-0.043-0.447-0.018
			c0.043,0.014,0.082,0.025,0.125,0.025c0.05-0.029,0.079-0.018,0.089,0.032c-0.165,0.029,0.147,0.036,0.193,0.032
			c0.168-0.097,0.526,0.075,0.719-0.043C27.979,30.377,27.958,30.377,27.94,30.377z"/>
		<path style="fill:#010002;" d="M27.521,32.711c-0.018,0.032,0.175,0.143,0.225,0.036c-0.082,0.025-0.147,0.007-0.197-0.057
			C27.543,32.7,27.529,32.704,27.521,32.711z"/>
		<polygon style="fill:#010002;" points="27.31,30.227 27.332,30.223 27.317,30.223 		"/>
		<path style="fill:#010002;" d="M27.84,30.513c0.068-0.004,0.204,0,0.268-0.029c-0.082-0.018-0.268-0.072-0.347-0.011
			C27.729,30.485,27.833,30.513,27.84,30.513z"/>
		<path style="fill:#010002;" d="M28.584,30.116c0-0.011-0.021-0.011-0.043-0.014c0.039,0,0.064,0,0.075-0.014
			c-0.018,0-0.036,0-0.057,0c0.215-0.054,0.447-0.047,0.666-0.107c-0.039,0-0.107,0.004-0.122,0c0.021-0.004,0.265,0,0.276-0.029
			c0.018-0.036-0.39,0.025-0.236-0.014c-0.297-0.107-1.138-0.032-1.435,0.079c0.054,0,0.107-0.004,0.161-0.007
			c-0.032,0.004-0.05,0.007-0.086,0.014c0.064,0.011,0.122-0.014,0.186-0.011c-0.068,0.007-0.122,0.007-0.179,0.025
			c0.036,0,0.072,0,0.107-0.004c-0.025,0.004-0.05,0.007-0.075,0.011c0.011,0.018,0.064,0.021,0.129,0.021
			c0.036,0.011,0.021,0.018-0.039,0.018c0.025,0.004,0.093,0.029,0.086,0.032c-0.136,0.093-0.154-0.011-0.236,0.036
			c0.039-0.021,0.036-0.029-0.007-0.029c-0.057,0.029-0.222-0.039-0.301-0.039c-0.018,0.007,0.021,0.007,0.043,0.011
			c-0.047,0-0.097,0.004-0.143,0.011c0.004,0.007,0.011,0.007,0.018,0.011c-0.036,0-0.075-0.004-0.104,0.011
			c0.021,0.011,0.05,0.014,0.075,0.014c-0.039,0-0.082,0-0.125,0c-0.036,0.025,0.011,0.025,0.093,0.021
			c-0.004,0.004-0.011,0.004-0.018,0.004c0.068,0,0.172,0.007,0.204,0.011c-0.075,0-0.143,0.007-0.215,0.021
			c0.011,0.014,0.025,0.021,0.043,0.021c0.011,0,0.021,0,0.032-0.004c-0.004,0-0.014,0-0.018,0.004
			c0.057-0.014,0.218-0.004,0.272-0.004c0.004-0.007-0.004-0.007-0.004-0.014c0.068-0.014,0.179-0.025,0.243,0.025
			c-0.039,0.004-0.347-0.032-0.211,0.029c-0.05,0.004-0.1,0.011-0.15,0.025c0.243-0.025,0.626,0.115,0.787-0.043
			c0.011-0.007-0.061-0.004-0.086,0c0.039-0.036,0.129-0.018,0.147-0.064C28.434,30.163,28.48,30.134,28.584,30.116z"/>
		<path style="fill:#010002;" d="M25.632,30.388c0.025,0.004,0.05-0.004,0.072-0.018c-0.025,0.004-0.05,0.004-0.075,0.004
			C25.617,30.384,25.621,30.388,25.632,30.388z"/>
		<path style="fill:#010002;" d="M40.556,38.143c-0.351,0.064-0.483,0.161-0.576-0.258c-0.068-0.293-0.565-0.49-0.633-0.805
			c-0.054-0.229-0.107-0.315-0.261-0.487c-0.143-0.161-0.093-0.44-0.208-0.637c-0.104-0.172-0.125-0.354-0.218-0.526
			c-0.136-0.265-0.419-0.619-0.437-0.916c0.093,0.097,0.193,0.372,0.301,0.383c0.068-0.293,0.075-0.365-0.036-0.644
			c-0.193,0.05-0.354-0.068-0.533,0c-0.243,0.089-0.433,0.064-0.676-0.029c-0.168-0.061-0.866-0.469-0.855,0.007
			c0.011,0.544-0.641-0.168-0.816-0.222c-0.175-0.054-0.483,0.047-0.476-0.265c0-0.175,0.064-0.311,0.075-0.469
			c-0.05,0.05-0.097,0.047-0.143-0.014c-0.079-0.122-0.193,0.039-0.279,0.043c-0.186,0.007-0.347,0.004-0.526,0.007
			c-0.272,0.011-0.558,0.154-0.791,0.286c-0.286,0.168-0.54-0.075-0.705,0.143c0.004,0,0.007,0,0.011,0
			c-0.147,0.193-0.311,0.361-0.451,0.555c-0.097,0.132-0.064,0.308-0.111,0.455c-0.047,0.147-0.204,0.279-0.34,0.329
			c-0.243,0.089-0.34,0.372-0.444,0.591c-0.082,0.179-0.15,0.347-0.243,0.523c-0.129,0.222,0.047,0.58,0.036,0.82
			c-0.004,0.172-0.072,0.372-0.161,0.523c-0.089,0.14,0.025,0.315,0.021,0.497c-0.004,0-0.007,0-0.014,0
			c0.093,0.154,0.208,0.286,0.326,0.419c0.211,0.233,0.254,0.544,0.48,0.769c0.168,0.172,0.372,0.44,0.641,0.351
			c0.122-0.043,0.222-0.122,0.361-0.125c0.111-0.004,0.2,0.097,0.315,0.089c0.261-0.007,0.519-0.372,0.837-0.376
			c0.229-0.007,0.211,0.39,0.412,0.387c0.651-0.011,0.573,0.451,0.404,0.902c-0.104,0.29,0.183,0.562,0.344,0.766
			c0.161,0.204,0.179,0.512,0.243,0.759c0.064,0.225,0.175,0.598,0.115,0.834c-0.054,0.236-0.254,0.412-0.297,0.659
			c-0.064,0.351,0.072,0.684,0.222,0.984c0.147,0.293,0.154,0.412,0.19,0.734c0.075,0.684,0.601,1.181,0.594,1.847
			c0.072-0.043,0.279,0.089,0.465-0.004c0.2-0.1,0.369-0.061,0.562-0.075c0.018-0.082,0.39-0.222,0.465-0.322
			c0.179-0.243,0.286-0.523,0.48-0.748c0.211-0.251-0.025-0.433,0.222-0.644c0.229-0.197,0.308-0.118,0.322-0.497
			c0.007-0.161-0.301-0.558,0.032-0.63c0.039-0.233,0.276-0.336,0.458-0.447c0.519-0.322,0.118-0.777,0.329-1.224
			c0.075-0.168-0.172-0.358-0.172-0.537c0.004-0.168-0.039-0.336-0.036-0.512c0-0.172,0.143-0.258,0.175-0.412
			c0.129-0.601,0.641-0.762,0.956-1.224c0.272-0.397,0.809-1.335,0.601-1.818C40.931,37.997,40.752,38.097,40.556,38.143z"/>
		<path style="fill:#010002;" d="M31.143,30.46c-0.014,0-0.025-0.007-0.021-0.018c0.054,0,0.115-0.014,0.14-0.032
			c-0.039,0.004-0.072-0.004-0.104-0.021c0.014-0.039,0.086,0.011,0.104-0.043c0.021-0.057-0.111-0.05-0.104-0.064
			c0.029-0.068,0.24,0.029,0.268-0.043c-0.032-0.018-0.068-0.029-0.107-0.032c0.014,0,0.039-0.004,0.054-0.007
			c-0.064-0.014-0.125-0.018-0.186-0.011c0.072-0.039,0.476-0.129,0.505-0.183c0.111-0.004,0.322-0.018,0.351-0.068
			c0.011-0.014-0.984,0.107-1.045,0.115c0.014-0.011,0.218-0.075,0.222-0.082c0.004-0.004-0.039-0.004-0.097,0.004
			c0.072-0.011,0.132-0.032,0.168-0.064c-0.526-0.011-1.095-0.043-1.61,0.075c0.004,0.004,0.018,0.004,0.029,0.007
			c-0.025,0-0.054,0.004-0.079,0.014c0.025,0.018,0.054,0.025,0.086,0.021c-0.043,0.004-0.251-0.039-0.276,0
			c-0.004,0.007,0,0.011,0.004,0.014c-0.039-0.014-0.097-0.025-0.118,0.011c-0.075,0.004-0.594,0.025-0.648,0.132
			c0.032,0.011,0.064,0.014,0.097,0.011c-0.057,0.104-0.293,0.011-0.336,0.107c-0.014,0.032,0.211,0.014,0.233,0.014
			c-0.047,0.054-0.172-0.004-0.211,0.054c0.032-0.007,0.064-0.004,0.093,0.011c-0.007,0.007-0.018,0.007-0.032,0.014
			c0.032,0.018,0.064,0.021,0.097,0.014c-0.004,0-0.007-0.004-0.011-0.007c0.1-0.025,0.476-0.025,0.404,0.15
			c0.047,0.011,0.043,0.029-0.004,0.054c0.043-0.004,0.154,0.061,0.168,0.064c-0.032,0.05-0.097-0.011-0.147,0
			c-0.004,0.032,0.115,0.036,0.161,0.047c-0.054,0.061-0.19,0.079-0.215,0.161c0.011-0.004,0.021-0.004,0.032,0
			c-0.068,0.089,0.047,0.104,0.075,0.14c-0.143,0.075,0.247,0.254,0.301,0.261c0.086,0.007,0.276-0.315,0.433-0.351
			c0,0.007-0.004,0.014-0.007,0.025c0.172,0.004,0.261-0.093,0.412-0.136c0.229,0.004,0.472-0.036,0.691-0.111
			c-0.054-0.007-0.286-0.004-0.272-0.047c0.075-0.007,0.032-0.007,0.047-0.047c0.032,0.011,0.286,0.104,0.301,0.05
			c0.025-0.082-0.183-0.118-0.222-0.14c0.025-0.075,0.175,0.125,0.218,0c-0.039-0.021-0.082-0.043-0.129-0.054
			C30.95,30.474,31.072,30.538,31.143,30.46z"/>
		<path style="fill:#010002;" d="M27.997,32.732c0.007-0.014-0.011-0.021-0.014-0.036c-0.064,0.025-0.115,0.064-0.157,0.115
			c-0.021,0.043,0.154,0.036,0.186-0.029C27.908,32.782,27.979,32.775,27.997,32.732z"/>
		<path style="fill:#010002;" d="M28.534,32.575c-0.018,0-0.043,0.004-0.054,0.011c0.018-0.05,0.036-0.075,0.05-0.107
			c-0.029,0.011-0.086,0.007-0.132,0c-0.018,0.004-0.039,0.007-0.061,0.011c0,0,0.007-0.011,0.007-0.014c-0.025,0-0.054,0-0.079,0
			c0.004-0.021,0.018-0.039,0.043-0.043c-0.05-0.025-0.093-0.021-0.14,0.007c0.004-0.007,0.243-0.208,0.183-0.208
			c-0.197,0-0.34,0.279-0.526,0.336c0,0.011,0.014,0.018,0.029,0.018c-0.021,0.047-0.093,0.032-0.118,0.079
			c-0.004,0.004,0.465,0.039,0.519,0.039c-0.029,0.011-0.054,0.029-0.075,0.054c-0.007,0.018,0.204-0.089,0.2-0.089
			c0.089,0.093,0.079,0.225,0.172-0.011c-0.032,0.014-0.021,0.018-0.068,0.018C28.509,32.614,28.502,32.646,28.534,32.575z"/>
		<path style="fill:#010002;" d="M31.154,30.839c0.283,0.025,0.437,0.147,0.737,0.014c0.021-0.039-0.1-0.1-0.014-0.122
			c-0.039-0.004-0.351-0.036-0.358,0c-0.043-0.025-0.097,0.011-0.125-0.029c-0.032,0.014-0.125,0.05-0.082-0.039
			c-0.043-0.004-0.107,0.014-0.147,0.021c-0.007,0.014,0.115,0.075,0.111,0.068c-0.036,0.004-0.111,0.007-0.154,0.004
			c0.014,0.021,0.075,0.007,0.111,0.018c-0.018,0.021-0.036,0.032-0.05,0.057C31.183,30.835,31.165,30.839,31.154,30.839z"/>
		<path style="fill:#010002;" d="M26.276,30.545c-0.075,0.05-0.14,0-0.204,0.043c0.089,0.125,0.329,0.043,0.422-0.014
			c-0.011,0-0.043,0-0.05-0.004c0.068-0.047-0.025-0.014-0.061-0.014c0.05-0.007,0.097-0.025,0.143-0.043
			C26.509,30.528,26.079,30.542,26.276,30.545z"/>
		<path style="fill:#010002;" d="M26.709,30.424c0.004,0,0.297,0.007,0.218-0.032c-0.057-0.014-0.111-0.011-0.161,0.018
			C26.755,30.406,26.723,30.413,26.709,30.424z"/>
		<path style="fill:#010002;" d="M26.215,30.417c-0.039,0.007-0.075,0.011-0.111,0.032c0.021,0,0.021,0,0.047,0
			C26.19,30.46,26.212,30.445,26.215,30.417z"/>
		<path style="fill:#010002;" d="M26.015,30.807c-0.168,0.025,0.157,0.025,0.204,0.014C26.28,30.699,25.95,30.821,26.015,30.807z"/>
		<path style="fill:#010002;" d="M26.512,30.345c-0.011,0.014,0.021,0.011,0.061,0.011c-0.057,0.032-0.1-0.011-0.15,0.018
			c0,0.004,0.007,0.007,0.014,0.011c0.047,0,0.089-0.004,0.122,0.007c-0.032,0.007-0.1,0.014-0.136,0.039
			c0.054-0.032,0.319,0.05,0.315-0.086C26.738,30.345,26.526,30.341,26.512,30.345z"/>
		<polygon style="fill:#010002;" points="26.441,30.392 26.441,30.388 26.437,30.388 		"/>
		<path style="fill:#010002;" d="M26.29,30.367l-0.029,0.018c0.007,0.004,0.014,0.007,0.043,0.004
			c-0.004,0.004-0.007,0.007-0.007,0.011c0.032-0.004,0.089-0.011,0.14-0.014C26.405,30.381,26.29,30.334,26.29,30.367
			C26.29,30.37,26.29,30.37,26.29,30.367z"/>
		<path style="fill:#010002;" d="M31.286,3.582c6.438,0,12.615,2.749,16.939,7.53l2.656-2.401C45.884,3.178,38.737,0.004,31.283,0
			c-7.455,0-14.595,3.174-19.594,8.711l2.656,2.398C18.671,6.327,24.844,3.582,31.286,3.582z"/>
		<path style="fill:#010002;" d="M45.895,13.22c-3.733-4.126-9.051-6.492-14.612-6.492c-5.554,0-10.883,2.366-14.612,6.492
			l2.656,2.401c3.053-3.378,7.412-5.315,11.957-5.315c4.549,0,8.904,1.936,11.953,5.311L45.895,13.22z"/>
		<path style="fill:#010002;" d="M21.985,18.016l2.656,2.401c3.386-3.754,9.896-3.754,13.281,0l2.656-2.401
			c-2.373-2.623-5.758-4.13-9.298-4.13C27.74,13.882,24.358,15.389,21.985,18.016z"/>
	</g>
</g>
<g>
</g>
<g>
</g>
<g>
</g>
<g>
</g>
<g>
</g>
<g>
</g>
<g>
</g>
<g>
</g>
<g>
</g>
<g>
</g>
<g>
</g>
<g>
</g>
<g>
</g>
<g>
</g>
<g>
</g>
</svg>
