<?xml version="1.0" encoding="iso-8859-1"?>
<!-- Generator: Adobe Illustrator 18.1.1, SVG Export Plug-In . SVG Version: 6.00 Build 0)  -->
<svg version="1.1" id="Capa_1" xmlns="http://www.w3.org/2000/svg" xmlns:xlink="http://www.w3.org/1999/xlink" x="0px" y="0px"
	 viewBox="0 0 71.577 71.577" style="enable-background:new 0 0 71.577 71.577;" xml:space="preserve">
<g>
	<g>
		<g>
			<polygon style="fill:#010002;" points="25.052,57.523 17.894,64.681 53.683,64.681 46.525,57.523 			"/>
		</g>
		<g>
			<path style="fill:#010002;" d="M0,6.896v46.525h71.577V6.896H0z M46.207,24.816c0.011,0.233,0.014,0.465,0.014,0.698
				c0,7.104-5.408,15.292-15.289,15.292c-3.038,0-5.866-0.895-8.242-2.419c0.419,0.054,0.845,0.075,1.278,0.075
				c2.516,0,4.839-0.859,6.675-2.301c-2.355-0.047-4.334-1.6-5.018-3.733c0.329,0.064,0.666,0.097,1.006,0.097
				c0.494,0,0.97-0.068,1.417-0.19c-2.462-0.494-4.309-2.666-4.309-5.272v-0.068c0.723,0.401,1.557,0.644,2.437,0.673
				c-1.439-0.963-2.391-2.609-2.391-4.474c0-0.984,0.261-1.908,0.727-2.702c2.648,3.253,6.614,5.393,11.08,5.615
				c-0.089-0.394-0.136-0.802-0.136-1.224c0-2.967,2.405-5.375,5.375-5.375c1.546,0,2.938,0.651,3.926,1.7
				c1.224-0.24,2.373-0.691,3.411-1.306c-0.397,1.256-1.26,2.308-2.362,2.974c1.092-0.129,2.126-0.419,3.085-0.848
				C48.168,23.112,47.255,24.057,46.207,24.816z"/>
		</g>
	</g>
</g>
<g>
</g>
<g>
</g>
<g>
</g>
<g>
</g>
<g>
</g>
<g>
</g>
<g>
</g>
<g>
</g>
<g>
</g>
<g>
</g>
<g>
</g>
<g>
</g>
<g>
</g>
<g>
</g>
<g>
</g>
</svg>
