<?xml version="1.0" encoding="iso-8859-1"?>
<!-- Generator: Adobe Illustrator 18.1.1, SVG Export Plug-In . SVG Version: 6.00 Build 0)  -->
<svg version="1.1" id="Capa_1" xmlns="http://www.w3.org/2000/svg" xmlns:xlink="http://www.w3.org/1999/xlink" x="0px" y="0px"
	 viewBox="0 0 84.847 84.847" style="enable-background:new 0 0 84.847 84.847;" xml:space="preserve">
<g>
	<path style="fill:#010002;" d="M58.55,32.7V0H26.294l0.004,32.7c-7.065,3.579-11.681,9.967-11.681,19.304
		c0,15.36,12.451,32.843,27.808,32.843s27.808-17.486,27.808-32.843C70.231,42.663,65.611,36.282,58.55,32.7z M47.159,12.601h7.047
		l-0.004,7.047l-7.047,0.004L47.159,12.601z M30.656,12.594l7.054,0.004l-0.007,7.054h-7.047V12.594z M41.701,71.284L26.154,58.317
		l5.046-6.041l9.012,7.505L52.28,42.792l6.413,4.556L41.701,71.284z"/>
</g>
<g>
</g>
<g>
</g>
<g>
</g>
<g>
</g>
<g>
</g>
<g>
</g>
<g>
</g>
<g>
</g>
<g>
</g>
<g>
</g>
<g>
</g>
<g>
</g>
<g>
</g>
<g>
</g>
<g>
</g>
</svg>
