<?xml version="1.0" encoding="iso-8859-1"?>
<!-- Generator: Adobe Illustrator 18.1.1, SVG Export Plug-In . SVG Version: 6.00 Build 0)  -->
<svg version="1.1" id="Capa_1" xmlns="http://www.w3.org/2000/svg" xmlns:xlink="http://www.w3.org/1999/xlink" x="0px" y="0px"
	 viewBox="0 0 71.577 71.577" style="enable-background:new 0 0 71.577 71.577;" xml:space="preserve">
<g>
	<g>
		<polygon style="fill:#010002;" points="25.052,57.523 17.894,64.681 53.683,64.681 46.525,57.523 		"/>
		<path style="fill:#010002;" d="M26.244,22.69l-1.542,1.535l-1.539-1.542l1.542-1.535L26.244,22.69z M28.302,20.618l-1.539-1.539
			l1.539-1.539l1.539,1.539L28.302,20.618z"/>
		<path style="fill:#010002;" d="M0,6.896v46.525h71.577V6.896H0z M26.509,13.839l6.378,6.381l-7.04,7.04l-6.381-6.381
			L26.509,13.839z M51.797,38.938l-1.299,2.591c-0.608,1.224-2.112,2.731-3.339,3.346l-2.591,1.288
			c-1.224,0.608-3.013,0.315-3.98-0.655L26.509,31.433c-0.97-0.97-0.97-2.552,0-3.514l7.04-7.04c0.97-0.966,2.555-0.966,3.518,0
			l14.076,14.076C52.112,35.921,52.405,37.718,51.797,38.938z"/>
		<path style="fill:#010002;" d="M42.667,36.508c-0.043,0.029-0.057,0.025-0.082-0.007c-0.802-0.798-1.589-1.593-2.391-2.394
			c-0.036-0.032-0.075-0.075-0.093-0.111c-0.111-0.154-0.2-0.326-0.193-0.523c0.014-0.716,0.047-1.428,0.064-2.144
			c0.011-0.268,0.029-0.54,0.018-0.805c-0.021-0.444-0.168-0.841-0.494-1.16c-0.344-0.329-0.673-0.666-0.998-0.998
			c-0.011-0.011-0.021-0.021-0.032-0.036c0.147-0.15,0.301-0.304,0.447-0.451c-0.451-0.447-0.895-0.895-1.342-1.342
			c-0.455,0.451-0.898,0.898-1.349,1.346c0.447,0.447,0.895,0.895,1.349,1.346c0.15-0.15,0.301-0.301,0.451-0.451
			c0.011,0.014,0.021,0.021,0.029,0.029c0.358,0.347,0.694,0.694,1.038,1.045c0.047,0.036,0.075,0.068,0.086,0.107
			c0.104,0.154,0.19,0.319,0.186,0.512c-0.021,0.891-0.061,1.779-0.075,2.673c0,0.011,0,0.025,0,0.039
			c-1.729-1.732-3.468-3.461-5.196-5.196c0.179-0.179,0.361-0.365,0.548-0.551c-0.709-0.19-1.41-0.379-2.122-0.565
			c0.19,0.712,0.376,1.417,0.565,2.129c0.193-0.19,0.372-0.372,0.551-0.555c2.294,2.29,4.577,4.581,6.868,6.875
			c-0.021,0-0.036,0-0.057,0c-0.859,0.029-1.725,0.05-2.605,0.075c-0.258,0.004-0.49-0.086-0.673-0.265
			c-0.365-0.358-0.727-0.723-1.092-1.084c-0.025-0.021-0.029-0.039-0.014-0.075c0.143-0.372,0.089-0.716-0.175-1.016
			c-0.387-0.433-1.092-0.401-1.449,0.064c-0.265,0.351-0.261,0.823,0.014,1.181c0.254,0.326,0.712,0.444,1.109,0.276
			c0.039-0.014,0.061-0.011,0.079,0.014c0.347,0.347,0.687,0.687,1.031,1.034c0.351,0.347,0.777,0.505,1.253,0.497
			c0.952-0.007,1.908-0.047,2.86-0.072c0.021-0.004,0.029-0.004,0.061,0c0.222,0.032,0.408,0.118,0.569,0.279
			c0.236,0.236,0.483,0.472,0.712,0.709c0.047,0.036,0.054,0.057,0.007,0.104c-0.44,0.716-0.222,1.675,0.49,2.144
			c0.712,0.48,1.678,0.297,2.172-0.404c0.49-0.684,0.344-1.661-0.329-2.18C43.938,36.2,43.229,36.161,42.667,36.508z"/>
	</g>
</g>
<g>
</g>
<g>
</g>
<g>
</g>
<g>
</g>
<g>
</g>
<g>
</g>
<g>
</g>
<g>
</g>
<g>
</g>
<g>
</g>
<g>
</g>
<g>
</g>
<g>
</g>
<g>
</g>
<g>
</g>
</svg>
