<?xml version="1.0" encoding="iso-8859-1"?>
<!-- Generator: Adobe Illustrator 16.0.0, SVG Export Plug-In . SVG Version: 6.00 Build 0)  -->
<!DOCTYPE svg PUBLIC "-//W3C//DTD SVG 1.1//EN" "http://www.w3.org/Graphics/SVG/1.1/DTD/svg11.dtd">
<svg version="1.1" id="Capa_1" xmlns="http://www.w3.org/2000/svg" xmlns:xlink="http://www.w3.org/1999/xlink" x="0px" y="0px"
	 width="24.314px" height="24.314px" viewBox="0 0 24.314 24.314" style="enable-background:new 0 0 24.314 24.314;"
	 xml:space="preserve">
<g>
	<g>
		<path d="M11.178,0H3.312v7.129h7.866V0z M6.091,4.79h-1.72V3.07h1.72V4.79z M10.116,4.79h-1.72V3.07h1.72V4.79z"/>
		<path d="M7.994,20.316h1.387c0.393,0,0.712-0.321,0.712-0.712V19.1c0-0.035-0.017-0.068-0.021-0.104H4.419
			c-0.008,0.035-0.021,0.067-0.021,0.104v0.505c0,0.391,0.319,0.712,0.711,0.712h1.442c0.042,0.382,0.21,1.177,0.873,1.98
			c1.104,1.336,2.996,2.018,5.629,2.018v-1.426C8.864,22.889,8.127,20.984,7.994,20.316z"/>
		<path d="M10.729,18.387c-0.227-0.674-0.38-1.386-0.38-2.137c0-2.195,1.071-4.13,2.702-5.361V8.261c0-0.132-0.02-0.239-0.042-0.337
			c-0.057,0.167-0.281,0.284-0.666,0.284H2.168c-0.419,0-0.661-0.134-0.685-0.328C1.455,7.987,1.437,8.111,1.437,8.261v7.855
			c0,1.249,1.046,2.271,2.323,2.271h6.967H10.729z M8.868,11.438c-0.088-0.002-0.179,0-0.27,0c-0.003,0.008-0.003,0.012-0.003,0.02
			c0,0.201,0,0.401,0,0.604c0.003,0.191-0.072,0.356-0.199,0.496c-0.079,0.084-0.166,0.161-0.248,0.237
			c-0.22,0.211-0.441,0.418-0.665,0.631c-0.06,0.057-0.089,0.131-0.099,0.211c-0.002,0.021-0.005,0.045-0.005,0.063
			c0,0.479,0,0.96,0,1.438c0,0.021,0.005,0.025,0.026,0.031c0.271,0.065,0.474,0.291,0.51,0.571c0.05,0.356-0.197,0.694-0.554,0.755
			c-0.366,0.061-0.706-0.174-0.781-0.536c-0.071-0.354,0.155-0.708,0.505-0.788c0.021-0.008,0.025-0.015,0.025-0.037
			c-0.002-0.143-0.002-0.283-0.002-0.426c0-0.098-0.031-0.182-0.09-0.26c-0.005-0.005-0.007-0.01-0.017-0.014
			c-0.292-0.28-0.591-0.557-0.883-0.842c-0.142-0.141-0.225-0.316-0.225-0.525c0-0.207,0-0.414,0-0.624
			c0-0.015-0.003-0.023-0.021-0.029c-0.169-0.067-0.271-0.24-0.25-0.417c0.023-0.189,0.167-0.334,0.354-0.358
			c0.246-0.033,0.47,0.169,0.454,0.421c-0.008,0.169-0.096,0.287-0.254,0.356c-0.015,0.004-0.019,0.013-0.019,0.025
			c0,0.217,0,0.437,0.003,0.653c0.001,0.11,0.042,0.207,0.123,0.283c0.271,0.254,0.537,0.51,0.807,0.762
			c0.007,0.004,0.01,0.01,0.017,0.021c0-1.385,0-2.766,0-4.144c-0.107,0-0.218,0-0.333,0c0.158-0.274,0.312-0.542,0.471-0.812
			c0.16,0.271,0.312,0.538,0.471,0.811c-0.116,0-0.226,0-0.333,0c0,1.042-0.003,2.083,0,3.126c0.004-0.002,0.008-0.006,0.012-0.008
			c0.277-0.264,0.554-0.521,0.827-0.787c0.057-0.055,0.086-0.127,0.101-0.205c0.004-0.021,0.004-0.043,0.004-0.062
			c0-0.21,0-0.417,0-0.629c0-0.004,0-0.009,0-0.017c-0.091,0-0.179,0-0.269,0c0-0.272,0-0.541,0-0.811c0.269,0,0.536,0,0.809,0
			C8.868,10.896,8.868,11.165,8.868,11.438z"/>
		<path d="M17.093,10.467c-3.193,0-5.785,2.589-5.785,5.783c0,3.196,2.592,5.787,5.785,5.787s5.784-2.59,5.784-5.787
			C22.877,13.057,20.287,10.467,17.093,10.467z M20.021,20.823l-2.929-2.931l-2.931,2.931l-1.643-1.644l2.932-2.931l-2.932-2.929
			l1.643-1.641l2.931,2.932l2.929-2.932l1.643,1.641l-2.93,2.929l2.93,2.931L20.021,20.823z"/>
	</g>
</g>
<g>
</g>
<g>
</g>
<g>
</g>
<g>
</g>
<g>
</g>
<g>
</g>
<g>
</g>
<g>
</g>
<g>
</g>
<g>
</g>
<g>
</g>
<g>
</g>
<g>
</g>
<g>
</g>
<g>
</g>
</svg>
