<?xml version="1.0" encoding="iso-8859-1"?>
<!-- Generator: Adobe Illustrator 18.1.1, SVG Export Plug-In . SVG Version: 6.00 Build 0)  -->
<svg version="1.1" id="Capa_1" xmlns="http://www.w3.org/2000/svg" xmlns:xlink="http://www.w3.org/1999/xlink" x="0px" y="0px"
	 viewBox="0 0 88.798 88.798" style="enable-background:new 0 0 88.798 88.798;" xml:space="preserve">
<g>
	<g>
		<g>
			<path style="fill:#010002;" d="M49.92,75.306l-1.843-9.201c16.584-1.832,29.483-15.879,29.483-32.947
				C77.559,14.845,62.714,0,44.397,0S11.239,14.845,11.239,33.158c0,17.068,12.898,31.115,29.479,32.947l-1.84,9.201
				c-15.679,0.769-27.639,4.721-27.639,9.498c0,5.325,66.32,5.325,66.32,0C77.563,80.027,65.599,76.076,49.92,75.306z
				 M28.926,33.158c0-8.543,6.929-15.475,15.475-15.475c8.55,0,15.475,6.932,15.475,15.475c0,8.546-6.929,15.479-15.475,15.479
				C35.855,48.637,28.926,41.704,28.926,33.158z"/>
		</g>
		<g>
			<path style="fill:#010002;" d="M57.664,33.158c0-7.326-5.937-13.263-13.263-13.263s-13.263,5.937-13.263,13.263
				s5.937,13.27,13.263,13.27S57.664,40.488,57.664,33.158z M39.981,33.158h4.42v-4.42c2.448,0,4.416,1.979,4.416,4.42
				c0,2.444-1.979,4.42-4.416,4.42C41.96,37.578,39.981,35.602,39.981,33.158z"/>
		</g>
	</g>
</g>
<g>
</g>
<g>
</g>
<g>
</g>
<g>
</g>
<g>
</g>
<g>
</g>
<g>
</g>
<g>
</g>
<g>
</g>
<g>
</g>
<g>
</g>
<g>
</g>
<g>
</g>
<g>
</g>
<g>
</g>
</svg>
